advent_pro_fmm_bld_it.ufo
<glyph name="dollar" format="2">
  <advance width="548"/>
  <unicode hex="0024"/>
  <outline>
    <contour>
      <point x="480" y="574" type="curve"/>
      <point x="530" y="671" type="line"/>
      <point x="488" y="695"/>
      <point x="431" y="708"/>
      <point x="375" y="708" type="curve" smooth="yes"/>
      <point x="317" y="708"/>
      <point x="259" y="697"/>
      <point x="209" y="667" type="curve" smooth="yes"/>
      <point x="154" y="635"/>
      <point x="127" y="586"/>
      <point x="118" y="537" type="curve" smooth="yes"/>
      <point x="99" y="428"/>
      <point x="180" y="387"/>
      <point x="258" y="346" type="curve"/>
      <point x="278" y="337"/>
      <point x="299" y="326"/>
      <point x="318" y="313" type="curve"/>
      <point x="364" y="286"/>
      <point x="398" y="252"/>
      <point x="388" y="198" type="curve" smooth="yes"/>
      <point x="383" y="167"/>
      <point x="363" y="137"/>
      <point x="338" y="121" type="curve" smooth="yes"/>
      <point x="309" y="102"/>
      <point x="273" y="96"/>
      <point x="243" y="96" type="curve" smooth="yes"/>
      <point x="223" y="96"/>
      <point x="188" y="99"/>
      <point x="155" y="122" type="curve" smooth="yes"/>
      <point x="136" y="135"/>
      <point x="120" y="155"/>
      <point x="108" y="183" type="curve"/>
      <point x="13" y="127" type="line"/>
      <point x="34" y="81"/>
      <point x="53" y="55"/>
      <point x="84" y="31" type="curve" smooth="yes"/>
      <point x="124" y="-2"/>
      <point x="176" y="-12"/>
      <point x="222" y="-12" type="curve" smooth="yes"/>
      <point x="281" y="-12"/>
      <point x="343" y="-1"/>
      <point x="395" y="29" type="curve" smooth="yes"/>
      <point x="464" y="69"/>
      <point x="500" y="136"/>
      <point x="512" y="199" type="curve" smooth="yes"/>
      <point x="529" y="297"/>
      <point x="473" y="360"/>
      <point x="406" y="404" type="curve" smooth="yes"/>
      <point x="380" y="422"/>
      <point x="351" y="437"/>
      <point x="326" y="449" type="curve" smooth="yes"/>
      <point x="272" y="475"/>
      <point x="234" y="496"/>
      <point x="240" y="537" type="curve" smooth="yes"/>
      <point x="244" y="559"/>
      <point x="257" y="575"/>
      <point x="274" y="586" type="curve" smooth="yes"/>
      <point x="293" y="598"/>
      <point x="321" y="606"/>
      <point x="355" y="606" type="curve" smooth="yes"/>
      <point x="391" y="606"/>
      <point x="436" y="597"/>
    </contour>
    <contour>
      <point x="169" y="-114" type="line"/>
      <point x="279" y="-114" type="line"/>
      <point x="443" y="816" type="line"/>
      <point x="333" y="816" type="line"/>
    </contour>
  </outline>
</glyph>
<glyph name="percent" format="2">
  <advance width="811"/>
  <unicode hex="0025"/>
  <outline>
    <contour>
      <point x="12" y="0" type="line"/>
      <point x="136" y="0" type="line"/>
      <point x="799" y="698" type="line"/>
      <point x="672" y="698" type="line"/>
    </contour>
    <contour>
      <point x="294" y="713" type="curve" smooth="yes"/>
      <point x="213" y="713"/>
      <point x="137" y="648"/>
      <point x="123" y="568" type="curve" smooth="yes"/>
      <point x="108" y="487"/>
      <point x="162" y="422"/>
      <point x="243" y="422" type="curve" smooth="yes"/>
      <point x="322" y="422"/>
      <point x="399" y="487"/>
      <point x="414" y="568" type="curve" smooth="yes"/>
      <point x="428" y="648"/>
      <point x="373" y="713"/>
    </contour>
    <contour>
      <point x="278" y="620" type="curve" smooth="yes"/>
      <point x="305" y="620"/>
      <point x="326" y="596"/>
      <point x="321" y="568" type="curve" smooth="yes"/>
      <point x="316" y="539"/>
      <point x="286" y="515"/>
      <point x="259" y="515" type="curve" smooth="yes"/>
      <point x="229" y="515"/>
      <point x="211" y="539"/>
      <point x="216" y="568" type="curve" smooth="yes"/>
      <point x="221" y="596"/>
      <point x="248" y="620"/>
    </contour>
    <contour>
      <point x="577" y="277" type="curve" smooth="yes"/>
      <point x="496" y="277"/>
      <point x="420" y="212"/>
      <point x="406" y="131" type="curve" smooth="yes"/>
      <point x="391" y="51"/>
      <point x="445" y="-14"/>
      <point x="526" y="-14" type="curve" smooth="yes"/>
      <point x="606" y="-14"/>
      <point x="682" y="51"/>
      <point x="697" y="131" type="curve" smooth="yes"/>
      <point x="711" y="212"/>
      <point x="657" y="277"/>
    </contour>
    <contour>
      <point x="561" y="184" type="curve" smooth="yes"/>
      <point x="589" y="184"/>
      <point x="608" y="159"/>
      <point x="603" y="131" type="curve" smooth="yes"/>
      <point x="598" y="103"/>
      <point x="570" y="79"/>
      <point x="542" y="79" type="curve" smooth="yes"/>
      <point x="513" y="79"/>
      <point x="495" y="103"/>
      <point x="500" y="131" type="curve" smooth="yes"/>
      <point x="505" y="159"/>
      <point x="532" y="184"/>
    </contour>
  </outline>
</glyph>
<glyph name="parenleft" format="2">
  <advance width="320"/>
  <unicode hex="0028"/>
  <outline>
    <contour>
      <point x="309" y="729" type="curve"/>
      <point x="269" y="816" type="line"/>
      <point x="169" y="763"/>
      <point x="127" y="684"/>
      <point x="113" y="604" type="curve" smooth="yes"/>
      <point x="23" y="94" type="line" smooth="yes"/>
      <point x="9" y="13"/>
      <point x="18" y="-61"/>
      <point x="106" y="-116" type="curve"/>
      <point x="175" y="-35" type="line"/>
      <point x="175" y="-35"/>
      <point x="116" y="0"/>
      <point x="134" y="103" type="curve" smooth="yes"/>
      <point x="148" y="182"/>
      <point x="173" y="324"/>
      <point x="222" y="606" type="curve" smooth="yes"/>
      <point x="239" y="701"/>
      <point x="309" y="729"/>
    </contour>
  </outline>
</glyph>
<glyph name="asterisk" format="1">
  <advance width="365"/>
  <unicode hex="002A"/>
  <outline>
    <contour>
      <point x="83" y="653" type="line"/>
      <point x="25" y="550" type="line"/>
      <point x="141" y="540" type="line"/>
      <point x="37" y="466" type="line"/>
      <point x="122" y="396" type="line"/>
      <point x="181" y="514" type="line"/>
      <point x="198" y="396" type="line"/>
      <point x="312" y="464" type="line"/>
      <point x="230" y="539" type="line"/>
      <point x="352" y="549" type="line"/>
      <point x="326" y="654" type="line"/>
      <point x="221" y="586" type="line"/>
      <point x="275" y="698" type="line"/>
      <point x="155" y="698" type="line"/>
      <point x="168" y="586" type="line"/>
    </contour>
  </outline>
</glyph>
<glyph name="hyphen" format="1">
  <advance width="382"/>
  <unicode hex="002D"/>
  <outline>
    <contour>
      <point x="24" y="306" type="line"/>
      <point x="343" y="306" type="line"/>
      <point x="362" y="413" type="line"/>
      <point x="43" y="413" type="line"/>
    </contour>
    <contour>
      <point x="191" y="300" type="move" name="center"/>
    </contour>
    <contour>
      <point x="190" y="0" type="move" name="ogonek"/>
    </contour>
    <contour>
      <point x="191" y="545" type="move" name="top"/>
    </contour>
    <contour>
      <point x="191" y="545" type="move" name="tonos"/>
    </contour>
    <contour>
      <point x="191" y="0" type="move" name="bottom"/>
    </contour>
  </outline>
</glyph>
<glyph name="period" format="1">
  <advance width="178"/>
  <unicode hex="002E"/>
  <outline>
    <contour>
      <point x="89" y="103" type="curve" smooth="yes"/>
      <point x="56" y="103"/>
      <point x="25" y="76"/>
      <point x="19" y="43" type="curve" smooth="yes"/>
      <point x="13" y="10"/>
      <point x="35" y="-17"/>
      <point x="68" y="-17" type="curve" smooth="yes"/>
      <point x="101" y="-17"/>
      <point x="133" y="10"/>
      <point x="139" y="43" type="curve" smooth="yes"/>
      <point x="145" y="76"/>
      <point x="122" y="103"/>
    </contour>
  </outline>
</glyph>
<glyph name="one" format="2">
  <advance width="260"/>
  <unicode hex="0031"/>
  <outline>
    <contour>
      <point x="26" y="627" type="curve"/>
      <point x="42" y="531" type="line"/>
      <point x="42" y="531"/>
      <point x="102" y="541"/>
      <point x="128" y="557" type="curve"/>
      <point x="29" y="0" type="line"/>
      <point x="140" y="0" type="line"/>
      <point x="263" y="698" type="line"/>
      <point x="153" y="698" type="line"/>
      <point x="104" y="643"/>
      <point x="26" y="627"/>
    </contour>
  </outline>
</glyph>
<glyph name="two" format="2">
  <advance width="471"/>
  <unicode hex="0032"/>
  <outline>
    <contour>
      <point x="112" y="588" type="curve"/>
      <point x="195" y="541" type="line"/>
      <point x="216" y="580"/>
      <point x="253" y="601"/>
      <point x="290" y="601" type="curve"/>
      <point x="326" y="599"/>
      <point x="356" y="576"/>
      <point x="348" y="529" type="curve" smooth="yes"/>
      <point x="343" y="501"/>
      <point x="332" y="479"/>
      <point x="286" y="422" type="curve"/>
      <point x="191" y="317"/>
      <point x="101" y="209"/>
      <point x="10" y="101" type="curve"/>
      <point x="-7" y="0" type="line"/>
      <point x="366" y="0" type="line"/>
      <point x="383" y="100" type="line"/>
      <point x="137" y="100" type="line"/>
      <point x="250" y="235"/>
      <point x="309" y="304"/>
      <point x="365" y="372" type="curve" smooth="yes"/>
      <point x="412" y="428"/>
      <point x="446" y="476"/>
      <point x="457" y="538" type="curve" smooth="yes"/>
      <point x="477" y="650"/>
      <point x="400" y="708"/>
      <point x="310" y="708" type="curve" smooth="yes"/>
      <point x="230" y="708"/>
      <point x="153" y="662"/>
    </contour>
  </outline>
</glyph>
<glyph name="three" format="2">
  <advance width="449"/>
  <unicode hex="0033"/>
  <outline>
    <contour>
      <point x="272" y="411" type="curve"/>
      <point x="269" y="413" type="line"/>
      <point x="419" y="588" type="line"/>
      <point x="439" y="698" type="line"/>
      <point x="149" y="698" type="line"/>
      <point x="129" y="588" type="line"/>
      <point x="297" y="588" type="line"/>
      <point x="60" y="306" type="line"/>
      <point x="169" y="306" type="line" smooth="yes"/>
      <point x="211" y="306"/>
      <point x="243" y="297"/>
      <point x="264" y="284" type="curve" smooth="yes"/>
      <point x="292" y="266"/>
      <point x="303" y="239"/>
      <point x="296" y="201" type="curve" smooth="yes"/>
      <point x="290" y="170"/>
      <point x="277" y="144"/>
      <point x="254" y="124" type="curve" smooth="yes"/>
      <point x="233" y="106"/>
      <point x="205" y="95"/>
      <point x="172" y="95" type="curve" smooth="yes"/>
      <point x="128" y="95"/>
      <point x="90" y="122"/>
      <point x="78" y="161" type="curve"/>
      <point x="-4" y="82" type="line"/>
      <point x="26" y="24"/>
      <point x="84" y="-12"/>
      <point x="155" y="-12" type="curve" smooth="yes"/>
      <point x="215" y="-12"/>
      <point x="268" y="9"/>
      <point x="316" y="50" type="curve" smooth="yes"/>
      <point x="367" y="91"/>
      <point x="397" y="142"/>
      <point x="407" y="201" type="curve" smooth="yes"/>
      <point x="417" y="256"/>
      <point x="407" y="302"/>
      <point x="379" y="341" type="curve" smooth="yes"/>
      <point x="351" y="378"/>
      <point x="316" y="403"/>
    </contour>
  </outline>
</glyph>
<glyph name="four" format="2">
  <advance width="522"/>
  <unicode hex="0034"/>
  <outline>
    <contour>
      <point x="265" y="0" type="line"/>
      <point x="375" y="0" type="line"/>
      <point x="428" y="306" type="line"/>
      <point x="478" y="306" type="line"/>
      <point x="516" y="413" type="line"/>
      <point x="447" y="413" type="line"/>
      <point x="498" y="698" type="line"/>
      <point x="388" y="698" type="line"/>
      <point x="337" y="413" type="line"/>
      <point x="201" y="413" type="line"/>
      <point x="379" y="698" type="line"/>
      <point x="267" y="698" type="line"/>
      <point x="4" y="306" type="line"/>
      <point x="318" y="306" type="line"/>
    </contour>
  </outline>
</glyph>
<glyph name="five" format="1">
  <advance width="448"/>
  <unicode hex="0035"/>
  <outline>
    <contour>
      <point x="204" y="411" type="line"/>
      <point x="254" y="588" type="line"/>
      <point x="418" y="588" type="line"/>
      <point x="438" y="698" type="line"/>
      <point x="172" y="698" type="line"/>
      <point x="60" y="310" type="line"/>
      <point x="180" y="310" type="line" smooth="yes"/>
      <point x="265" y="310"/>
      <point x="308" y="277"/>
      <point x="295" y="201" type="curve" smooth="yes"/>
      <point x="285" y="142"/>
      <point x="231" y="95"/>
      <point x="159" y="95" type="curve"/>
      <point x="82" y="95"/>
      <point x="26" y="133"/>
      <point x="26" y="133" type="curve"/>
      <point x="-16" y="42" type="line"/>
      <point x="-16" y="42"/>
      <point x="54" y="-12"/>
      <point x="156" y="-12" type="curve" smooth="yes"/>
      <point x="313" y="-12"/>
      <point x="389" y="107"/>
      <point x="406" y="199" type="curve" smooth="yes"/>
      <point x="426" y="313"/>
      <point x="372" y="406"/>
      <point x="224" y="411" type="curve"/>
    </contour>
  </outline>
</glyph>
<glyph name="six" format="2">
  <advance width="465"/>
  <unicode hex="0036"/>
  <outline>
    <contour>
      <point x="323" y="598" type="curve" smooth="yes"/>
      <point x="362" y="598" type="line"/>
      <point x="380" y="698" type="line"/>
      <point x="346" y="698" type="line" smooth="yes"/>
      <point x="256" y="698"/>
      <point x="182" y="664"/>
      <point x="138" y="615" type="curve" smooth="yes"/>
      <point x="93" y="564"/>
      <point x="69" y="513"/>
      <point x="60" y="460" type="curve" smooth="yes"/>
      <point x="14" y="204" type="line" smooth="yes"/>
      <point x="4" y="144"/>
      <point x="16" y="94"/>
      <point x="50" y="52" type="curve" smooth="yes"/>
      <point x="82" y="11"/>
      <point x="129" y="-10"/>
      <point x="189" y="-10" type="curve" smooth="yes"/>
      <point x="247" y="-10"/>
      <point x="301" y="11"/>
      <point x="350" y="52" type="curve" smooth="yes"/>
      <point x="398" y="94"/>
      <point x="428" y="144"/>
      <point x="438" y="204" type="curve" smooth="yes"/>
      <point x="449" y="262"/>
      <point x="437" y="312"/>
      <point x="403" y="353" type="curve" smooth="yes"/>
      <point x="369" y="394"/>
      <point x="321" y="413"/>
      <point x="263" y="413" type="curve" smooth="yes"/>
      <point x="197" y="413"/>
      <point x="154" y="384"/>
      <point x="154" y="384" type="curve"/>
      <point x="164" y="437" type="line" smooth="yes"/>
      <point x="173" y="488"/>
      <point x="193" y="530"/>
      <point x="223" y="558" type="curve" smooth="yes"/>
      <point x="249" y="584"/>
      <point x="284" y="598"/>
    </contour>
    <contour>
      <point x="244" y="305" type="curve" smooth="yes"/>
      <point x="301" y="305"/>
      <point x="339" y="258"/>
      <point x="329" y="202" type="curve" smooth="yes"/>
      <point x="319" y="145"/>
      <point x="265" y="98"/>
      <point x="208" y="98" type="curve" smooth="yes"/>
      <point x="152" y="98"/>
      <point x="112" y="145"/>
      <point x="122" y="202" type="curve" smooth="yes"/>
      <point x="132" y="258"/>
      <point x="188" y="305"/>
    </contour>
  </outline>
</glyph>
<glyph name="seven" format="1">
  <advance width="509"/>
  <unicode hex="0037"/>
  <outline>
    <contour>
      <point x="110" y="0" type="line"/>
      <point x="506" y="588" type="line"/>
      <point x="526" y="698" type="line"/>
      <point x="133" y="698" type="line"/>
      <point x="113" y="588" type="line"/>
      <point x="382" y="588" type="line"/>
      <point x="-11" y="0" type="line"/>
    </contour>
  </outline>
</glyph>
<glyph name="eight" format="2">
  <advance width="478"/>
  <unicode hex="0038"/>
  <outline>
    <contour>
      <point x="313" y="708" type="curve" smooth="yes"/>
      <point x="263" y="708"/>
      <point x="219" y="691"/>
      <point x="180" y="656" type="curve" smooth="yes"/>
      <point x="140" y="621"/>
      <point x="117" y="581"/>
      <point x="108" y="532" type="curve" smooth="yes"/>
      <point x="102" y="498"/>
      <point x="103" y="468"/>
      <point x="115" y="442" type="curve" smooth="yes"/>
      <point x="124" y="421"/>
      <point x="138" y="404"/>
      <point x="157" y="389" type="curve"/>
      <point x="128" y="375"/>
      <point x="102" y="356"/>
      <point x="81" y="334" type="curve" smooth="yes"/>
      <point x="45" y="297"/>
      <point x="19" y="251"/>
      <point x="10" y="201" type="curve" smooth="yes"/>
      <point x="0" y="142"/>
      <point x="12" y="91"/>
      <point x="46" y="50" type="curve" smooth="yes"/>
      <point x="80" y="9"/>
      <point x="125" y="-12"/>
      <point x="185" y="-12" type="curve" smooth="yes"/>
      <point x="244" y="-12"/>
      <point x="297" y="9"/>
      <point x="345" y="50" type="curve" smooth="yes"/>
      <point x="395" y="91"/>
      <point x="426" y="142"/>
      <point x="436" y="201" type="curve" smooth="yes"/>
      <point x="446" y="258"/>
      <point x="432" y="311"/>
      <point x="399" y="350" type="curve"/>
      <point x="388" y="365"/>
      <point x="372" y="377"/>
      <point x="356" y="388" type="curve"/>
      <point x="382" y="403"/>
      <point x="402" y="421"/>
      <point x="419" y="442" type="curve" smooth="yes"/>
      <point x="439" y="468"/>
      <point x="452" y="498"/>
      <point x="458" y="532" type="curve" smooth="yes"/>
      <point x="467" y="581"/>
      <point x="456" y="621"/>
      <point x="428" y="656" type="curve" smooth="yes"/>
      <point x="400" y="691"/>
      <point x="361" y="708"/>
    </contour>
    <contour>
      <point x="270" y="466" type="curve" smooth="yes"/>
      <point x="250" y="466"/>
      <point x="232" y="476"/>
      <point x="224" y="490" type="curve"/>
      <point x="215" y="502"/>
      <point x="212" y="517"/>
      <point x="214" y="533" type="curve"/>
      <point x="221" y="571"/>
      <point x="256" y="599"/>
      <point x="293" y="599" type="curve" smooth="yes"/>
      <point x="330" y="599"/>
      <point x="355" y="571"/>
      <point x="348" y="533" type="curve"/>
      <point x="346" y="517"/>
      <point x="335" y="501"/>
      <point x="323" y="490" type="curve" smooth="yes"/>
      <point x="308" y="476"/>
      <point x="289" y="466"/>
    </contour>
    <contour>
      <point x="204" y="96" type="curve" smooth="yes"/>
      <point x="145" y="96"/>
      <point x="108" y="143"/>
      <point x="118" y="201" type="curve" smooth="yes"/>
      <point x="123" y="228"/>
      <point x="138" y="253"/>
      <point x="157" y="272" type="curve" smooth="yes"/>
      <point x="180" y="293"/>
      <point x="211" y="306"/>
      <point x="241" y="306" type="curve" smooth="yes"/>
      <point x="267" y="306"/>
      <point x="288" y="297"/>
      <point x="304" y="282" type="curve" smooth="yes"/>
      <point x="324" y="263"/>
      <point x="333" y="234"/>
      <point x="327" y="201" type="curve" smooth="yes"/>
      <point x="317" y="143"/>
      <point x="262" y="96"/>
    </contour>
  </outline>
</glyph>
<glyph name="less" format="1">
  <advance width="419"/>
  <unicode hex="003C"/>
  <outline>
    <contour>
      <point x="18" y="358" type="line"/>
      <point x="247" y="80" type="line"/>
      <point x="329" y="146" type="line"/>
      <point x="158" y="358" type="line"/>
      <point x="406" y="565" type="line"/>
      <point x="345" y="636" type="line"/>
    </contour>
  </outline>
</glyph>
<glyph name="equal" format="1">
  <advance width="401"/>
  <unicode hex="003D"/>
  <outline>
    <contour>
      <point x="46" y="356" type="line"/>
      <point x="366" y="356" type="line"/>
      <point x="385" y="461" type="line"/>
      <point x="65" y="461" type="line"/>
    </contour>
    <contour>
      <point x="19" y="204" type="line"/>
      <point x="339" y="204" type="line"/>
      <point x="358" y="309" type="line"/>
      <point x="38" y="309" type="line"/>
    </contour>
  </outline>
</glyph>
<glyph name="greater" format="2">
  <advance width="417"/>
  <unicode hex="003E"/>
  <outline>
    <contour>
      <point x="86" y="565" type="line"/>
      <point x="261" y="358" type="line"/>
      <point x="14" y="146" type="line"/>
      <point x="74" y="80" type="line"/>
      <point x="402" y="358" type="line"/>
      <point x="172" y="636" type="line"/>
    </contour>
  </outline>
</glyph>
<glyph name="B" format="2">
  <advance width="510"/>
  <unicode hex="0042"/>
  <outline>
    <contour>
      <point x="327" y="698" type="curve" smooth="yes"/>
      <point x="123" y="698" type="line"/>
      <point x="0" y="0" type="line"/>
      <point x="219" y="0" type="line" smooth="yes"/>
      <point x="295" y="0"/>
      <point x="351" y="25"/>
      <point x="391" y="61" type="curve" smooth="yes"/>
      <point x="436" y="100"/>
      <point x="460" y="154"/>
      <point x="469" y="205" type="curve" smooth="yes"/>
      <point x="485" y="296"/>
      <point x="451" y="354"/>
      <point x="397" y="381" type="curve"/>
      <point x="397" y="382" type="line" smooth="yes"/>
      <point x="397" y="383"/>
      <point x="397" y="383"/>
      <point x="398" y="384" type="curve"/>
      <point x="447" y="414"/>
      <point x="477" y="459"/>
      <point x="488" y="521" type="curve" smooth="yes"/>
      <point x="499" y="579"/>
      <point x="489" y="621"/>
      <point x="457" y="653" type="curve" smooth="yes"/>
      <point x="425" y="684"/>
      <point x="381" y="698"/>
    </contour>
    <contour>
      <point x="230" y="413" type="curve" smooth="yes"/>
      <point x="182" y="413" type="line"/>
      <point x="213" y="588" type="line"/>
      <point x="271" y="588" type="line" smooth="yes"/>
      <point x="339" y="588"/>
      <point x="369" y="568"/>
      <point x="358" y="505" type="curve" smooth="yes"/>
      <point x="352" y="476"/>
      <point x="344" y="455"/>
      <point x="328" y="441" type="curve" smooth="yes"/>
      <point x="307" y="421"/>
      <point x="274" y="413"/>
    </contour>
    <contour>
      <point x="207" y="101" type="curve" smooth="yes"/>
      <point x="127" y="101" type="line"/>
      <point x="164" y="307" type="line"/>
      <point x="234" y="307" type="line" smooth="yes"/>
      <point x="319" y="307"/>
      <point x="355" y="274"/>
      <point x="343" y="207" type="curve" smooth="yes"/>
      <point x="328" y="120"/>
      <point x="255" y="101"/>
    </contour>
  </outline>
</glyph>
<glyph name="C" format="2">
  <advance width="437"/>
  <unicode hex="0043"/>
  <outline>
    <contour>
      <point x="393" y="582" type="curve"/>
      <point x="440" y="675" type="line"/>
      <point x="397" y="698"/>
      <point x="350" y="710"/>
      <point x="302" y="710" type="curve" smooth="yes"/>
      <point x="253" y="710"/>
      <point x="203" y="697"/>
      <point x="163" y="664" type="curve" smooth="yes"/>
      <point x="121" y="632"/>
      <point x="87" y="581"/>
      <point x="73" y="503" type="curve" smooth="yes"/>
      <point x="17" y="183" type="line" smooth="yes"/>
      <point x="4" y="113"/>
      <point x="19" y="64"/>
      <point x="49" y="32" type="curve" smooth="yes"/>
      <point x="79" y="2"/>
      <point x="125" y="-12"/>
      <point x="179" y="-12" type="curve" smooth="yes"/>
      <point x="231" y="-11"/>
      <point x="288" y="1"/>
      <point x="349" y="23" type="curve"/>
      <point x="351" y="127" type="line"/>
      <point x="339" y="127"/>
      <point x="266" y="100"/>
      <point x="205" y="100" type="curve" smooth="yes"/>
      <point x="177" y="100"/>
      <point x="153" y="105"/>
      <point x="140" y="120" type="curve"/>
      <point x="126" y="133"/>
      <point x="122" y="154"/>
      <point x="127" y="185" type="curve" smooth="yes"/>
      <point x="185" y="512" type="line" smooth="yes"/>
      <point x="190" y="542"/>
      <point x="201" y="563"/>
      <point x="221" y="577" type="curve"/>
      <point x="240" y="592"/>
      <point x="267" y="599"/>
      <point x="302" y="599" type="curve" smooth="yes"/>
      <point x="332" y="599"/>
      <point x="368" y="592"/>
    </contour>
  </outline>
</glyph>
<glyph name="F" format="1">
  <advance width="437"/>
  <unicode hex="0046"/>
  <outline>
    <contour>
      <point x="457" y="698" type="line"/>
      <point x="123" y="698" type="line"/>
      <point x="0" y="0" type="line"/>
      <point x="110" y="0" type="line"/>
      <point x="164" y="308" type="line"/>
      <point x="266" y="308" type="line"/>
      <point x="319" y="413" type="line"/>
      <point x="182" y="413" type="line"/>
      <point x="213" y="588" type="line"/>
      <point x="437" y="588" type="line"/>
    </contour>
  </outline>
</glyph>
<glyph name="G" format="2">
  <advance width="465"/>
  <unicode hex="0047"/>
  <outline>
    <contour>
      <point x="387" y="576" type="curve"/>
      <point x="438" y="675" type="line"/>
      <point x="402" y="695"/>
      <point x="361" y="706"/>
      <point x="313" y="708" type="curve" smooth="yes"/>
      <point x="259" y="708"/>
      <point x="223" y="700"/>
      <point x="190" y="683" type="curve" smooth="yes"/>
      <point x="126" y="648"/>
      <point x="86" y="587"/>
      <point x="71" y="502" type="curve" smooth="yes"/>
      <point x="16" y="189" type="line" smooth="yes"/>
      <point x="4" y="123"/>
      <point x="14" y="73"/>
      <point x="51" y="40" type="curve" smooth="yes"/>
      <point x="86" y="7"/>
      <point x="132" y="-10"/>
      <point x="192" y="-10" type="curve" smooth="yes"/>
      <point x="217" y="-10"/>
      <point x="248" y="-4"/>
      <point x="285" y="8" type="curve"/>
      <point x="289" y="0" type="line"/>
      <point x="394" y="0" type="line"/>
      <point x="446" y="300" type="line"/>
      <point x="244" y="300" type="line"/>
      <point x="261" y="195" type="line"/>
      <point x="318" y="195" type="line"/>
      <point x="316" y="186" type="line"/>
      <point x="312" y="159"/>
      <point x="300" y="139"/>
      <point x="286" y="125" type="curve"/>
      <point x="268" y="109"/>
      <point x="242" y="101"/>
      <point x="210" y="101" type="curve" smooth="yes"/>
      <point x="145" y="101"/>
      <point x="114" y="123"/>
      <point x="125" y="187" type="curve" smooth="yes"/>
      <point x="182" y="510" type="line" smooth="yes"/>
      <point x="189" y="549"/>
      <point x="206" y="571"/>
      <point x="232" y="583" type="curve" smooth="yes"/>
      <point x="251" y="591"/>
      <point x="273" y="594"/>
      <point x="299" y="594" type="curve" smooth="yes"/>
      <point x="327" y="594"/>
      <point x="357" y="587"/>
    </contour>
  </outline>
</glyph>
<glyph name="I" format="2">
  <advance width="241"/>
  <unicode hex="0049"/>
  <outline>
    <contour>
      <point x="52" y="593" type="line"/>
      <point x="115" y="591" type="line"/>
      <point x="11" y="0" type="line"/>
      <point x="121" y="0" type="line"/>
      <point x="244" y="698" type="line"/>
      <point x="71" y="698" type="line"/>
    </contour>
  </outline>
</glyph>
<glyph name="J" format="1">
  <advance width="315"/>
  <unicode hex="004A"/>
  <outline>
    <contour>
      <point x="220" y="139" type="curve" smooth="yes"/>
      <point x="319" y="698" type="line"/>
      <point x="151" y="698" type="line"/>
      <point x="132" y="593" type="line"/>
      <point x="193" y="591" type="line"/>
      <point x="116" y="156" type="line" smooth="yes"/>
      <point x="104" y="90"/>
      <point x="63" y="57"/>
      <point x="-7" y="57" type="curve"/>
      <point x="12" y="-37" type="line"/>
      <point x="49" y="-36"/>
      <point x="98" y="-28"/>
      <point x="140" y="3" type="curve" smooth="yes"/>
      <point x="177" y="29"/>
      <point x="208" y="71"/>
    </contour>
    <contour>
      <point x="157" y="300" type="move" name="center"/>
    </contour>
    <contour>
      <point x="157" y="0" type="move" name="ogonek"/>
    </contour>
    <contour>
      <point x="157" y="735" type="move" name="top"/>
    </contour>
    <contour>
      <point x="52" y="700" type="move" name="tonos"/>
    </contour>
    <contour>
      <point x="157" y="0" type="move" name="bottom"/>
    </contour>
  </outline>
</glyph>
<glyph name="K" format="1">
  <advance width="528"/>
  <unicode hex="004B"/>
  <outline>
    <contour>
      <point x="198" y="459" type="line"/>
      <point x="241" y="700" type="line"/>
      <point x="123" y="700" type="line"/>
      <point x="0" y="0" type="line"/>
      <point x="118" y="0" type="line"/>
      <point x="165" y="268" type="line"/>
      <point x="174" y="278" type="line"/>
      <point x="313" y="0" type="line"/>
      <point x="451" y="0" type="line"/>
      <point x="256" y="376" type="line"/>
      <point x="534" y="700" type="line"/>
      <point x="402" y="700" type="line"/>
    </contour>
    <contour>
      <point x="264" y="300" type="move" name="center"/>
    </contour>
    <contour>
      <point x="264" y="0" type="move" name="ogonek"/>
    </contour>
    <contour>
      <point x="264" y="735" type="move" name="top"/>
    </contour>
    <contour>
      <point x="88" y="700" type="move" name="tonos"/>
    </contour>
    <contour>
      <point x="264" y="0" type="move" name="bottom"/>
    </contour>
  </outline>
</glyph>
<glyph name="L" format="1">
  <advance width="404"/>
  <unicode hex="004C"/>
  <outline>
    <contour>
      <point x="0" y="0" type="line"/>
      <point x="361" y="0" type="line"/>
      <point x="378" y="101" type="line"/>
      <point x="127" y="101" type="line"/>
      <point x="233" y="698" type="line"/>
      <point x="123" y="698" type="line"/>
    </contour>
    <contour>
      <point x="202" y="300" type="move" name="center"/>
    </contour>
    <contour>
      <point x="201" y="0" type="move" name="ogonek"/>
    </contour>
    <contour>
      <point x="202" y="735" type="move" name="top"/>
    </contour>
    <contour>
      <point x="67" y="700" type="move" name="tonos"/>
    </contour>
    <contour>
      <point x="202" y="0" type="move" name="bottom"/>
    </contour>
  </outline>
</glyph>
<glyph name="M" format="1">
  <advance width="656"/>
  <unicode hex="004D"/>
  <outline>
    <contour>
      <point x="233" y="698" type="line"/>
      <point x="123" y="698" type="line"/>
      <point x="0" y="0" type="line"/>
      <point x="110" y="0" type="line"/>
      <point x="175" y="369" type="line"/>
      <point x="226" y="0" type="line"/>
      <point x="309" y="0" type="line"/>
      <point x="491" y="370" type="line"/>
      <point x="426" y="0" type="line"/>
      <point x="536" y="0" type="line"/>
      <point x="659" y="698" type="line"/>
      <point x="549" y="698" type="line"/>
      <point x="308" y="237" type="line"/>
    </contour>
    <contour>
      <point x="328" y="300" type="move" name="center"/>
    </contour>
    <contour>
      <point x="327" y="0" type="move" name="ogonek"/>
    </contour>
    <contour>
      <point x="328" y="735" type="move" name="top"/>
    </contour>
    <contour>
      <point x="109" y="700" type="move" name="tonos"/>
    </contour>
    <contour>
      <point x="328" y="0" type="move" name="bottom"/>
    </contour>
  </outline>
</glyph>
<glyph name="N" format="1">
  <advance width="612"/>
  <unicode hex="004E"/>
  <outline>
    <contour>
      <point x="615" y="698" type="line"/>
      <point x="504" y="698" type="line"/>
      <point x="421" y="230" type="line"/>
      <point x="233" y="698" type="line"/>
      <point x="123" y="698" type="line"/>
      <point x="0" y="0" type="line"/>
      <point x="110" y="0" type="line"/>
      <point x="193" y="472" type="line"/>
      <point x="381" y="0" type="line"/>
      <point x="492" y="0" type="line"/>
    </contour>
    <contour>
      <point x="306" y="300" type="move" name="center"/>
    </contour>
    <contour>
      <point x="306" y="0" type="move" name="ogonek"/>
    </contour>
    <contour>
      <point x="306" y="735" type="move" name="top"/>
    </contour>
    <contour>
      <point x="102" y="700" type="move" name="tonos"/>
    </contour>
    <contour>
      <point x="306" y="0" type="move" name="bottom"/>
    </contour>
  </outline>
</glyph>
<glyph name="Q" format="1">
  <advance width="517"/>
  <unicode hex="0051"/>
  <outline>
    <contour>
      <point x="250" y="-36"/>
      <point x="237" y="-22"/>
      <point x="246" y="42" type="curve"/>
      <point x="273" y="173" type="line"/>
      <point x="180" y="173" type="line"/>
      <point x="151" y="31" type="line"/>
      <point x="136" y="-50"/>
      <point x="166" y="-117"/>
      <point x="329" y="-117" type="curve"/>
      <point x="360" y="-36" type="line"/>
    </contour>
    <component base="O"/>
  </outline>
</glyph>
<glyph name="R" format="2">
  <advance width="540"/>
  <unicode hex="0052"/>
  <outline>
    <contour>
      <point x="340" y="698" type="curve" smooth="yes"/>
      <point x="123" y="698" type="line"/>
      <point x="0" y="0" type="line"/>
      <point x="110" y="0" type="line"/>
      <point x="144" y="195" type="line"/>
      <point x="251" y="195" type="line" smooth="yes"/>
      <point x="263" y="195"/>
      <point x="275" y="195"/>
      <point x="287" y="196" type="curve"/>
      <point x="323" y="0" type="line"/>
      <point x="435" y="0" type="line"/>
      <point x="394" y="232" type="line"/>
      <point x="449" y="267"/>
      <point x="493" y="333"/>
      <point x="514" y="451" type="curve" smooth="yes"/>
      <point x="549" y="648"/>
      <point x="445" y="698"/>
    </contour>
    <contour>
      <point x="228" y="300" type="curve" smooth="yes"/>
      <point x="162" y="300" type="line"/>
      <point x="213" y="588" type="line"/>
      <point x="279" y="588" type="line" smooth="yes"/>
      <point x="381" y="588"/>
      <point x="425" y="576"/>
      <point x="403" y="451" type="curve" smooth="yes"/>
      <point x="379" y="317"/>
      <point x="331" y="300"/>
    </contour>
  </outline>
</glyph>
<glyph name="S" format="2">
  <advance width="533"/>
  <unicode hex="0053"/>
  <outline>
    <contour>
      <point x="467" y="574" type="curve"/>
      <point x="517" y="671" type="line"/>
      <point x="475" y="695"/>
      <point x="419" y="708"/>
      <point x="363" y="708" type="curve" smooth="yes"/>
      <point x="305" y="708"/>
      <point x="246" y="697"/>
      <point x="196" y="667" type="curve" smooth="yes"/>
      <point x="142" y="635"/>
      <point x="114" y="586"/>
      <point x="105" y="537" type="curve" smooth="yes"/>
      <point x="86" y="428"/>
      <point x="167" y="387"/>
      <point x="245" y="346" type="curve"/>
      <point x="266" y="337"/>
      <point x="287" y="326"/>
      <point x="306" y="313" type="curve"/>
      <point x="351" y="286"/>
      <point x="385" y="252"/>
      <point x="375" y="198" type="curve" smooth="yes"/>
      <point x="370" y="167"/>
      <point x="351" y="137"/>
      <point x="325" y="121" type="curve" smooth="yes"/>
      <point x="296" y="102"/>
      <point x="260" y="96"/>
      <point x="231" y="96" type="curve" smooth="yes"/>
      <point x="211" y="96"/>
      <point x="176" y="99"/>
      <point x="142" y="122" type="curve" smooth="yes"/>
      <point x="123" y="135"/>
      <point x="107" y="155"/>
      <point x="95" y="183" type="curve"/>
      <point x="0" y="127" type="line"/>
      <point x="22" y="81"/>
      <point x="41" y="55"/>
      <point x="71" y="31" type="curve" smooth="yes"/>
      <point x="111" y="-2"/>
      <point x="163" y="-12"/>
      <point x="209" y="-12" type="curve" smooth="yes"/>
      <point x="268" y="-12"/>
      <point x="330" y="-1"/>
      <point x="382" y="29" type="curve" smooth="yes"/>
      <point x="451" y="69"/>
      <point x="487" y="136"/>
      <point x="499" y="199" type="curve" smooth="yes"/>
      <point x="516" y="297"/>
      <point x="460" y="360"/>
      <point x="393" y="404" type="curve" smooth="yes"/>
      <point x="367" y="422"/>
      <point x="339" y="437"/>
      <point x="313" y="449" type="curve" smooth="yes"/>
      <point x="259" y="475"/>
      <point x="221" y="496"/>
      <point x="227" y="537" type="curve" smooth="yes"/>
      <point x="231" y="559"/>
      <point x="244" y="575"/>
      <point x="262" y="586" type="curve" smooth="yes"/>
      <point x="280" y="598"/>
      <point x="309" y="606"/>
      <point x="343" y="606" type="curve" smooth="yes"/>
      <point x="379" y="606"/>
      <point x="423" y="597"/>
    </contour>
  </outline>
</glyph>
<glyph name="T" format="1">
  <advance width="420"/>
  <unicode hex="0054"/>
  <outline>
    <contour>
      <point x="273" y="587" type="line"/>
      <point x="421" y="587" type="line"/>
      <point x="441" y="698" type="line"/>
      <point x="38" y="698" type="line"/>
      <point x="18" y="587" type="line"/>
      <point x="163" y="587" type="line"/>
      <point x="60" y="0" type="line"/>
      <point x="170" y="0" type="line"/>
    </contour>
    <contour>
      <point x="210" y="300" type="move" name="center"/>
    </contour>
    <contour>
      <point x="210" y="0" type="move" name="ogonek"/>
    </contour>
    <contour>
      <point x="210" y="735" type="move" name="top"/>
    </contour>
    <contour>
      <point x="70" y="700" type="move" name="tonos"/>
    </contour>
    <contour>
      <point x="210" y="0" type="move" name="bottom"/>
    </contour>
  </outline>
</glyph>
<glyph name="V" format="1">
  <advance width="489"/>
  <unicode hex="0056"/>
  <outline>
    <contour>
      <point x="31" y="698" type="line"/>
      <point x="83" y="0" type="line"/>
      <point x="211" y="0" type="line"/>
      <point x="509" y="698" type="line"/>
      <point x="382" y="698" type="line"/>
      <point x="185" y="216" type="line"/>
      <point x="155" y="698" type="line"/>
    </contour>
  </outline>
</glyph>
<glyph name="W" format="2">
  <advance width="714"/>
  <unicode hex="0057"/>
  <outline>
    <contour>
      <point x="425" y="698" type="line"/>
      <point x="346" y="698" type="line"/>
      <point x="161" y="252" type="line"/>
      <point x="157" y="698" type="line"/>
      <point x="36" y="698" type="line"/>
      <point x="47" y="0" type="line"/>
      <point x="175" y="0" type="line"/>
      <point x="324" y="353" type="line"/>
      <point x="351" y="0" type="line"/>
      <point x="475" y="0" type="line"/>
      <point x="733" y="698" type="line"/>
      <point x="606" y="698" type="line"/>
      <point x="452" y="252" type="line"/>
    </contour>
  </outline>
</glyph>
<glyph name="X" format="2">
  <advance width="658"/>
  <unicode hex="0058"/>
  <outline>
    <contour>
      <point x="359" y="466" type="line"/>
      <point x="253" y="698" type="line"/>
      <point x="123" y="698" type="line"/>
      <point x="267" y="350" type="line"/>
      <point x="-12" y="0" type="line"/>
      <point x="125" y="0" type="line"/>
      <point x="315" y="244" type="line"/>
      <point x="423" y="0" type="line"/>
      <point x="565" y="0" type="line"/>
      <point x="406" y="359" type="line"/>
      <point x="671" y="698" type="line"/>
      <point x="540" y="698" type="line"/>
    </contour>
  </outline>
</glyph>
<glyph name="Z" format="1">
  <advance width="592"/>
  <unicode hex="005A"/>
  <outline>
    <contour>
      <point x="599" y="698" type="line"/>
      <point x="131" y="698" type="line"/>
      <point x="111" y="588" type="line"/>
      <point x="440" y="588" type="line"/>
      <point x="11" y="101" type="line"/>
      <point x="-6" y="0" type="line"/>
      <point x="482" y="0" type="line"/>
      <point x="500" y="105" type="line"/>
      <point x="150" y="105" type="line"/>
      <point x="579" y="588" type="line"/>
    </contour>
    <contour>
      <point x="296" y="300" type="move" name="center"/>
    </contour>
    <contour>
      <point x="295" y="0" type="move" name="ogonek"/>
    </contour>
    <contour>
      <point x="296" y="735" type="move" name="top"/>
    </contour>
    <contour>
      <point x="98" y="700" type="move" name="tonos"/>
    </contour>
    <contour>
      <point x="296" y="0" type="move" name="bottom"/>
    </contour>
  </outline>
</glyph>
<glyph name="bracketleft" format="1">
  <advance width="348"/>
  <unicode hex="005B"/>
  <outline>
    <contour>
      <point x="266" y="701" type="line"/>
      <point x="319" y="711" type="line"/>
      <point x="337" y="816" type="line"/>
      <point x="176" y="816" type="line"/>
      <point x="12" y="-114" type="line"/>
      <point x="173" y="-114" type="line"/>
      <point x="192" y="-9" type="line"/>
      <point x="143" y="1" type="line"/>
    </contour>
  </outline>
</glyph>
<glyph name="backslash" format="1">
  <advance width="322"/>
  <unicode hex="005C"/>
  <outline>
    <contour>
      <point x="183" y="-114" type="line"/>
      <point x="300" y="-114" type="line"/>
      <point x="140" y="816" type="line"/>
      <point x="20" y="816" type="line"/>
    </contour>
  </outline>
</glyph>
<glyph name="bracketright" format="1">
  <advance width="346"/>
  <unicode hex="005D"/>
  <outline>
    <contour>
      <point x="12" y="-114" type="line"/>
      <point x="171" y="-114" type="line"/>
      <point x="335" y="816" type="line"/>
      <point x="175" y="816" type="line"/>
      <point x="157" y="711" type="line"/>
      <point x="205" y="701" type="line"/>
      <point x="82" y="1" type="line"/>
      <point x="30" y="-9" type="line"/>
    </contour>
  </outline>
</glyph>
<glyph name="asciicircum" format="1">
  <advance width="266"/>
  <unicode hex="005E"/>
  <outline>
    <contour>
      <point x="263" y="772" type="line"/>
      <point x="157" y="898" type="line"/>
      <point x="2" y="771" type="line"/>
      <point x="45" y="718" type="line"/>
      <point x="140" y="801" type="line"/>
      <point x="199" y="719" type="line"/>
    </contour>
  </outline>
</glyph>
<glyph name="underscore" format="1">
  <advance width="383"/>
  <unicode hex="005F"/>
  <outline>
    <contour>
      <point x="15" y="-77" type="line"/>
      <point x="334" y="-77" type="line"/>
      <point x="348" y="0" type="line"/>
      <point x="29" y="0" type="line"/>
    </contour>
  </outline>
</glyph>
<glyph name="grave" format="2">
  <advance width="266"/>
  <unicode hex="0060"/>
  <outline>
    <contour>
      <point x="153" y="704" type="line"/>
      <point x="146" y="730"/>
      <point x="122" y="749"/>
      <point x="92" y="734" type="curve" smooth="yes"/>
      <point x="60" y="718"/>
      <point x="59" y="682"/>
      <point x="73" y="663" type="curve"/>
      <point x="118" y="587" type="line"/>
      <point x="162" y="587" type="line"/>
    </contour>
  </outline>
</glyph>
<glyph name="a" format="2">
  <advance width="453"/>
  <unicode hex="0061"/>
  <outline>
    <contour>
      <point x="318" y="334" type="curve"/>
      <point x="295" y="378"/>
      <point x="236" y="400"/>
      <point x="190" y="400" type="curve" smooth="yes"/>
      <point x="117" y="400"/>
      <point x="47" y="354"/>
      <point x="29" y="252" type="curve"/>
      <point x="29" y="252"/>
      <point x="12" y="155"/>
      <point x="12" y="155" type="curve"/>
      <point x="-7" y="28"/>
      <point x="74" y="-11"/>
      <point x="188" y="-11" type="curve" smooth="yes"/>
      <point x="255" y="-11"/>
      <point x="313" y="-8"/>
      <point x="370" y="0" type="curve"/>
      <point x="370" y="0"/>
      <point x="404" y="194"/>
      <point x="423" y="306" type="curve" smooth="yes"/>
      <point x="440" y="398"/>
      <point x="424" y="442"/>
      <point x="404" y="464" type="curve" smooth="yes"/>
      <point x="367" y="504"/>
      <point x="304" y="508"/>
      <point x="251" y="508" type="curve"/>
      <point x="229" y="433" type="line"/>
      <point x="271" y="433"/>
      <point x="298" y="422"/>
      <point x="312" y="406" type="curve" smooth="yes"/>
      <point x="322" y="395"/>
      <point x="326" y="377"/>
    </contour>
    <contour>
      <point x="304" y="252" type="curve"/>
      <point x="304" y="252"/>
      <point x="276" y="94"/>
      <point x="276" y="94" type="curve"/>
      <point x="276" y="94"/>
      <point x="231" y="90"/>
      <point x="214" y="90" type="curve" smooth="yes"/>
      <point x="124" y="90"/>
      <point x="117" y="123"/>
      <point x="126" y="173" type="curve" smooth="yes"/>
      <point x="129" y="190"/>
      <point x="134" y="218"/>
      <point x="137" y="238" type="curve" smooth="yes"/>
      <point x="144" y="275"/>
      <point x="170" y="287"/>
      <point x="201" y="287" type="curve" smooth="yes"/>
      <point x="247" y="287"/>
      <point x="293" y="260"/>
    </contour>
  </outline>
</glyph>
<glyph name="b" format="2">
  <advance width="469"/>
  <unicode hex="0062"/>
  <outline>
    <contour>
      <point x="194" y="482" type="curve"/>
      <point x="233" y="698" type="line"/>
      <point x="123" y="698" type="line"/>
      <point x="0" y="0" type="line"/>
      <point x="58" y="-4"/>
      <point x="116" y="-11"/>
      <point x="174" y="-11" type="curve" smooth="yes"/>
      <point x="288" y="-11"/>
      <point x="382" y="25"/>
      <point x="411" y="155" type="curve"/>
      <point x="411" y="156"/>
      <point x="447" y="359"/>
      <point x="447" y="359" type="curve"/>
      <point x="465" y="461"/>
      <point x="399" y="508"/>
      <point x="324" y="508" type="curve" smooth="yes"/>
      <point x="279" y="508"/>
      <point x="241" y="501"/>
    </contour>
    <contour>
      <point x="126" y="94" type="curve"/>
      <point x="126" y="94"/>
      <point x="175" y="370"/>
      <point x="175" y="370" type="curve"/>
      <point x="187" y="377"/>
      <point x="227" y="394"/>
      <point x="274" y="394" type="curve" smooth="yes"/>
      <point x="304" y="394"/>
      <point x="341" y="382"/>
      <point x="334" y="345" type="curve" smooth="yes"/>
      <point x="331" y="324"/>
      <point x="308" y="193"/>
      <point x="304" y="174" type="curve" smooth="yes"/>
      <point x="295" y="123"/>
      <point x="277" y="91"/>
      <point x="185" y="91" type="curve" smooth="yes"/>
      <point x="169" y="91"/>
      <point x="126" y="94"/>
    </contour>
  </outline>
</glyph>
<glyph name="d" format="2">
  <advance width="491"/>
  <unicode hex="0064"/>
  <outline>
    <contour>
      <point x="371" y="0" type="curve"/>
      <point x="494" y="698" type="line"/>
      <point x="384" y="698" type="line"/>
      <point x="345" y="482" type="line"/>
      <point x="306" y="501"/>
      <point x="270" y="508"/>
      <point x="224" y="508" type="curve" smooth="yes"/>
      <point x="150" y="508"/>
      <point x="67" y="461"/>
      <point x="49" y="359" type="curve"/>
      <point x="49" y="359"/>
      <point x="13" y="156"/>
      <point x="13" y="155" type="curve"/>
      <point x="-4" y="25"/>
      <point x="79" y="-11"/>
      <point x="192" y="-11" type="curve" smooth="yes"/>
      <point x="257" y="-11"/>
      <point x="315" y="-8"/>
    </contour>
    <contour>
      <point x="326" y="370" type="curve"/>
      <point x="326" y="370"/>
      <point x="277" y="94"/>
      <point x="277" y="94" type="curve"/>
      <point x="277" y="94"/>
      <point x="233" y="91"/>
      <point x="217" y="91" type="curve" smooth="yes"/>
      <point x="127" y="91"/>
      <point x="118" y="123"/>
      <point x="127" y="174" type="curve" smooth="yes"/>
      <point x="131" y="193"/>
      <point x="154" y="324"/>
      <point x="157" y="345" type="curve" smooth="yes"/>
      <point x="164" y="382"/>
      <point x="205" y="394"/>
      <point x="236" y="394" type="curve" smooth="yes"/>
      <point x="282" y="394"/>
      <point x="315" y="377"/>
    </contour>
  </outline>
</glyph>
<glyph name="e" format="2">
  <advance width="425"/>
  <unicode hex="0065"/>
  <outline>
    <contour>
      <point x="123" y="148" type="curve" smooth="yes"/>
      <point x="127" y="173" type="line"/>
      <point x="378" y="186" type="line"/>
      <point x="406" y="342" type="line" smooth="yes"/>
      <point x="416" y="402"/>
      <point x="403" y="449"/>
      <point x="369" y="477" type="curve" smooth="yes"/>
      <point x="343" y="498"/>
      <point x="306" y="509"/>
      <point x="259" y="509" type="curve" smooth="yes"/>
      <point x="208" y="509"/>
      <point x="164" y="496"/>
      <point x="129" y="472" type="curve" smooth="yes"/>
      <point x="85" y="442"/>
      <point x="56" y="397"/>
      <point x="45" y="339" type="curve" smooth="yes"/>
      <point x="9" y="134" type="line" smooth="yes"/>
      <point x="0" y="80"/>
      <point x="13" y="43"/>
      <point x="39" y="20" type="curve" smooth="yes"/>
      <point x="66" y="-3"/>
      <point x="104" y="-13"/>
      <point x="148" y="-13" type="curve" smooth="yes"/>
      <point x="208" y="-13"/>
      <point x="274" y="5"/>
      <point x="327" y="35" type="curve"/>
      <point x="303" y="130" type="line"/>
      <point x="257" y="108"/>
      <point x="205" y="90"/>
      <point x="169" y="90" type="curve" smooth="yes"/>
      <point x="150" y="90"/>
      <point x="138" y="95"/>
      <point x="130" y="106" type="curve" smooth="yes"/>
      <point x="122" y="116"/>
      <point x="119" y="129"/>
    </contour>
    <contour>
      <point x="290" y="312" type="curve"/>
      <point x="288" y="305"/>
      <point x="285" y="289"/>
      <point x="284" y="283" type="curve"/>
      <point x="145" y="274" type="line"/>
      <point x="147" y="284"/>
      <point x="150" y="304"/>
      <point x="152" y="313" type="curve"/>
      <point x="157" y="345"/>
      <point x="163" y="367"/>
      <point x="183" y="385" type="curve"/>
      <point x="196" y="395"/>
      <point x="216" y="403"/>
      <point x="240" y="404" type="curve" smooth="yes"/>
      <point x="261" y="404"/>
      <point x="274" y="397"/>
      <point x="282" y="388" type="curve" smooth="yes"/>
      <point x="298" y="371"/>
      <point x="296" y="348"/>
    </contour>
  </outline>
</glyph>
<glyph name="f" format="2">
  <advance width="317"/>
  <unicode hex="0066"/>
  <outline>
    <contour>
      <point x="296" y="606" type="curve"/>
      <point x="332" y="706" type="line"/>
      <point x="313" y="708"/>
      <point x="289" y="711"/>
      <point x="271" y="711" type="curve" smooth="yes"/>
      <point x="190" y="711"/>
      <point x="115" y="659"/>
      <point x="95" y="548" type="curve" smooth="yes"/>
      <point x="-1" y="0" type="line"/>
      <point x="112" y="0" type="line"/>
      <point x="181" y="396" type="line"/>
      <point x="244" y="396" type="line"/>
      <point x="286" y="499" type="line"/>
      <point x="199" y="499" type="line"/>
      <point x="209" y="555"/>
      <point x="210" y="557"/>
      <point x="210" y="558" type="curve"/>
      <point x="216" y="594"/>
      <point x="232" y="612"/>
      <point x="258" y="612" type="curve" smooth="yes"/>
      <point x="271" y="612"/>
      <point x="286" y="609"/>
    </contour>
  </outline>
</glyph>
<glyph name="g" format="2">
  <advance width="454"/>
  <unicode hex="0067"/>
  <outline>
    <contour>
      <point x="346" y="-64" type="curve" smooth="yes"/>
      <point x="445" y="499" type="line"/>
      <point x="335" y="499" type="line"/>
      <point x="332" y="477" type="line"/>
      <point x="304" y="498"/>
      <point x="272" y="509"/>
      <point x="235" y="509" type="curve" smooth="yes"/>
      <point x="132" y="509"/>
      <point x="66" y="446"/>
      <point x="48" y="345" type="curve" smooth="yes"/>
      <point x="19" y="176" type="line" smooth="yes"/>
      <point x="-3" y="53"/>
      <point x="44" y="-12"/>
      <point x="155" y="-12" type="curve" smooth="yes"/>
      <point x="188" y="-12"/>
      <point x="224" y="-3"/>
      <point x="250" y="12" type="curve"/>
      <point x="238" y="-53" type="line" smooth="yes"/>
      <point x="229" y="-106"/>
      <point x="186" y="-124"/>
      <point x="153" y="-124" type="curve"/>
      <point x="164" y="-210" type="line"/>
      <point x="259" y="-210"/>
      <point x="328" y="-169"/>
    </contour>
    <contour>
      <point x="316" y="386" type="curve"/>
      <point x="272" y="139" type="line" smooth="yes"/>
      <point x="268" y="116"/>
      <point x="238" y="92"/>
      <point x="182" y="88" type="curve"/>
      <point x="135" y="88"/>
      <point x="119" y="120"/>
      <point x="126" y="159" type="curve" smooth="yes"/>
      <point x="157" y="337" type="line" smooth="yes"/>
      <point x="167" y="393"/>
      <point x="205" y="410"/>
      <point x="244" y="410" type="curve" smooth="yes"/>
      <point x="278" y="410"/>
      <point x="316" y="386"/>
    </contour>
  </outline>
</glyph>
<glyph name="h" format="2">
  <advance width="457"/>
  <unicode hex="0068"/>
  <outline>
    <contour>
      <point x="192" y="476" type="curve"/>
      <point x="232" y="698" type="line"/>
      <point x="123" y="698" type="line"/>
      <point x="0" y="0" type="line"/>
      <point x="109" y="0" type="line"/>
      <point x="177" y="386" type="line"/>
      <point x="211" y="402"/>
      <point x="238" y="409"/>
      <point x="261" y="409" type="curve" smooth="yes"/>
      <point x="303" y="409"/>
      <point x="328" y="381"/>
      <point x="321" y="343" type="curve" smooth="yes"/>
      <point x="261" y="0" type="line"/>
      <point x="370" y="0" type="line"/>
      <point x="430" y="345" type="line" smooth="yes"/>
      <point x="453" y="473"/>
      <point x="377" y="509"/>
      <point x="298" y="509" type="curve" smooth="yes"/>
      <point x="257" y="509"/>
      <point x="212" y="488"/>
    </contour>
  </outline>
</glyph>
<glyph name="k" format="1">
  <advance width="443"/>
  <unicode hex="006B"/>
  <outline>
    <contour>
      <point x="267" y="332" type="curve"/>
      <point x="418" y="443" type="line"/>
      <point x="351" y="519" type="line"/>
      <point x="177" y="382" type="line"/>
      <point x="233" y="698" type="line"/>
      <point x="123" y="698" type="line"/>
      <point x="0" y="0" type="line"/>
      <point x="110" y="0" type="line"/>
      <point x="152" y="240" type="line"/>
      <point x="168" y="254" type="line"/>
      <point x="274" y="0" type="line"/>
      <point x="413" y="0" type="line"/>
      <point x="384" y="61"/>
      <point x="335" y="170"/>
    </contour>
    <contour>
      <point x="221" y="300" type="move" name="center"/>
    </contour>
    <contour>
      <point x="220" y="0" type="move" name="ogonek"/>
    </contour>
    <contour>
      <point x="221" y="545" type="move" name="top"/>
    </contour>
    <contour>
      <point x="221" y="545" type="move" name="tonos"/>
    </contour>
    <contour>
      <point x="221" y="0" type="move" name="bottom"/>
    </contour>
  </outline>
</glyph>
<glyph name="l" format="1">
  <advance width="230"/>
  <unicode hex="006C"/>
  <outline>
    <contour>
      <point x="0" y="0" type="line"/>
      <point x="110" y="0" type="line"/>
      <point x="233" y="698" type="line"/>
      <point x="123" y="698" type="line"/>
    </contour>
    <contour>
      <point x="115" y="300" type="move" name="center"/>
    </contour>
    <contour>
      <point x="114" y="0" type="move" name="ogonek"/>
    </contour>
    <contour>
      <point x="115" y="735" type="move" name="top"/>
    </contour>
    <contour>
      <point x="38" y="700" type="move" name="tonos"/>
    </contour>
    <contour>
      <point x="115" y="0" type="move" name="bottom"/>
    </contour>
  </outline>
</glyph>
<glyph name="m" format="2">
  <advance width="733"/>
  <unicode hex="006D"/>
  <outline>
    <contour>
      <point x="593" y="341" type="curve" smooth="yes"/>
      <point x="533" y="0" type="line"/>
      <point x="643" y="0" type="line"/>
      <point x="703" y="344" type="line" smooth="yes"/>
      <point x="726" y="472"/>
      <point x="643" y="507"/>
      <point x="564" y="507" type="curve" smooth="yes"/>
      <point x="530" y="507"/>
      <point x="466" y="488"/>
      <point x="418" y="459" type="curve"/>
      <point x="391" y="495"/>
      <point x="345" y="507"/>
      <point x="298" y="507" type="curve" smooth="yes"/>
      <point x="257" y="507"/>
      <point x="211" y="486"/>
      <point x="193" y="475" type="curve"/>
      <point x="197" y="499" type="line"/>
      <point x="87" y="499" type="line"/>
      <point x="0" y="0" type="line"/>
      <point x="110" y="0" type="line"/>
      <point x="177" y="384" type="line"/>
      <point x="211" y="400"/>
      <point x="238" y="408"/>
      <point x="261" y="408" type="curve" smooth="yes"/>
      <point x="303" y="408"/>
      <point x="333" y="380"/>
      <point x="326" y="341" type="curve" smooth="yes"/>
      <point x="266" y="0" type="line"/>
      <point x="376" y="0" type="line"/>
      <point x="436" y="344" type="line" smooth="yes"/>
      <point x="439" y="359"/>
      <point x="440" y="372"/>
      <point x="440" y="384" type="curve"/>
      <point x="474" y="400"/>
      <point x="508" y="408"/>
      <point x="526" y="408" type="curve" smooth="yes"/>
      <point x="568" y="408"/>
      <point x="600" y="381"/>
    </contour>
  </outline>
</glyph>
<glyph name="n" format="2">
  <advance width="460"/>
  <unicode hex="006E"/>
  <outline>
    <contour>
      <point x="321" y="342" type="curve" smooth="yes"/>
      <point x="260" y="-1" type="line"/>
      <point x="369" y="-1" type="line"/>
      <point x="430" y="345" type="line" smooth="yes"/>
      <point x="453" y="473"/>
      <point x="378" y="508"/>
      <point x="299" y="508" type="curve" smooth="yes"/>
      <point x="258" y="508"/>
      <point x="212" y="487"/>
      <point x="193" y="476" type="curve"/>
      <point x="197" y="499" type="line"/>
      <point x="88" y="499" type="line"/>
      <point x="0" y="-1" type="line"/>
      <point x="109" y="-1" type="line"/>
      <point x="177" y="385" type="line"/>
      <point x="212" y="402"/>
      <point x="239" y="409"/>
      <point x="262" y="409" type="curve" smooth="yes"/>
      <point x="304" y="409"/>
      <point x="328" y="380"/>
    </contour>
  </outline>
</glyph>
<glyph name="o" format="2">
  <advance width="435"/>
  <unicode hex="006F"/>
  <outline>
    <contour>
      <point x="384" y="184" type="curve" smooth="yes"/>
      <point x="407" y="316" type="line" smooth="yes"/>
      <point x="429" y="437"/>
      <point x="375" y="510"/>
      <point x="259" y="510" type="curve" smooth="yes"/>
      <point x="138" y="510"/>
      <point x="61" y="443"/>
      <point x="38" y="316" type="curve" smooth="yes"/>
      <point x="15" y="184" type="line" smooth="yes"/>
      <point x="-3" y="82"/>
      <point x="36" y="-10"/>
      <point x="168" y="-10" type="curve" smooth="yes"/>
      <point x="292" y="-10"/>
      <point x="364" y="71"/>
    </contour>
    <contour>
      <point x="295" y="322" type="curve" smooth="yes"/>
      <point x="270" y="176" type="line" smooth="yes"/>
      <point x="262" y="131"/>
      <point x="236" y="98"/>
      <point x="186" y="98" type="curve" smooth="yes"/>
      <point x="133" y="98"/>
      <point x="117" y="135"/>
      <point x="125" y="176" type="curve" smooth="yes"/>
      <point x="150" y="322" type="line" smooth="yes"/>
      <point x="159" y="373"/>
      <point x="191" y="400"/>
      <point x="239" y="400" type="curve" smooth="yes"/>
      <point x="286" y="400"/>
      <point x="304" y="370"/>
    </contour>
  </outline>
</glyph>
<glyph name="q" format="2">
  <advance width="454"/>
  <unicode hex="0071"/>
  <outline>
    <contour>
      <point x="250" y="13" type="curve"/>
      <point x="213" y="-198" type="line"/>
      <point x="320" y="-212" type="line"/>
      <point x="445" y="499" type="line"/>
      <point x="335" y="499" type="line"/>
      <point x="332" y="477" type="line"/>
      <point x="305" y="498"/>
      <point x="273" y="510"/>
      <point x="237" y="510" type="curve" smooth="yes"/>
      <point x="133" y="510"/>
      <point x="66" y="448"/>
      <point x="48" y="345" type="curve" smooth="yes"/>
      <point x="19" y="176" type="line" smooth="yes"/>
      <point x="-3" y="54"/>
      <point x="45" y="-11"/>
      <point x="156" y="-11" type="curve" smooth="yes"/>
      <point x="188" y="-11"/>
      <point x="223" y="-2"/>
    </contour>
    <contour>
      <point x="316" y="387" type="curve"/>
      <point x="272" y="140" type="line" smooth="yes"/>
      <point x="268" y="117"/>
      <point x="238" y="92"/>
      <point x="182" y="89" type="curve"/>
      <point x="133" y="89"/>
      <point x="119" y="122"/>
      <point x="126" y="161" type="curve" smooth="yes"/>
      <point x="157" y="338" type="line" smooth="yes"/>
      <point x="167" y="394"/>
      <point x="207" y="411"/>
      <point x="243" y="411" type="curve" smooth="yes"/>
      <point x="278" y="411"/>
      <point x="316" y="387"/>
    </contour>
  </outline>
</glyph>
<glyph name="r" format="2">
  <advance width="393"/>
  <unicode hex="0072"/>
  <outline>
    <contour>
      <point x="364" y="409" type="curve"/>
      <point x="395" y="499" type="line"/>
      <point x="376" y="507"/>
      <point x="349" y="514"/>
      <point x="319" y="514" type="curve" smooth="yes"/>
      <point x="276" y="514"/>
      <point x="231" y="501"/>
      <point x="194" y="479" type="curve"/>
      <point x="197" y="499" type="line"/>
      <point x="87" y="499" type="line"/>
      <point x="0" y="0" type="line"/>
      <point x="110" y="0" type="line"/>
      <point x="178" y="388" type="line"/>
      <point x="223" y="407"/>
      <point x="268" y="416"/>
      <point x="313" y="416" type="curve" smooth="yes"/>
      <point x="349" y="416"/>
      <point x="364" y="409"/>
    </contour>
  </outline>
</glyph>
<glyph name="t" format="2">
  <advance width="288"/>
  <unicode hex="0074"/>
  <outline>
    <contour>
      <point x="129" y="132" type="curve" smooth="yes"/>
      <point x="176" y="398" type="line"/>
      <point x="248" y="398" type="line"/>
      <point x="288" y="499" type="line"/>
      <point x="193" y="499" type="line"/>
      <point x="229" y="698" type="line"/>
      <point x="117" y="698" type="line"/>
      <point x="17" y="132" type="line" smooth="yes"/>
      <point x="0" y="37"/>
      <point x="43" y="-11"/>
      <point x="143" y="-13" type="curve"/>
      <point x="192" y="75" type="line"/>
      <point x="145" y="75"/>
      <point x="121" y="87"/>
    </contour>
  </outline>
</glyph>
<glyph name="u" format="2">
  <advance width="459"/>
  <unicode hex="0075"/>
  <outline>
    <contour>
      <point x="256" y="26" type="curve"/>
      <point x="252" y="0" type="line"/>
      <point x="362" y="0" type="line"/>
      <point x="450" y="501" type="line"/>
      <point x="340" y="501" type="line"/>
      <point x="282" y="175" type="line" smooth="yes"/>
      <point x="274" y="129"/>
      <point x="233" y="94"/>
      <point x="188" y="94" type="curve" smooth="yes"/>
      <point x="148" y="94"/>
      <point x="125" y="124"/>
      <point x="132" y="159" type="curve" smooth="yes"/>
      <point x="192" y="501" type="line"/>
      <point x="81" y="501" type="line"/>
      <point x="20" y="157" type="line" smooth="yes"/>
      <point x="-2" y="29"/>
      <point x="73" y="-7"/>
      <point x="151" y="-7" type="curve" smooth="yes"/>
      <point x="193" y="-7"/>
      <point x="241" y="12"/>
    </contour>
  </outline>
</glyph>
<glyph name="w" format="2">
  <advance width="697"/>
  <unicode hex="0077"/>
  <outline>
    <contour>
      <point x="416" y="499" type="line"/>
      <point x="312" y="499" type="line"/>
      <point x="179" y="194" type="line"/>
      <point x="140" y="499" type="line"/>
      <point x="20" y="499" type="line"/>
      <point x="94" y="0" type="line"/>
      <point x="202" y="0" type="line"/>
      <point x="321" y="267" type="line"/>
      <point x="346" y="0" type="line"/>
      <point x="451" y="0" type="line"/>
      <point x="700" y="499" type="line"/>
      <point x="582" y="499" type="line"/>
      <point x="447" y="194" type="line"/>
    </contour>
  </outline>
</glyph>
<glyph name="x" format="2">
  <advance width="530"/>
  <unicode hex="0078"/>
  <outline>
    <contour>
      <point x="281" y="356" type="line"/>
      <point x="220" y="499" type="line"/>
      <point x="80" y="499" type="line"/>
      <point x="192" y="248" type="line"/>
      <point x="-7" y="0" type="line"/>
      <point x="131" y="0" type="line"/>
      <point x="242" y="140" type="line"/>
      <point x="306" y="0" type="line"/>
      <point x="437" y="0" type="line"/>
      <point x="329" y="249" type="line"/>
      <point x="531" y="499" type="line"/>
      <point x="395" y="499" type="line"/>
    </contour>
  </outline>
</glyph>
<glyph name="y" format="2">
  <advance width="490"/>
  <unicode hex="0079"/>
  <outline>
    <contour>
      <point x="486" y="433" type="curve"/>
      <point x="465" y="510" type="line"/>
      <point x="375" y="510"/>
      <point x="331" y="448"/>
      <point x="322" y="392" type="curve" smooth="yes"/>
      <point x="284" y="176" type="line" smooth="yes"/>
      <point x="275" y="130"/>
      <point x="234" y="94"/>
      <point x="189" y="94" type="curve" smooth="yes"/>
      <point x="148" y="94"/>
      <point x="125" y="123"/>
      <point x="132" y="161" type="curve" smooth="yes"/>
      <point x="192" y="501" type="line"/>
      <point x="81" y="501" type="line"/>
      <point x="20" y="158" type="line" smooth="yes"/>
      <point x="-2" y="30"/>
      <point x="72" y="-6"/>
      <point x="151" y="-6" type="curve" smooth="yes"/>
      <point x="193" y="-6"/>
      <point x="242" y="13"/>
      <point x="257" y="28" type="curve"/>
      <point x="244" y="-48" type="line" smooth="yes"/>
      <point x="240" y="-72"/>
      <point x="230" y="-89"/>
      <point x="215" y="-101" type="curve" smooth="yes"/>
      <point x="198" y="-114"/>
      <point x="178" y="-124"/>
      <point x="161" y="-124" type="curve"/>
      <point x="174" y="-213" type="line"/>
      <point x="207" y="-213"/>
      <point x="252" y="-199"/>
      <point x="283" y="-179" type="curve" smooth="yes"/>
      <point x="320" y="-157"/>
      <point x="342" y="-116"/>
      <point x="352" y="-59" type="curve" smooth="yes"/>
      <point x="426" y="362" type="line" smooth="yes"/>
      <point x="432" y="395"/>
      <point x="445" y="425"/>
    </contour>
  </outline>
</glyph>
<glyph name="z" format="1">
  <advance width="447"/>
  <unicode hex="007A"/>
  <outline>
    <contour>
      <point x="440" y="499" type="line"/>
      <point x="91" y="499" type="line"/>
      <point x="74" y="397" type="line"/>
      <point x="274" y="397" type="line"/>
      <point x="13" y="105" type="line"/>
      <point x="-5" y="0" type="line"/>
      <point x="363" y="0" type="line"/>
      <point x="381" y="105" type="line"/>
      <point x="161" y="105" type="line"/>
      <point x="423" y="400" type="line"/>
    </contour>
    <contour>
      <point x="223" y="300" type="move" name="center"/>
    </contour>
    <contour>
      <point x="223" y="0" type="move" name="ogonek"/>
    </contour>
    <contour>
      <point x="223" y="545" type="move" name="top"/>
    </contour>
    <contour>
      <point x="223" y="545" type="move" name="tonos"/>
    </contour>
    <contour>
      <point x="223" y="0" type="move" name="bottom"/>
    </contour>
  </outline>
</glyph>
<glyph name="braceleft" format="2">
  <advance width="337"/>
  <unicode hex="007B"/>
  <outline>
    <contour>
      <point x="236" y="516" type="curve" smooth="yes"/>
      <point x="256" y="629" type="line" smooth="yes"/>
      <point x="270" y="704"/>
      <point x="298" y="725"/>
      <point x="326" y="739" type="curve"/>
      <point x="290" y="821" type="line"/>
      <point x="285" y="820"/>
      <point x="176" y="790"/>
      <point x="147" y="629" type="curve" smooth="yes"/>
      <point x="127" y="516" type="line" smooth="yes"/>
      <point x="117" y="459"/>
      <point x="102" y="409"/>
      <point x="30" y="360" type="curve" smooth="yes"/>
      <point x="19" y="352" type="line"/>
      <point x="27" y="345" type="line" smooth="yes"/>
      <point x="82" y="296"/>
      <point x="80" y="245"/>
      <point x="70" y="189" type="curve" smooth="yes"/>
      <point x="50" y="76" type="line" smooth="yes"/>
      <point x="22" y="-84"/>
      <point x="119" y="-116"/>
      <point x="125" y="-117" type="curve"/>
      <point x="190" y="-34" type="line"/>
      <point x="167" y="-20"/>
      <point x="146" y="1"/>
      <point x="159" y="76" type="curve" smooth="yes"/>
      <point x="179" y="189" type="line" smooth="yes"/>
      <point x="189" y="246"/>
      <point x="194" y="301"/>
      <point x="142" y="352" type="curve"/>
      <point x="212" y="404"/>
      <point x="226" y="459"/>
    </contour>
  </outline>
</glyph>
<glyph name="braceright" format="2">
  <advance width="336"/>
  <unicode hex="007D"/>
  <outline>
    <contour>
      <point x="213" y="821" type="curve"/>
      <point x="148" y="739" type="line"/>
      <point x="171" y="725"/>
      <point x="193" y="704"/>
      <point x="179" y="629" type="curve" smooth="yes"/>
      <point x="159" y="516" type="line" smooth="yes"/>
      <point x="149" y="459"/>
      <point x="144" y="404"/>
      <point x="197" y="352" type="curve"/>
      <point x="126" y="301"/>
      <point x="112" y="246"/>
      <point x="102" y="189" type="curve" smooth="yes"/>
      <point x="82" y="76" type="line" smooth="yes"/>
      <point x="69" y="1"/>
      <point x="40" y="-20"/>
      <point x="12" y="-34" type="curve"/>
      <point x="48" y="-117" type="line"/>
      <point x="53" y="-116"/>
      <point x="164" y="-84"/>
      <point x="192" y="76" type="curve" smooth="yes"/>
      <point x="212" y="189" type="line" smooth="yes"/>
      <point x="222" y="245"/>
      <point x="237" y="296"/>
      <point x="308" y="345" type="curve"/>
      <point x="320" y="352" type="line"/>
      <point x="310" y="360" type="line"/>
      <point x="257" y="409"/>
      <point x="259" y="459"/>
      <point x="269" y="516" type="curve" smooth="yes"/>
      <point x="289" y="629" type="line" smooth="yes"/>
      <point x="318" y="790"/>
      <point x="217" y="820"/>
    </contour>
  </outline>
</glyph>
<glyph name="asciitilde" format="2">
  <advance width="266"/>
  <unicode hex="007E"/>
  <outline>
    <contour>
      <point x="289" y="299" type="curve"/>
      <point x="266" y="355" type="line"/>
      <point x="239" y="337"/>
      <point x="217" y="331"/>
      <point x="199" y="331" type="curve" smooth="yes"/>
      <point x="157" y="331"/>
      <point x="125" y="360"/>
      <point x="79" y="360" type="curve" smooth="yes"/>
      <point x="42" y="360"/>
      <point x="8" y="341"/>
      <point x="-23" y="319" type="curve"/>
      <point x="0" y="263" type="line"/>
      <point x="27" y="279"/>
      <point x="50" y="286"/>
      <point x="70" y="286" type="curve" smooth="yes"/>
      <point x="111" y="285"/>
      <point x="142" y="257"/>
      <point x="185" y="256" type="curve" smooth="yes"/>
      <point x="225" y="256"/>
      <point x="259" y="276"/>
    </contour>
  </outline>
</glyph>
<glyph name="exclamdown" format="2">
  <advance width="255"/>
  <unicode hex="00A1"/>
  <outline>
    <contour>
      <point x="133" y="68" type="curve" smooth="yes"/>
      <point x="203" y="588" type="line"/>
      <point x="127" y="588" type="line"/>
      <point x="18" y="69" type="line" smooth="yes"/>
      <point x="10" y="23"/>
      <point x="24" y="0"/>
      <point x="62" y="0" type="curve" smooth="yes"/>
      <point x="102" y="0"/>
      <point x="126" y="23"/>
    </contour>
    <contour>
      <point x="240" y="664" type="curve" smooth="yes"/>
      <point x="245" y="697"/>
      <point x="224" y="724"/>
      <point x="191" y="724" type="curve" smooth="yes"/>
      <point x="159" y="724"/>
      <point x="127" y="697"/>
      <point x="122" y="664" type="curve" smooth="yes"/>
      <point x="116" y="631"/>
      <point x="138" y="605"/>
      <point x="170" y="605" type="curve" smooth="yes"/>
      <point x="203" y="605"/>
      <point x="234" y="631"/>
    </contour>
  </outline>
</glyph>
<glyph name="currency" format="2">
  <advance width="511"/>
  <unicode hex="00A4"/>
  <outline>
    <contour>
      <point x="396" y="349" type="curve"/>
      <point x="498" y="435" type="line"/>
      <point x="445" y="498" type="line"/>
      <point x="344" y="411" type="line"/>
      <point x="326" y="422"/>
      <point x="305" y="428"/>
      <point x="281" y="428" type="curve" smooth="yes"/>
      <point x="257" y="428"/>
      <point x="234" y="422"/>
      <point x="212" y="411" type="curve"/>
      <point x="141" y="498" type="line"/>
      <point x="67" y="435" type="line"/>
      <point x="138" y="348" type="line"/>
      <point x="125" y="329"/>
      <point x="114" y="306"/>
      <point x="110" y="283" type="curve" smooth="yes"/>
      <point x="106" y="258"/>
      <point x="108" y="237"/>
      <point x="115" y="217" type="curve"/>
      <point x="14" y="131" type="line"/>
      <point x="65" y="68" type="line"/>
      <point x="167" y="154" type="line"/>
      <point x="185" y="144"/>
      <point x="206" y="137"/>
      <point x="230" y="137" type="curve" smooth="yes"/>
      <point x="253" y="137"/>
      <point x="277" y="143"/>
      <point x="297" y="153" type="curve"/>
      <point x="369" y="68" type="line"/>
      <point x="445" y="131" type="line"/>
      <point x="373" y="217" type="line"/>
      <point x="387" y="237"/>
      <point x="397" y="258"/>
      <point x="401" y="283" type="curve" smooth="yes"/>
      <point x="406" y="307"/>
      <point x="404" y="329"/>
    </contour>
    <contour>
      <point x="246" y="231" type="curve" smooth="yes"/>
      <point x="218" y="231"/>
      <point x="199" y="254"/>
      <point x="204" y="283" type="curve" smooth="yes"/>
      <point x="210" y="312"/>
      <point x="236" y="334"/>
      <point x="264" y="334" type="curve" smooth="yes"/>
      <point x="294" y="334"/>
      <point x="313" y="312"/>
      <point x="307" y="283" type="curve" smooth="yes"/>
      <point x="302" y="254"/>
      <point x="276" y="231"/>
    </contour>
  </outline>
</glyph>
<glyph name="copyright" format="2">
  <advance width="810"/>
  <unicode hex="00A9"/>
  <outline>
    <contour>
      <point x="751" y="185" type="curve" smooth="yes"/>
      <point x="776" y="326" type="line" smooth="yes"/>
      <point x="808" y="510"/>
      <point x="675" y="602"/>
      <point x="466" y="603" type="curve" smooth="yes"/>
      <point x="256" y="602"/>
      <point x="90" y="510"/>
      <point x="58" y="326" type="curve" smooth="yes"/>
      <point x="33" y="185" type="line" smooth="yes"/>
      <point x="1" y="0"/>
      <point x="133" y="-91"/>
      <point x="343" y="-94" type="curve" smooth="yes"/>
      <point x="552" y="-91"/>
      <point x="719" y="0"/>
    </contour>
    <contour>
      <point x="667" y="289" type="curve" smooth="yes"/>
      <point x="656" y="222" type="line" smooth="yes"/>
      <point x="624" y="44"/>
      <point x="544" y="9"/>
      <point x="361" y="7" type="curve" smooth="yes"/>
      <point x="178" y="9"/>
      <point x="110" y="44"/>
      <point x="142" y="222" type="curve" smooth="yes"/>
      <point x="153" y="289" type="line" smooth="yes"/>
      <point x="185" y="466"/>
      <point x="265" y="501"/>
      <point x="448" y="503" type="curve" smooth="yes"/>
      <point x="631" y="501"/>
      <point x="699" y="466"/>
    </contour>
    <contour>
      <point x="545" y="331" type="curve"/>
      <point x="589" y="421" type="line"/>
      <point x="552" y="441"/>
      <point x="505" y="454"/>
      <point x="456" y="455" type="curve" smooth="yes"/>
      <point x="406" y="455"/>
      <point x="354" y="442"/>
      <point x="312" y="410" type="curve" smooth="yes"/>
      <point x="269" y="378"/>
      <point x="236" y="327"/>
      <point x="222" y="249" type="curve" smooth="yes"/>
      <point x="210" y="180"/>
      <point x="224" y="132"/>
      <point x="255" y="100" type="curve" smooth="yes"/>
      <point x="285" y="70"/>
      <point x="330" y="56"/>
      <point x="385" y="56" type="curve" smooth="yes"/>
      <point x="437" y="56"/>
      <point x="496" y="69"/>
      <point x="556" y="91" type="curve"/>
      <point x="557" y="195" type="line"/>
      <point x="557" y="195"/>
      <point x="468" y="163"/>
      <point x="405" y="163" type="curve" smooth="yes"/>
      <point x="381" y="163"/>
      <point x="359" y="167"/>
      <point x="345" y="182" type="curve" smooth="yes"/>
      <point x="332" y="196"/>
      <point x="328" y="224"/>
      <point x="333" y="255" type="curve" smooth="yes"/>
      <point x="339" y="284"/>
      <point x="352" y="311"/>
      <point x="371" y="327" type="curve"/>
      <point x="391" y="342"/>
      <point x="417" y="350"/>
      <point x="452" y="350" type="curve" smooth="yes"/>
      <point x="500" y="350"/>
      <point x="545" y="331"/>
    </contour>
  </outline>
</glyph>
<glyph name="degree" format="2">
  <advance width="349"/>
  <unicode hex="00B0"/>
  <outline>
    <contour>
      <point x="327" y="564" type="curve" smooth="yes"/>
      <point x="341" y="645"/>
      <point x="288" y="710"/>
      <point x="207" y="710" type="curve" smooth="yes"/>
      <point x="126" y="710"/>
      <point x="49" y="645"/>
      <point x="35" y="564" type="curve" smooth="yes"/>
      <point x="21" y="484"/>
      <point x="74" y="419"/>
      <point x="155" y="419" type="curve" smooth="yes"/>
      <point x="236" y="419"/>
      <point x="313" y="484"/>
    </contour>
    <contour>
      <point x="190" y="617" type="curve" smooth="yes"/>
      <point x="218" y="617"/>
      <point x="239" y="593"/>
      <point x="234" y="564" type="curve" smooth="yes"/>
      <point x="229" y="536"/>
      <point x="200" y="512"/>
      <point x="172" y="512" type="curve" smooth="yes"/>
      <point x="143" y="512"/>
      <point x="124" y="536"/>
      <point x="129" y="564" type="curve" smooth="yes"/>
      <point x="134" y="593"/>
      <point x="161" y="617"/>
    </contour>
  </outline>
</glyph>
<glyph name="plusminus" format="1">
  <advance width="404"/>
  <unicode hex="00B1"/>
  <outline>
    <contour>
      <point x="52" y="349" type="line"/>
      <point x="156" y="349" type="line"/>
      <point x="138" y="246" type="line"/>
      <point x="33" y="246" type="line"/>
      <point x="15" y="146" type="line"/>
      <point x="335" y="146" type="line"/>
      <point x="353" y="246" type="line"/>
      <point x="249" y="246" type="line"/>
      <point x="267" y="349" type="line"/>
      <point x="372" y="349" type="line"/>
      <point x="391" y="454" type="line"/>
      <point x="286" y="454" type="line"/>
      <point x="305" y="564" type="line"/>
      <point x="194" y="564" type="line"/>
      <point x="175" y="454" type="line"/>
      <point x="71" y="454" type="line"/>
    </contour>
  </outline>
</glyph>
<glyph name="acute" format="2">
  <advance width="266"/>
  <unicode hex="00B4"/>
  <outline>
    <contour>
      <point x="220" y="671" type="line"/>
      <point x="242" y="693"/>
      <point x="248" y="727"/>
      <point x="225" y="741" type="curve" smooth="yes"/>
      <point x="202" y="757"/>
      <point x="167" y="738"/>
      <point x="155" y="712" type="curve" smooth="yes"/>
      <point x="105" y="596" type="line"/>
      <point x="149" y="596" type="line"/>
    </contour>
  </outline>
</glyph>
<glyph name="mu" format="2">
  <advance width="489"/>
  <unicode hex="00B5"/>
  <outline>
    <contour>
      <point x="408" y="112" type="curve" smooth="yes"/>
      <point x="478" y="509" type="line"/>
      <point x="365" y="496" type="line"/>
      <point x="305" y="158" type="line" smooth="yes"/>
      <point x="299" y="121"/>
      <point x="277" y="92"/>
      <point x="234" y="92" type="curve" smooth="yes"/>
      <point x="214" y="92"/>
      <point x="149" y="110"/>
      <point x="153" y="132" type="curve" smooth="yes"/>
      <point x="217" y="499" type="line"/>
      <point x="108" y="499" type="line"/>
      <point x="-14" y="-201" type="line"/>
      <point x="92" y="-210" type="line"/>
      <point x="135" y="29" type="line"/>
      <point x="158" y="-3"/>
      <point x="187" y="-9"/>
      <point x="211" y="-9" type="curve" smooth="yes"/>
      <point x="230" y="-9"/>
      <point x="292" y="7"/>
      <point x="295" y="25" type="curve"/>
      <point x="295" y="25"/>
      <point x="305" y="5"/>
      <point x="316" y="-1" type="curve"/>
      <point x="416" y="25" type="line"/>
      <point x="416" y="25"/>
      <point x="397" y="48"/>
    </contour>
  </outline>
</glyph>
<glyph name="cedilla" format="2">
  <advance width="266"/>
  <unicode hex="00B8"/>
  <outline>
    <contour>
      <point x="175" y="0" type="line"/>
      <point x="109" y="0" type="line"/>
      <point x="50" y="-75" type="line"/>
      <point x="61" y="-114" type="line"/>
      <point x="102" y="-111"/>
      <point x="132" y="-107"/>
      <point x="152" y="-107" type="curve" smooth="yes"/>
      <point x="177" y="-107"/>
      <point x="184" y="-120"/>
      <point x="181" y="-138" type="curve" smooth="yes"/>
      <point x="178" y="-155"/>
      <point x="165" y="-168"/>
      <point x="137" y="-168" type="curve" smooth="yes"/>
      <point x="94" y="-168"/>
      <point x="41" y="-158"/>
      <point x="40" y="-158" type="curve"/>
      <point x="30" y="-187"/>
      <point x="25" y="-196"/>
      <point x="15" y="-223" type="curve"/>
      <point x="17" y="-224"/>
      <point x="66" y="-235"/>
      <point x="114" y="-235" type="curve" smooth="yes"/>
      <point x="196" y="-235"/>
      <point x="238" y="-193"/>
      <point x="249" y="-133" type="curve" smooth="yes"/>
      <point x="257" y="-86"/>
      <point x="231" y="-40"/>
      <point x="170" y="-40" type="curve" smooth="yes"/>
      <point x="166" y="-40"/>
      <point x="161" y="-41"/>
      <point x="143" y="-42" type="curve"/>
    </contour>
  </outline>
</glyph>
<glyph name="guillemotright" format="1">
  <advance width="533"/>
  <unicode hex="00BB"/>
  <outline>
    <contour>
      <point x="154" y="267" type="line"/>
      <point x="15" y="148" type="line"/>
      <point x="74" y="80" type="line"/>
      <point x="294" y="267" type="line"/>
      <point x="140" y="454" type="line"/>
      <point x="55" y="383" type="line"/>
    </contour>
    <contour>
      <point x="375" y="267" type="line"/>
      <point x="235" y="148" type="line"/>
      <point x="294" y="80" type="line"/>
      <point x="514" y="267" type="line"/>
      <point x="360" y="454" type="line"/>
      <point x="275" y="383" type="line"/>
    </contour>
  </outline>
</glyph>
<glyph name="questiondown" format="2">
  <advance width="419"/>
  <unicode hex="00BF"/>
  <outline>
    <contour>
      <point x="393" y="161" type="curve"/>
      <point x="282" y="161" type="line"/>
      <point x="272" y="116"/>
      <point x="237" y="89"/>
      <point x="195" y="89" type="curve"/>
      <point x="161" y="91"/>
      <point x="128" y="117"/>
      <point x="137" y="167" type="curve" smooth="yes"/>
      <point x="145" y="211"/>
      <point x="186" y="246"/>
      <point x="228" y="290" type="curve" smooth="yes"/>
      <point x="273" y="338"/>
      <point x="323" y="394"/>
      <point x="338" y="480" type="curve" smooth="yes"/>
      <point x="355" y="573" type="line"/>
      <point x="246" y="573" type="line"/>
      <point x="232" y="499"/>
      <point x="231" y="492"/>
      <point x="230" y="483" type="curve"/>
      <point x="214" y="411"/>
      <point x="195" y="386"/>
      <point x="132" y="328" type="curve" smooth="yes"/>
      <point x="81" y="279"/>
      <point x="38" y="237"/>
      <point x="26" y="170" type="curve" smooth="yes"/>
      <point x="6" y="55"/>
      <point x="87" y="-10"/>
      <point x="178" y="-15" type="curve"/>
      <point x="295" y="-15"/>
      <point x="374" y="58"/>
    </contour>
    <contour>
      <point x="323" y="708" type="curve" smooth="yes"/>
      <point x="290" y="708"/>
      <point x="260" y="682"/>
      <point x="254" y="649" type="curve" smooth="yes"/>
      <point x="248" y="616"/>
      <point x="269" y="588"/>
      <point x="302" y="588" type="curve" smooth="yes"/>
      <point x="335" y="588"/>
      <point x="366" y="616"/>
      <point x="372" y="649" type="curve" smooth="yes"/>
      <point x="378" y="682"/>
      <point x="356" y="708"/>
    </contour>
  </outline>
</glyph>
<glyph name="Agrave" format="2">
  <advance width="516"/>
  <unicode hex="00C0"/>
  <outline>
    <contour>
      <point x="484" y="0" type="line"/>
      <point x="435" y="698" type="line"/>
      <point x="280" y="698" type="line"/>
      <point x="-12" y="0" type="line"/>
      <point x="112" y="0" type="line"/>
      <point x="184" y="183" type="line"/>
      <point x="345" y="183" type="line"/>
      <point x="353" y="0" type="line"/>
    </contour>
    <contour>
      <point x="231" y="300" type="line"/>
      <point x="323" y="515" type="line"/>
      <point x="340" y="300" type="line"/>
    </contour>
    <contour>
      <point x="297" y="817" type="curve"/>
      <point x="341" y="741" type="line"/>
      <point x="386" y="741" type="line"/>
      <point x="376" y="858" type="line" smooth="yes"/>
      <point x="373" y="887"/>
      <point x="342" y="904"/>
      <point x="317" y="889" type="curve"/>
      <point x="286" y="875"/>
      <point x="283" y="837"/>
    </contour>
  </outline>
</glyph>
<glyph name="Aacute" format="2">
  <advance width="516"/>
  <unicode hex="00C1"/>
  <outline>
    <contour>
      <point x="484" y="0" type="line"/>
      <point x="435" y="698" type="line"/>
      <point x="280" y="698" type="line"/>
      <point x="-12" y="0" type="line"/>
      <point x="112" y="0" type="line"/>
      <point x="184" y="183" type="line"/>
      <point x="345" y="183" type="line"/>
      <point x="353" y="0" type="line"/>
    </contour>
    <contour>
      <point x="231" y="300" type="line"/>
      <point x="323" y="515" type="line"/>
      <point x="340" y="300" type="line"/>
    </contour>
    <contour>
      <point x="386" y="850" type="curve"/>
      <point x="340" y="743" type="line"/>
      <point x="381" y="743" type="line"/>
      <point x="448" y="813" type="line" smooth="yes"/>
      <point x="468" y="833"/>
      <point x="475" y="866"/>
      <point x="453" y="879" type="curve"/>
      <point x="430" y="891"/>
      <point x="399" y="876"/>
    </contour>
  </outline>
</glyph>
<glyph name="Acircumflex" format="2">
  <advance width="527"/>
  <unicode hex="00C2"/>
  <outline>
    <contour>
      <point x="484" y="0" type="line"/>
      <point x="435" y="698" type="line"/>
      <point x="280" y="698" type="line"/>
      <point x="-12" y="0" type="line"/>
      <point x="112" y="0" type="line"/>
      <point x="184" y="183" type="line"/>
      <point x="345" y="183" type="line"/>
      <point x="353" y="0" type="line"/>
    </contour>
    <contour>
      <point x="231" y="300" type="line"/>
      <point x="323" y="515" type="line"/>
      <point x="340" y="300" type="line"/>
    </contour>
    <contour>
      <point x="247" y="794" type="line"/>
      <point x="395" y="922" type="line"/>
      <point x="506" y="795" type="line"/>
      <point x="444" y="743" type="line"/>
      <point x="382" y="825" type="line"/>
      <point x="289" y="743" type="line"/>
    </contour>
  </outline>
</glyph>
<glyph name="Atilde" format="2">
  <advance width="526"/>
  <unicode hex="00C3"/>
  <outline>
    <contour>
      <point x="484" y="0" type="line"/>
      <point x="435" y="698" type="line"/>
      <point x="280" y="698" type="line"/>
      <point x="-12" y="0" type="line"/>
      <point x="112" y="0" type="line"/>
      <point x="184" y="183" type="line"/>
      <point x="345" y="183" type="line"/>
      <point x="353" y="0" type="line"/>
    </contour>
    <contour>
      <point x="231" y="300" type="line"/>
      <point x="323" y="515" type="line"/>
      <point x="340" y="300" type="line"/>
    </contour>
    <contour>
      <point x="503" y="773" type="curve"/>
      <point x="487" y="833" type="line"/>
      <point x="469" y="821"/>
      <point x="452" y="814"/>
      <point x="434" y="814" type="curve" smooth="yes"/>
      <point x="398" y="814"/>
      <point x="369" y="833"/>
      <point x="335" y="833" type="curve"/>
      <point x="284" y="829"/>
      <point x="260" y="810"/>
      <point x="246" y="799" type="curve"/>
      <point x="263" y="740" type="line"/>
      <point x="273" y="747"/>
      <point x="287" y="758"/>
      <point x="313" y="760" type="curve"/>
      <point x="354" y="760"/>
      <point x="384" y="743"/>
      <point x="420" y="743" type="curve" smooth="yes"/>
      <point x="447" y="744"/>
      <point x="475" y="754"/>
    </contour>
  </outline>
</glyph>
<glyph name="Adieresis" format="2">
  <advance width="536"/>
  <unicode hex="00C4"/>
  <outline>
    <contour>
      <point x="484" y="0" type="line"/>
      <point x="435" y="698" type="line"/>
      <point x="280" y="698" type="line"/>
      <point x="-12" y="0" type="line"/>
      <point x="112" y="0" type="line"/>
      <point x="184" y="183" type="line"/>
      <point x="345" y="183" type="line"/>
      <point x="353" y="0" type="line"/>
    </contour>
    <contour>
      <point x="231" y="300" type="line"/>
      <point x="323" y="515" type="line"/>
      <point x="340" y="300" type="line"/>
    </contour>
    <contour>
      <point x="465" y="861" type="curve" smooth="yes"/>
      <point x="432" y="861"/>
      <point x="403" y="835"/>
      <point x="397" y="802" type="curve" smooth="yes"/>
      <point x="391" y="769"/>
      <point x="411" y="741"/>
      <point x="444" y="741" type="curve" smooth="yes"/>
      <point x="478" y="741"/>
      <point x="510" y="769"/>
      <point x="516" y="802" type="curve" smooth="yes"/>
      <point x="522" y="835"/>
      <point x="499" y="861"/>
    </contour>
    <contour>
      <point x="358" y="802" type="curve" smooth="yes"/>
      <point x="364" y="835"/>
      <point x="341" y="861"/>
      <point x="308" y="861" type="curve" smooth="yes"/>
      <point x="275" y="861"/>
      <point x="244" y="835"/>
      <point x="238" y="802" type="curve" smooth="yes"/>
      <point x="232" y="769"/>
      <point x="254" y="741"/>
      <point x="287" y="741" type="curve" smooth="yes"/>
      <point x="320" y="741"/>
      <point x="352" y="769"/>
    </contour>
  </outline>
</glyph>
<glyph name="Aring" format="2">
  <advance width="522"/>
  <unicode hex="00C5"/>
  <outline>
    <contour>
      <point x="484" y="0" type="line"/>
      <point x="435" y="698" type="line"/>
      <point x="280" y="698" type="line"/>
      <point x="-12" y="0" type="line"/>
      <point x="112" y="0" type="line"/>
      <point x="184" y="183" type="line"/>
      <point x="345" y="183" type="line"/>
      <point x="353" y="0" type="line"/>
    </contour>
    <contour>
      <point x="231" y="300" type="line"/>
      <point x="323" y="515" type="line"/>
      <point x="340" y="300" type="line"/>
    </contour>
    <contour>
      <point x="351" y="661" type="curve" smooth="yes"/>
      <point x="414" y="661"/>
      <point x="474" y="712"/>
      <point x="485" y="774" type="curve" smooth="yes"/>
      <point x="496" y="838"/>
      <point x="454" y="889"/>
      <point x="391" y="889" type="curve" smooth="yes"/>
      <point x="329" y="889"/>
      <point x="268" y="838"/>
      <point x="257" y="774" type="curve" smooth="yes"/>
      <point x="246" y="712"/>
      <point x="289" y="661"/>
    </contour>
    <contour>
      <point x="403" y="774" type="curve" smooth="yes"/>
      <point x="400" y="758"/>
      <point x="383" y="744"/>
      <point x="366" y="744" type="curve" smooth="yes"/>
      <point x="349" y="744"/>
      <point x="338" y="758"/>
      <point x="341" y="774" type="curve" smooth="yes"/>
      <point x="344" y="792"/>
      <point x="360" y="806"/>
      <point x="377" y="806" type="curve" smooth="yes"/>
      <point x="394" y="806"/>
      <point x="406" y="792"/>
    </contour>
  </outline>
</glyph>
<glyph name="Ccedilla" format="2">
  <advance width="437"/>
  <unicode hex="00C7"/>
  <outline>
    <contour>
      <point x="393" y="582" type="curve"/>
      <point x="440" y="675" type="line"/>
      <point x="397" y="698"/>
      <point x="350" y="710"/>
      <point x="302" y="710" type="curve" smooth="yes"/>
      <point x="253" y="710"/>
      <point x="203" y="697"/>
      <point x="163" y="664" type="curve" smooth="yes"/>
      <point x="121" y="632"/>
      <point x="87" y="581"/>
      <point x="73" y="503" type="curve" smooth="yes"/>
      <point x="17" y="183" type="line" smooth="yes"/>
      <point x="4" y="113"/>
      <point x="19" y="64"/>
      <point x="49" y="32" type="curve" smooth="yes"/>
      <point x="79" y="2"/>
      <point x="125" y="-12"/>
      <point x="179" y="-12" type="curve" smooth="yes"/>
      <point x="231" y="-11"/>
      <point x="288" y="1"/>
      <point x="349" y="23" type="curve"/>
      <point x="351" y="127" type="line"/>
      <point x="339" y="127"/>
      <point x="266" y="100"/>
      <point x="205" y="100" type="curve" smooth="yes"/>
      <point x="177" y="100"/>
      <point x="153" y="105"/>
      <point x="140" y="120" type="curve"/>
      <point x="126" y="133"/>
      <point x="122" y="154"/>
      <point x="127" y="185" type="curve" smooth="yes"/>
      <point x="185" y="512" type="line" smooth="yes"/>
      <point x="190" y="542"/>
      <point x="201" y="563"/>
      <point x="221" y="577" type="curve"/>
      <point x="240" y="592"/>
      <point x="267" y="599"/>
      <point x="302" y="599" type="curve" smooth="yes"/>
      <point x="332" y="599"/>
      <point x="368" y="592"/>
    </contour>
    <contour>
      <point x="205" y="-42" type="curve" smooth="yes"/>
      <point x="202" y="-42"/>
      <point x="197" y="-43"/>
      <point x="179" y="-44" type="curve"/>
      <point x="210" y="-2" type="line"/>
      <point x="144" y="-2" type="line"/>
      <point x="85" y="-77" type="line"/>
      <point x="96" y="-116" type="line"/>
      <point x="137" y="-113"/>
      <point x="167" y="-109"/>
      <point x="187" y="-109" type="curve" smooth="yes"/>
      <point x="212" y="-109"/>
      <point x="220" y="-122"/>
      <point x="217" y="-140" type="curve" smooth="yes"/>
      <point x="214" y="-157"/>
      <point x="200" y="-171"/>
      <point x="171" y="-171" type="curve" smooth="yes"/>
      <point x="129" y="-171"/>
      <point x="74" y="-161"/>
      <point x="73" y="-160" type="curve"/>
      <point x="63" y="-189"/>
      <point x="61" y="-198"/>
      <point x="50" y="-226" type="curve"/>
      <point x="51" y="-226"/>
      <point x="102" y="-237"/>
      <point x="149" y="-237" type="curve" smooth="yes"/>
      <point x="232" y="-237"/>
      <point x="274" y="-195"/>
      <point x="285" y="-135" type="curve" smooth="yes"/>
      <point x="293" y="-88"/>
      <point x="267" y="-42"/>
    </contour>
  </outline>
</glyph>
<glyph name="Egrave" format="2">
  <advance width="446"/>
  <unicode hex="00C8"/>
  <outline>
    <contour>
      <point x="0" y="0" type="line"/>
      <point x="332" y="0" type="line"/>
      <point x="349" y="100" type="line"/>
      <point x="127" y="100" type="line"/>
      <point x="164" y="308" type="line"/>
      <point x="270" y="308" type="line"/>
      <point x="319" y="413" type="line"/>
      <point x="182" y="413" type="line"/>
      <point x="213" y="588" type="line"/>
      <point x="437" y="588" type="line"/>
      <point x="457" y="698" type="line"/>
      <point x="123" y="698" type="line"/>
    </contour>
    <contour>
      <point x="235" y="820" type="curve"/>
      <point x="281" y="744" type="line"/>
      <point x="326" y="744" type="line"/>
      <point x="315" y="860" type="line" smooth="yes"/>
      <point x="312" y="888"/>
      <point x="283" y="905"/>
      <point x="256" y="891" type="curve" smooth="yes"/>
      <point x="224" y="876"/>
      <point x="221" y="839"/>
    </contour>
  </outline>
</glyph>
<glyph name="Eacute" format="2">
  <advance width="446"/>
  <unicode hex="00C9"/>
  <outline>
    <contour>
      <point x="0" y="0" type="line"/>
      <point x="332" y="0" type="line"/>
      <point x="349" y="100" type="line"/>
      <point x="127" y="100" type="line"/>
      <point x="164" y="308" type="line"/>
      <point x="270" y="308" type="line"/>
      <point x="319" y="413" type="line"/>
      <point x="182" y="413" type="line"/>
      <point x="213" y="588" type="line"/>
      <point x="437" y="588" type="line"/>
      <point x="457" y="698" type="line"/>
      <point x="123" y="698" type="line"/>
    </contour>
    <contour>
      <point x="324" y="853" type="curve"/>
      <point x="277" y="744" type="line"/>
      <point x="318" y="744" type="line"/>
      <point x="385" y="815" type="line" smooth="yes"/>
      <point x="408" y="839"/>
      <point x="409" y="865"/>
      <point x="390" y="881" type="curve"/>
      <point x="364" y="889"/>
      <point x="340" y="881"/>
    </contour>
  </outline>
</glyph>
<glyph name="Ecircumflex" format="2">
  <advance width="446"/>
  <unicode hex="00CA"/>
  <outline>
    <contour>
      <point x="0" y="0" type="line"/>
      <point x="332" y="0" type="line"/>
      <point x="349" y="100" type="line"/>
      <point x="127" y="100" type="line"/>
      <point x="164" y="308" type="line"/>
      <point x="270" y="308" type="line"/>
      <point x="319" y="413" type="line"/>
      <point x="182" y="413" type="line"/>
      <point x="213" y="588" type="line"/>
      <point x="437" y="588" type="line"/>
      <point x="457" y="698" type="line"/>
      <point x="123" y="698" type="line"/>
    </contour>
    <contour>
      <point x="177" y="795" type="line"/>
      <point x="220" y="744" type="line"/>
      <point x="314" y="827" type="line"/>
      <point x="375" y="745" type="line"/>
      <point x="437" y="798" type="line"/>
      <point x="331" y="923" type="line"/>
    </contour>
  </outline>
</glyph>
<glyph name="Edieresis" format="2">
  <advance width="447"/>
  <unicode hex="00CB"/>
  <outline>
    <contour>
      <point x="0" y="0" type="line"/>
      <point x="332" y="0" type="line"/>
      <point x="349" y="100" type="line"/>
      <point x="127" y="100" type="line"/>
      <point x="164" y="308" type="line"/>
      <point x="270" y="308" type="line"/>
      <point x="319" y="413" type="line"/>
      <point x="182" y="413" type="line"/>
      <point x="213" y="588" type="line"/>
      <point x="437" y="588" type="line"/>
      <point x="457" y="698" type="line"/>
      <point x="123" y="698" type="line"/>
    </contour>
    <contour>
      <point x="447" y="803" type="curve" smooth="yes"/>
      <point x="453" y="836"/>
      <point x="430" y="862"/>
      <point x="397" y="862" type="curve" smooth="yes"/>
      <point x="364" y="862"/>
      <point x="334" y="836"/>
      <point x="328" y="803" type="curve" smooth="yes"/>
      <point x="322" y="770"/>
      <point x="344" y="744"/>
      <point x="377" y="744" type="curve" smooth="yes"/>
      <point x="410" y="744"/>
      <point x="441" y="770"/>
    </contour>
    <contour>
      <point x="289" y="803" type="curve" smooth="yes"/>
      <point x="295" y="836"/>
      <point x="272" y="862"/>
      <point x="239" y="862" type="curve" smooth="yes"/>
      <point x="206" y="862"/>
      <point x="176" y="836"/>
      <point x="170" y="803" type="curve" smooth="yes"/>
      <point x="164" y="770"/>
      <point x="186" y="744"/>
      <point x="219" y="744" type="curve" smooth="yes"/>
      <point x="252" y="744"/>
      <point x="283" y="770"/>
    </contour>
  </outline>
</glyph>
<glyph name="Igrave" format="2">
  <advance width="280"/>
  <unicode hex="00CC"/>
  <outline>
    <contour>
      <point x="52" y="593" type="line"/>
      <point x="114" y="591" type="line"/>
      <point x="10" y="0" type="line"/>
      <point x="120" y="0" type="line"/>
      <point x="243" y="698" type="line"/>
      <point x="71" y="698" type="line"/>
    </contour>
    <contour>
      <point x="219" y="858" type="curve" smooth="yes"/>
      <point x="168" y="741" type="line"/>
      <point x="212" y="741" type="line"/>
      <point x="285" y="817" type="line" smooth="yes"/>
      <point x="306" y="839"/>
      <point x="314" y="873"/>
      <point x="289" y="889" type="curve"/>
      <point x="264" y="901"/>
      <point x="232" y="886"/>
    </contour>
  </outline>
</glyph>
<glyph name="Iacute" format="2">
  <advance width="280"/>
  <unicode hex="00CD"/>
  <outline>
    <contour>
      <point x="52" y="593" type="line"/>
      <point x="115" y="591" type="line"/>
      <point x="11" y="0" type="line"/>
      <point x="121" y="0" type="line"/>
      <point x="244" y="698" type="line"/>
      <point x="71" y="698" type="line"/>
    </contour>
    <contour>
      <point x="219" y="858" type="curve"/>
      <point x="169" y="741" type="line"/>
      <point x="213" y="741" type="line"/>
      <point x="286" y="817" type="line" smooth="yes"/>
      <point x="307" y="839"/>
      <point x="314" y="875"/>
      <point x="290" y="889" type="curve"/>
      <point x="264" y="901"/>
      <point x="233" y="886"/>
    </contour>
  </outline>
</glyph>
<glyph name="Idieresis" format="2">
  <advance width="289"/>
  <unicode hex="00CF"/>
  <outline>
    <contour>
      <point x="53" y="593" type="line"/>
      <point x="116" y="591" type="line"/>
      <point x="12" y="0" type="line"/>
      <point x="122" y="0" type="line"/>
      <point x="245" y="698" type="line"/>
      <point x="72" y="698" type="line"/>
    </contour>
    <contour>
      <point x="270" y="861" type="curve" smooth="yes"/>
      <point x="237" y="861"/>
      <point x="205" y="835"/>
      <point x="199" y="802" type="curve" smooth="yes"/>
      <point x="193" y="769"/>
      <point x="216" y="741"/>
      <point x="249" y="741" type="curve" smooth="yes"/>
      <point x="282" y="741"/>
      <point x="312" y="769"/>
      <point x="318" y="802" type="curve" smooth="yes"/>
      <point x="324" y="835"/>
      <point x="303" y="861"/>
    </contour>
    <contour>
      <point x="110" y="861" type="curve" smooth="yes"/>
      <point x="77" y="861"/>
      <point x="48" y="835"/>
      <point x="42" y="802" type="curve" smooth="yes"/>
      <point x="36" y="769"/>
      <point x="56" y="741"/>
      <point x="89" y="741" type="curve" smooth="yes"/>
      <point x="122" y="741"/>
      <point x="155" y="769"/>
      <point x="161" y="802" type="curve" smooth="yes"/>
      <point x="167" y="835"/>
      <point x="143" y="861"/>
    </contour>
  </outline>
</glyph>
<glyph name="Eth" format="1">
  <advance width="522"/>
  <unicode hex="00D0"/>
  <outline>
    <contour>
      <point x="134" y="308" type="line"/>
      <point x="270" y="308" type="line"/>
      <point x="319" y="413" type="line"/>
      <point x="152" y="413" type="line"/>
    </contour>
    <component base="D"/>
  </outline>
</glyph>
<glyph name="Ntilde" format="2">
  <advance width="611"/>
  <unicode hex="00D1"/>
  <outline>
    <contour>
      <point x="615" y="698" type="line"/>
      <point x="504" y="698" type="line"/>
      <point x="421" y="230" type="line"/>
      <point x="233" y="698" type="line"/>
      <point x="123" y="698" type="line"/>
      <point x="0" y="0" type="line"/>
      <point x="110" y="0" type="line"/>
      <point x="193" y="472" type="line"/>
      <point x="381" y="0" type="line"/>
      <point x="492" y="0" type="line"/>
    </contour>
    <contour>
      <point x="514" y="781" type="curve"/>
      <point x="499" y="840" type="line"/>
      <point x="484" y="829"/>
      <point x="465" y="823"/>
      <point x="449" y="822" type="curve"/>
      <point x="412" y="822"/>
      <point x="384" y="840"/>
      <point x="352" y="840" type="curve" smooth="yes"/>
      <point x="314" y="840"/>
      <point x="285" y="827"/>
      <point x="257" y="806" type="curve"/>
      <point x="275" y="749" type="line"/>
      <point x="285" y="755"/>
      <point x="299" y="766"/>
      <point x="324" y="768" type="curve"/>
      <point x="361" y="768"/>
      <point x="389" y="751"/>
      <point x="423" y="751" type="curve" smooth="yes"/>
      <point x="459" y="751"/>
      <point x="489" y="763"/>
    </contour>
  </outline>
</glyph>
<glyph name="Otilde" format="2">
  <advance width="516"/>
  <unicode hex="00D5"/>
  <outline>
    <contour>
      <point x="78" y="506" type="curve" smooth="yes"/>
      <point x="21" y="185" type="line" smooth="yes"/>
      <point x="-2" y="56"/>
      <point x="79" y="-11"/>
      <point x="198" y="-11" type="curve" smooth="yes"/>
      <point x="323" y="-11"/>
      <point x="420" y="63"/>
      <point x="441" y="185" type="curve" smooth="yes"/>
      <point x="498" y="505" type="line" smooth="yes"/>
      <point x="521" y="636"/>
      <point x="459" y="715"/>
      <point x="327" y="715" type="curve" smooth="yes"/>
      <point x="195" y="715"/>
      <point x="102" y="642"/>
    </contour>
    <contour>
      <point x="134" y="204" type="curve" smooth="yes"/>
      <point x="181" y="470" type="line" smooth="yes"/>
      <point x="197" y="557"/>
      <point x="234" y="598"/>
      <point x="304" y="598" type="curve" smooth="yes"/>
      <point x="381" y="598"/>
      <point x="396" y="554"/>
      <point x="381" y="469" type="curve" smooth="yes"/>
      <point x="335" y="206" type="line" smooth="yes"/>
      <point x="324" y="143"/>
      <point x="279" y="101"/>
      <point x="216" y="101" type="curve" smooth="yes"/>
      <point x="149" y="101"/>
      <point x="123" y="140"/>
    </contour>
    <contour>
      <point x="466" y="773" type="curve"/>
      <point x="450" y="833" type="line"/>
      <point x="435" y="822"/>
      <point x="416" y="815"/>
      <point x="401" y="814" type="curve"/>
      <point x="364" y="814"/>
      <point x="336" y="833"/>
      <point x="303" y="833" type="curve" smooth="yes"/>
      <point x="265" y="833"/>
      <point x="237" y="818"/>
      <point x="208" y="799" type="curve"/>
      <point x="226" y="740" type="line"/>
      <point x="236" y="747"/>
      <point x="250" y="758"/>
      <point x="277" y="760" type="curve"/>
      <point x="313" y="760"/>
      <point x="342" y="741"/>
      <point x="377" y="741" type="curve" smooth="yes"/>
      <point x="410" y="741"/>
      <point x="442" y="756"/>
    </contour>
  </outline>
</glyph>
<glyph name="Odieresis" format="2">
  <advance width="516"/>
  <unicode hex="00D6"/>
  <outline>
    <contour>
      <point x="78" y="506" type="curve" smooth="yes"/>
      <point x="21" y="185" type="line" smooth="yes"/>
      <point x="-2" y="56"/>
      <point x="79" y="-11"/>
      <point x="198" y="-11" type="curve" smooth="yes"/>
      <point x="323" y="-11"/>
      <point x="420" y="63"/>
      <point x="441" y="185" type="curve" smooth="yes"/>
      <point x="498" y="505" type="line" smooth="yes"/>
      <point x="521" y="636"/>
      <point x="459" y="715"/>
      <point x="327" y="715" type="curve" smooth="yes"/>
      <point x="195" y="715"/>
      <point x="102" y="642"/>
    </contour>
    <contour>
      <point x="134" y="204" type="curve" smooth="yes"/>
      <point x="181" y="470" type="line" smooth="yes"/>
      <point x="197" y="557"/>
      <point x="234" y="598"/>
      <point x="304" y="598" type="curve" smooth="yes"/>
      <point x="381" y="598"/>
      <point x="396" y="554"/>
      <point x="381" y="469" type="curve" smooth="yes"/>
      <point x="335" y="206" type="line" smooth="yes"/>
      <point x="324" y="143"/>
      <point x="279" y="101"/>
      <point x="216" y="101" type="curve" smooth="yes"/>
      <point x="149" y="101"/>
      <point x="123" y="140"/>
    </contour>
    <contour>
      <point x="274" y="871" type="curve" smooth="yes"/>
      <point x="241" y="871"/>
      <point x="208" y="844"/>
      <point x="203" y="811" type="curve" smooth="yes"/>
      <point x="197" y="778"/>
      <point x="220" y="751"/>
      <point x="253" y="751" type="curve" smooth="yes"/>
      <point x="286" y="751"/>
      <point x="317" y="778"/>
      <point x="323" y="811" type="curve" smooth="yes"/>
      <point x="328" y="844"/>
      <point x="307" y="871"/>
    </contour>
    <contour>
      <point x="431" y="871" type="curve" smooth="yes"/>
      <point x="398" y="871"/>
      <point x="367" y="844"/>
      <point x="362" y="811" type="curve" smooth="yes"/>
      <point x="356" y="778"/>
      <point x="377" y="751"/>
      <point x="410" y="751" type="curve" smooth="yes"/>
      <point x="443" y="751"/>
      <point x="475" y="778"/>
      <point x="481" y="811" type="curve" smooth="yes"/>
      <point x="486" y="844"/>
      <point x="464" y="871"/>
    </contour>
  </outline>
</glyph>
<glyph name="multiply" format="1">
  <advance width="382"/>
  <unicode hex="00D7"/>
  <outline>
    <contour>
      <point x="203" y="404" type="line"/>
      <point x="135" y="507" type="line"/>
      <point x="53" y="447" type="line"/>
      <point x="131" y="332" type="line"/>
      <point x="16" y="218" type="line"/>
      <point x="73" y="156" type="line"/>
      <point x="177" y="260" type="line"/>
      <point x="246" y="157" type="line"/>
      <point x="327" y="218" type="line"/>
      <point x="250" y="332" type="line"/>
      <point x="369" y="450" type="line"/>
      <point x="307" y="508" type="line"/>
    </contour>
  </outline>
</glyph>
<glyph name="Oslash" format="1">
  <advance width="571"/>
  <unicode hex="00D8"/>
  <outline>
    <contour>
      <point x="-13" y="-114" type="line"/>
      <point x="103" y="-114" type="line"/>
      <point x="594" y="816" type="line"/>
      <point x="474" y="816" type="line"/>
    </contour>
    <component base="O"/>
  </outline>
</glyph>
<glyph name="Oslash" format="2">
  <advance width="571"/>
  <unicode hex="00D8"/>
  <outline>
    <contour>
      <point x="101" y="506" type="curve" smooth="yes"/>
      <point x="44" y="185" type="line" smooth="yes"/>
      <point x="21" y="56"/>
      <point x="102" y="-11"/>
      <point x="221" y="-11" type="curve" smooth="yes"/>
      <point x="345" y="-11"/>
      <point x="443" y="63"/>
      <point x="464" y="185" type="curve" smooth="yes"/>
      <point x="521" y="505" type="line" smooth="yes"/>
      <point x="544" y="636"/>
      <point x="482" y="715"/>
      <point x="350" y="715" type="curve" smooth="yes"/>
      <point x="218" y="715"/>
      <point x="125" y="642"/>
    </contour>
    <contour>
      <point x="157" y="204" type="curve" smooth="yes"/>
      <point x="204" y="470" type="line" smooth="yes"/>
      <point x="220" y="557"/>
      <point x="257" y="598"/>
      <point x="327" y="598" type="curve" smooth="yes"/>
      <point x="404" y="598"/>
      <point x="419" y="554"/>
      <point x="404" y="469" type="curve" smooth="yes"/>
      <point x="358" y="206" type="line" smooth="yes"/>
      <point x="347" y="143"/>
      <point x="302" y="101"/>
      <point x="239" y="101" type="curve" smooth="yes"/>
      <point x="171" y="101"/>
      <point x="146" y="140"/>
    </contour>
    <contour>
      <point x="-13" y="-114" type="line"/>
      <point x="103" y="-114" type="line"/>
      <point x="594" y="816" type="line"/>
      <point x="474" y="816" type="line"/>
    </contour>
  </outline>
</glyph>
<glyph name="Uacute" format="2">
  <advance width="522"/>
  <unicode hex="00DA"/>
  <outline>
    <contour>
      <point x="437" y="185" type="curve" smooth="yes"/>
      <point x="528" y="698" type="line"/>
      <point x="418" y="698" type="line"/>
      <point x="331" y="206" type="line" smooth="yes"/>
      <point x="325" y="172"/>
      <point x="309" y="144"/>
      <point x="287" y="127" type="curve" smooth="yes"/>
      <point x="267" y="110"/>
      <point x="241" y="101"/>
      <point x="212" y="101" type="curve" smooth="yes"/>
      <point x="182" y="101"/>
      <point x="161" y="108"/>
      <point x="148" y="122" type="curve" smooth="yes"/>
      <point x="130" y="140"/>
      <point x="124" y="168"/>
      <point x="130" y="204" type="curve" smooth="yes"/>
      <point x="218" y="698" type="line"/>
      <point x="108" y="698" type="line"/>
      <point x="17" y="185" type="line" smooth="yes"/>
      <point x="5" y="118"/>
      <point x="18" y="68"/>
      <point x="53" y="36" type="curve" smooth="yes"/>
      <point x="89" y="5"/>
      <point x="137" y="-11"/>
      <point x="194" y="-11" type="curve" smooth="yes"/>
      <point x="251" y="-11"/>
      <point x="303" y="5"/>
      <point x="349" y="36" type="curve" smooth="yes"/>
      <point x="395" y="68"/>
      <point x="425" y="118"/>
    </contour>
    <contour>
      <point x="350" y="860" type="curve" smooth="yes"/>
      <point x="301" y="744" type="line"/>
      <point x="345" y="744" type="line"/>
      <point x="416" y="820" type="line"/>
      <point x="438" y="840"/>
      <point x="444" y="877"/>
      <point x="422" y="891" type="curve"/>
      <point x="397" y="905"/>
      <point x="362" y="886"/>
    </contour>
  </outline>
</glyph>
<glyph name="Yacute" format="2">
  <advance width="519"/>
  <unicode hex="00DD"/>
  <outline>
    <contour>
      <point x="428" y="156" type="curve" smooth="yes"/>
      <point x="524" y="698" type="line"/>
      <point x="414" y="698" type="line"/>
      <point x="362" y="405" type="line" smooth="yes"/>
      <point x="357" y="375"/>
      <point x="339" y="346"/>
      <point x="315" y="328" type="curve" smooth="yes"/>
      <point x="293" y="310"/>
      <point x="266" y="300"/>
      <point x="239" y="300" type="curve" smooth="yes"/>
      <point x="202" y="300"/>
      <point x="174" y="309"/>
      <point x="158" y="327" type="curve" smooth="yes"/>
      <point x="139" y="348"/>
      <point x="134" y="380"/>
      <point x="141" y="422" type="curve" smooth="yes"/>
      <point x="190" y="698" type="line"/>
      <point x="80" y="698" type="line"/>
      <point x="29" y="413" type="line" smooth="yes"/>
      <point x="17" y="345"/>
      <point x="29" y="293"/>
      <point x="64" y="254" type="curve" smooth="yes"/>
      <point x="103" y="210"/>
      <point x="155" y="198"/>
      <point x="214" y="198" type="curve" smooth="yes"/>
      <point x="280" y="201"/>
      <point x="332" y="237"/>
      <point x="332" y="237" type="curve"/>
      <point x="319" y="164" type="line" smooth="yes"/>
      <point x="307" y="94"/>
      <point x="272" y="70"/>
      <point x="227" y="65" type="curve"/>
      <point x="247" y="-19" type="line"/>
      <point x="358" y="-8"/>
      <point x="409" y="51"/>
    </contour>
    <contour>
      <point x="333" y="859" type="curve"/>
      <point x="283" y="743" type="line"/>
      <point x="327" y="743" type="line"/>
      <point x="399" y="817" type="line" smooth="yes"/>
      <point x="421" y="839"/>
      <point x="427" y="873"/>
      <point x="404" y="889" type="curve" smooth="yes"/>
      <point x="381" y="904"/>
      <point x="346" y="884"/>
    </contour>
  </outline>
</glyph>
<glyph name="Thorn" format="2">
  <advance width="479"/>
  <unicode hex="00DE"/>
  <outline>
    <contour>
      <point x="444" y="290" type="curve" smooth="yes"/>
      <point x="469" y="435" type="line" smooth="yes"/>
      <point x="475" y="479"/>
      <point x="473" y="510"/>
      <point x="460" y="543" type="curve" smooth="yes"/>
      <point x="435" y="601"/>
      <point x="379" y="626"/>
      <point x="318" y="626" type="curve" smooth="yes"/>
      <point x="285" y="626"/>
      <point x="251" y="619"/>
      <point x="217" y="608" type="curve"/>
      <point x="233" y="698" type="line"/>
      <point x="123" y="698" type="line"/>
      <point x="0" y="0" type="line"/>
      <point x="110" y="0" type="line"/>
      <point x="129" y="113" type="line"/>
      <point x="185" y="102"/>
      <point x="245" y="100"/>
      <point x="300" y="118" type="curve" smooth="yes"/>
      <point x="374" y="140"/>
      <point x="427" y="193"/>
    </contour>
    <contour>
      <point x="289" y="532" type="curve" smooth="yes"/>
      <point x="317" y="532"/>
      <point x="347" y="520"/>
      <point x="358" y="497" type="curve" smooth="yes"/>
      <point x="364" y="484"/>
      <point x="366" y="468"/>
      <point x="362" y="448" type="curve" smooth="yes"/>
      <point x="336" y="290" type="line" smooth="yes"/>
      <point x="328" y="249"/>
      <point x="310" y="220"/>
      <point x="268" y="208" type="curve" smooth="yes"/>
      <point x="231" y="196"/>
      <point x="181" y="197"/>
      <point x="146" y="206" type="curve"/>
      <point x="200" y="514" type="line"/>
      <point x="227" y="524"/>
      <point x="262" y="532"/>
    </contour>
  </outline>
</glyph>
<glyph name="germandbls" format="2">
  <advance width="502"/>
  <unicode hex="00DF"/>
  <outline>
    <contour>
      <point x="109" y="0" type="curve"/>
      <point x="198" y="505" type="line" smooth="yes"/>
      <point x="208" y="565"/>
      <point x="233" y="595"/>
      <point x="273" y="595" type="curve" smooth="yes"/>
      <point x="302" y="595"/>
      <point x="313" y="576"/>
      <point x="309" y="555" type="curve" smooth="yes"/>
      <point x="305" y="532"/>
      <point x="283" y="506"/>
      <point x="250" y="506" type="curve"/>
      <point x="230" y="482"/>
      <point x="221" y="460"/>
      <point x="217" y="439" type="curve" smooth="yes"/>
      <point x="203" y="358"/>
      <point x="282" y="298"/>
      <point x="326" y="243" type="curve" smooth="yes"/>
      <point x="352" y="209"/>
      <point x="361" y="178"/>
      <point x="356" y="152" type="curve" smooth="yes"/>
      <point x="350" y="116"/>
      <point x="317" y="94"/>
      <point x="285" y="94" type="curve" smooth="yes"/>
      <point x="259" y="94"/>
      <point x="229" y="107"/>
      <point x="202" y="137" type="curve"/>
      <point x="180" y="103"/>
      <point x="158" y="71"/>
      <point x="136" y="37" type="curve"/>
      <point x="168" y="7"/>
      <point x="214" y="-12"/>
      <point x="269" y="-12" type="curve" smooth="yes"/>
      <point x="366" y="-12"/>
      <point x="455" y="53"/>
      <point x="472" y="148" type="curve" smooth="yes"/>
      <point x="482" y="205"/>
      <point x="466" y="251"/>
      <point x="438" y="288" type="curve" smooth="yes"/>
      <point x="398" y="345"/>
      <point x="322" y="393"/>
      <point x="331" y="444" type="curve" smooth="yes"/>
      <point x="333" y="455"/>
      <point x="338" y="465"/>
      <point x="347" y="476" type="curve"/>
      <point x="348" y="476"/>
      <point x="367" y="476"/>
      <point x="367" y="476" type="curve"/>
      <point x="411" y="515"/>
      <point x="427" y="568"/>
      <point x="420" y="610" type="curve" smooth="yes"/>
      <point x="411" y="667"/>
      <point x="351" y="700"/>
      <point x="283" y="700" type="curve" smooth="yes"/>
      <point x="202" y="698"/>
      <point x="113" y="651"/>
      <point x="93" y="536" type="curve" smooth="yes"/>
      <point x="62" y="358"/>
      <point x="30" y="178"/>
      <point x="-1" y="0" type="curve"/>
      <point x="35" y="0"/>
      <point x="73" y="0"/>
    </contour>
  </outline>
</glyph>
<glyph name="aacute" format="2">
  <advance width="449"/>
  <unicode hex="00E1"/>
  <outline>
    <contour>
      <point x="316" y="334" type="curve"/>
      <point x="293" y="378"/>
      <point x="235" y="400"/>
      <point x="188" y="400" type="curve" smooth="yes"/>
      <point x="115" y="400"/>
      <point x="45" y="354"/>
      <point x="27" y="252" type="curve"/>
      <point x="27" y="252"/>
      <point x="10" y="155"/>
      <point x="10" y="155" type="curve"/>
      <point x="-7" y="28"/>
      <point x="74" y="-11"/>
      <point x="186" y="-11" type="curve" smooth="yes"/>
      <point x="253" y="-11"/>
      <point x="311" y="-8"/>
      <point x="368" y="0" type="curve"/>
      <point x="368" y="0"/>
      <point x="402" y="194"/>
      <point x="421" y="306" type="curve" smooth="yes"/>
      <point x="438" y="398"/>
      <point x="422" y="442"/>
      <point x="402" y="464" type="curve" smooth="yes"/>
      <point x="365" y="504"/>
      <point x="302" y="508"/>
      <point x="249" y="508" type="curve"/>
      <point x="227" y="433" type="line"/>
      <point x="269" y="433"/>
      <point x="296" y="422"/>
      <point x="311" y="406" type="curve" smooth="yes"/>
      <point x="322" y="395"/>
      <point x="324" y="377"/>
    </contour>
    <contour>
      <point x="302" y="252" type="curve"/>
      <point x="302" y="252"/>
      <point x="274" y="94"/>
      <point x="274" y="94" type="curve"/>
      <point x="274" y="94"/>
      <point x="229" y="90"/>
      <point x="213" y="90" type="curve" smooth="yes"/>
      <point x="122" y="90"/>
      <point x="115" y="123"/>
      <point x="124" y="173" type="curve" smooth="yes"/>
      <point x="127" y="190"/>
      <point x="132" y="218"/>
      <point x="135" y="238" type="curve" smooth="yes"/>
      <point x="142" y="275"/>
      <point x="168" y="287"/>
      <point x="199" y="287" type="curve" smooth="yes"/>
      <point x="247" y="287"/>
      <point x="291" y="260"/>
    </contour>
    <contour>
      <point x="311" y="664" type="curve" smooth="yes"/>
      <point x="261" y="549" type="line"/>
      <point x="305" y="549" type="line"/>
      <point x="377" y="624" type="line" smooth="yes"/>
      <point x="399" y="646"/>
      <point x="406" y="681"/>
      <point x="381" y="695" type="curve"/>
      <point x="358" y="710"/>
      <point x="322" y="691"/>
    </contour>
  </outline>
</glyph>
<glyph name="acircumflex" format="2">
  <advance width="450"/>
  <unicode hex="00E2"/>
  <outline>
    <contour>
      <point x="317" y="334" type="curve"/>
      <point x="294" y="378"/>
      <point x="236" y="400"/>
      <point x="189" y="400" type="curve" smooth="yes"/>
      <point x="116" y="400"/>
      <point x="46" y="354"/>
      <point x="28" y="252" type="curve"/>
      <point x="28" y="252"/>
      <point x="11" y="155"/>
      <point x="11" y="155" type="curve"/>
      <point x="-6" y="28"/>
      <point x="75" y="-11"/>
      <point x="187" y="-11" type="curve" smooth="yes"/>
      <point x="254" y="-11"/>
      <point x="312" y="-8"/>
      <point x="369" y="0" type="curve"/>
      <point x="369" y="0"/>
      <point x="403" y="194"/>
      <point x="422" y="306" type="curve" smooth="yes"/>
      <point x="439" y="398"/>
      <point x="423" y="442"/>
      <point x="403" y="464" type="curve" smooth="yes"/>
      <point x="366" y="504"/>
      <point x="303" y="508"/>
      <point x="250" y="508" type="curve"/>
      <point x="229" y="433" type="line"/>
      <point x="270" y="433"/>
      <point x="297" y="422"/>
      <point x="313" y="406" type="curve" smooth="yes"/>
      <point x="323" y="395"/>
      <point x="325" y="377"/>
    </contour>
    <contour>
      <point x="303" y="252" type="curve"/>
      <point x="303" y="252"/>
      <point x="275" y="94"/>
      <point x="275" y="94" type="curve"/>
      <point x="275" y="94"/>
      <point x="230" y="90"/>
      <point x="214" y="90" type="curve" smooth="yes"/>
      <point x="123" y="90"/>
      <point x="116" y="123"/>
      <point x="125" y="173" type="curve" smooth="yes"/>
      <point x="128" y="190"/>
      <point x="133" y="218"/>
      <point x="136" y="238" type="curve" smooth="yes"/>
      <point x="143" y="275"/>
      <point x="169" y="287"/>
      <point x="200" y="287" type="curve" smooth="yes"/>
      <point x="248" y="287"/>
      <point x="292" y="260"/>
    </contour>
    <contour>
      <point x="151" y="598" type="line"/>
      <point x="196" y="547" type="line"/>
      <point x="288" y="629" type="line"/>
      <point x="350" y="548" type="line"/>
      <point x="413" y="599" type="line"/>
      <point x="306" y="726" type="line"/>
    </contour>
  </outline>
</glyph>
<glyph name="atilde" format="2">
  <advance width="451"/>
  <unicode hex="00E3"/>
  <outline>
    <contour>
      <point x="317" y="334" type="curve"/>
      <point x="294" y="378"/>
      <point x="236" y="400"/>
      <point x="189" y="400" type="curve" smooth="yes"/>
      <point x="116" y="400"/>
      <point x="46" y="354"/>
      <point x="28" y="252" type="curve"/>
      <point x="28" y="252"/>
      <point x="11" y="155"/>
      <point x="11" y="155" type="curve"/>
      <point x="-6" y="28"/>
      <point x="75" y="-11"/>
      <point x="187" y="-11" type="curve" smooth="yes"/>
      <point x="254" y="-11"/>
      <point x="312" y="-8"/>
      <point x="369" y="0" type="curve"/>
      <point x="369" y="0"/>
      <point x="403" y="194"/>
      <point x="422" y="306" type="curve" smooth="yes"/>
      <point x="439" y="398"/>
      <point x="423" y="442"/>
      <point x="403" y="464" type="curve" smooth="yes"/>
      <point x="366" y="504"/>
      <point x="303" y="508"/>
      <point x="250" y="508" type="curve"/>
      <point x="229" y="433" type="line"/>
      <point x="270" y="433"/>
      <point x="297" y="422"/>
      <point x="313" y="406" type="curve" smooth="yes"/>
      <point x="323" y="395"/>
      <point x="325" y="377"/>
    </contour>
    <contour>
      <point x="303" y="252" type="curve"/>
      <point x="303" y="252"/>
      <point x="275" y="94"/>
      <point x="275" y="94" type="curve"/>
      <point x="275" y="94"/>
      <point x="230" y="90"/>
      <point x="214" y="90" type="curve" smooth="yes"/>
      <point x="123" y="90"/>
      <point x="116" y="123"/>
      <point x="125" y="173" type="curve" smooth="yes"/>
      <point x="128" y="190"/>
      <point x="133" y="218"/>
      <point x="136" y="238" type="curve" smooth="yes"/>
      <point x="143" y="275"/>
      <point x="169" y="287"/>
      <point x="200" y="287" type="curve" smooth="yes"/>
      <point x="248" y="287"/>
      <point x="292" y="260"/>
    </contour>
    <contour>
      <point x="411" y="581" type="curve"/>
      <point x="395" y="641" type="line"/>
      <point x="380" y="630"/>
      <point x="360" y="623"/>
      <point x="344" y="621" type="curve"/>
      <point x="306" y="621"/>
      <point x="279" y="641"/>
      <point x="243" y="641" type="curve" smooth="yes"/>
      <point x="191" y="639"/>
      <point x="167" y="618"/>
      <point x="153" y="608" type="curve"/>
      <point x="170" y="549" type="line"/>
      <point x="179" y="555"/>
      <point x="194" y="566"/>
      <point x="221" y="568" type="curve"/>
      <point x="258" y="568"/>
      <point x="287" y="551"/>
      <point x="321" y="551" type="curve" smooth="yes"/>
      <point x="355" y="551"/>
      <point x="385" y="564"/>
    </contour>
  </outline>
</glyph>
<glyph name="aring" format="2">
  <advance width="450"/>
  <unicode hex="00E5"/>
  <outline>
    <contour>
      <point x="317" y="334" type="curve"/>
      <point x="294" y="378"/>
      <point x="236" y="400"/>
      <point x="189" y="400" type="curve" smooth="yes"/>
      <point x="116" y="400"/>
      <point x="46" y="354"/>
      <point x="28" y="252" type="curve"/>
      <point x="28" y="252"/>
      <point x="11" y="155"/>
      <point x="11" y="155" type="curve"/>
      <point x="-6" y="28"/>
      <point x="75" y="-11"/>
      <point x="187" y="-11" type="curve" smooth="yes"/>
      <point x="254" y="-11"/>
      <point x="312" y="-8"/>
      <point x="369" y="0" type="curve"/>
      <point x="369" y="0"/>
      <point x="403" y="194"/>
      <point x="422" y="306" type="curve" smooth="yes"/>
      <point x="439" y="398"/>
      <point x="423" y="442"/>
      <point x="403" y="464" type="curve" smooth="yes"/>
      <point x="366" y="504"/>
      <point x="303" y="508"/>
      <point x="250" y="508" type="curve"/>
      <point x="229" y="433" type="line"/>
      <point x="270" y="433"/>
      <point x="297" y="422"/>
      <point x="313" y="406" type="curve" smooth="yes"/>
      <point x="323" y="395"/>
      <point x="325" y="377"/>
    </contour>
    <contour>
      <point x="303" y="252" type="curve"/>
      <point x="303" y="252"/>
      <point x="275" y="94"/>
      <point x="275" y="94" type="curve"/>
      <point x="275" y="94"/>
      <point x="230" y="90"/>
      <point x="214" y="90" type="curve" smooth="yes"/>
      <point x="123" y="90"/>
      <point x="116" y="123"/>
      <point x="125" y="173" type="curve" smooth="yes"/>
      <point x="128" y="190"/>
      <point x="133" y="218"/>
      <point x="136" y="238" type="curve" smooth="yes"/>
      <point x="143" y="275"/>
      <point x="169" y="287"/>
      <point x="200" y="287" type="curve" smooth="yes"/>
      <point x="248" y="287"/>
      <point x="292" y="260"/>
    </contour>
    <contour>
      <point x="240" y="433" type="curve" smooth="yes"/>
      <point x="302" y="433"/>
      <point x="362" y="485"/>
      <point x="373" y="548" type="curve" smooth="yes"/>
      <point x="384" y="610"/>
      <point x="342" y="662"/>
      <point x="280" y="662" type="curve" smooth="yes"/>
      <point x="217" y="662"/>
      <point x="156" y="610"/>
      <point x="145" y="548" type="curve" smooth="yes"/>
      <point x="134" y="485"/>
      <point x="177" y="433"/>
    </contour>
    <contour>
      <point x="290" y="548" type="curve" smooth="yes"/>
      <point x="287" y="530"/>
      <point x="270" y="516"/>
      <point x="254" y="516" type="curve" smooth="yes"/>
      <point x="236" y="516"/>
      <point x="226" y="530"/>
      <point x="229" y="548" type="curve" smooth="yes"/>
      <point x="232" y="565"/>
      <point x="248" y="579"/>
      <point x="266" y="579" type="curve" smooth="yes"/>
      <point x="282" y="579"/>
      <point x="293" y="565"/>
    </contour>
  </outline>
</glyph>
<glyph name="ae" format="2">
  <advance width="705"/>
  <unicode hex="00E6"/>
  <outline>
    <contour>
      <point x="400" y="150" type="curve" smooth="yes"/>
      <point x="404" y="174" type="line"/>
      <point x="654" y="187" type="line"/>
      <point x="682" y="343" type="line" smooth="yes"/>
      <point x="701" y="450"/>
      <point x="633" y="510"/>
      <point x="535" y="510" type="curve" smooth="yes"/>
      <point x="486" y="510"/>
      <point x="441" y="497"/>
      <point x="398" y="469" type="curve"/>
      <point x="360" y="504"/>
      <point x="301" y="508"/>
      <point x="250" y="508" type="curve"/>
      <point x="243" y="483"/>
      <point x="236" y="459"/>
      <point x="228" y="433" type="curve"/>
      <point x="304" y="431"/>
      <point x="330" y="408"/>
      <point x="317" y="334" type="curve"/>
      <point x="294" y="378"/>
      <point x="236" y="400"/>
      <point x="189" y="400" type="curve" smooth="yes"/>
      <point x="116" y="400"/>
      <point x="46" y="354"/>
      <point x="28" y="252" type="curve" smooth="yes"/>
      <point x="11" y="155" type="line" smooth="yes"/>
      <point x="-6" y="28"/>
      <point x="75" y="-11"/>
      <point x="188" y="-11" type="curve" smooth="yes"/>
      <point x="249" y="-11"/>
      <point x="303" y="-9"/>
      <point x="356" y="-2" type="curve"/>
      <point x="359" y="13" type="line"/>
      <point x="372" y="0"/>
      <point x="406" y="-12"/>
      <point x="440" y="-12" type="curve" smooth="yes"/>
      <point x="500" y="-12"/>
      <point x="552" y="7"/>
      <point x="603" y="36" type="curve"/>
      <point x="580" y="131" type="line"/>
      <point x="533" y="109"/>
      <point x="482" y="91"/>
      <point x="447" y="91" type="curve" smooth="yes"/>
      <point x="408" y="91"/>
      <point x="394" y="117"/>
    </contour>
    <contour>
      <point x="303" y="252" type="curve"/>
      <point x="275" y="94" type="line"/>
      <point x="275" y="94"/>
      <point x="230" y="90"/>
      <point x="214" y="90" type="curve" smooth="yes"/>
      <point x="123" y="90"/>
      <point x="116" y="123"/>
      <point x="125" y="173" type="curve" smooth="yes"/>
      <point x="136" y="238" type="line" smooth="yes"/>
      <point x="143" y="275"/>
      <point x="169" y="287"/>
      <point x="200" y="287" type="curve" smooth="yes"/>
      <point x="248" y="287"/>
      <point x="292" y="260"/>
    </contour>
    <contour>
      <point x="568" y="323" type="curve" smooth="yes"/>
      <point x="562" y="284" type="line"/>
      <point x="422" y="275" type="line"/>
      <point x="431" y="326" type="line" smooth="yes"/>
      <point x="441" y="380"/>
      <point x="467" y="403"/>
      <point x="516" y="405" type="curve" smooth="yes"/>
      <point x="571" y="405"/>
      <point x="576" y="367"/>
    </contour>
  </outline>
</glyph>
<glyph name="ecircumflex" format="2">
  <advance width="425"/>
  <unicode hex="00EA"/>
  <outline>
    <contour>
      <point x="123" y="148" type="curve" smooth="yes"/>
      <point x="127" y="173" type="line"/>
      <point x="377" y="186" type="line"/>
      <point x="405" y="342" type="line" smooth="yes"/>
      <point x="415" y="402"/>
      <point x="402" y="449"/>
      <point x="369" y="477" type="curve" smooth="yes"/>
      <point x="342" y="498"/>
      <point x="305" y="509"/>
      <point x="258" y="509" type="curve" smooth="yes"/>
      <point x="207" y="509"/>
      <point x="163" y="496"/>
      <point x="128" y="472" type="curve" smooth="yes"/>
      <point x="84" y="442"/>
      <point x="55" y="397"/>
      <point x="44" y="339" type="curve" smooth="yes"/>
      <point x="8" y="134" type="line" smooth="yes"/>
      <point x="-1" y="80"/>
      <point x="12" y="43"/>
      <point x="39" y="20" type="curve" smooth="yes"/>
      <point x="65" y="-3"/>
      <point x="103" y="-13"/>
      <point x="147" y="-13" type="curve" smooth="yes"/>
      <point x="207" y="-13"/>
      <point x="274" y="5"/>
      <point x="327" y="35" type="curve"/>
      <point x="302" y="130" type="line"/>
      <point x="256" y="108"/>
      <point x="204" y="90"/>
      <point x="168" y="90" type="curve" smooth="yes"/>
      <point x="150" y="90"/>
      <point x="136" y="95"/>
      <point x="128" y="106" type="curve"/>
      <point x="122" y="116"/>
      <point x="119" y="129"/>
    </contour>
    <contour>
      <point x="289" y="312" type="curve"/>
      <point x="287" y="305"/>
      <point x="284" y="289"/>
      <point x="283" y="283" type="curve"/>
      <point x="145" y="274" type="line"/>
      <point x="147" y="284"/>
      <point x="150" y="304"/>
      <point x="152" y="313" type="curve"/>
      <point x="157" y="345"/>
      <point x="162" y="367"/>
      <point x="182" y="385" type="curve"/>
      <point x="195" y="395"/>
      <point x="215" y="403"/>
      <point x="239" y="404" type="curve" smooth="yes"/>
      <point x="260" y="404"/>
      <point x="273" y="397"/>
      <point x="281" y="388" type="curve"/>
      <point x="298" y="371"/>
      <point x="295" y="348"/>
    </contour>
    <contour>
      <point x="141" y="599" type="line"/>
      <point x="184" y="549" type="line"/>
      <point x="278" y="631" type="line"/>
      <point x="339" y="549" type="line"/>
      <point x="402" y="602" type="line"/>
      <point x="295" y="728" type="line"/>
    </contour>
  </outline>
</glyph>
<glyph name="igrave" format="2">
  <advance width="209"/>
  <unicode hex="00EC"/>
  <outline>
    <contour>
      <point x="5" y="0" type="line"/>
      <point x="115" y="0" type="line"/>
      <point x="202" y="499" type="line"/>
      <point x="92" y="499" type="line"/>
    </contour>
    <contour>
      <point x="87" y="620" type="curve" smooth="yes"/>
      <point x="133" y="544" type="line"/>
      <point x="177" y="544" type="line"/>
      <point x="167" y="661" type="line"/>
      <point x="163" y="689"/>
      <point x="134" y="705"/>
      <point x="107" y="691" type="curve" smooth="yes"/>
      <point x="75" y="675"/>
      <point x="75" y="640"/>
    </contour>
  </outline>
</glyph>
<glyph name="idieresis" format="2">
  <advance width="307"/>
  <unicode hex="00EF"/>
  <outline>
    <contour>
      <point x="17" y="0" type="line"/>
      <point x="127" y="0" type="line"/>
      <point x="214" y="499" type="line"/>
      <point x="104" y="499" type="line"/>
    </contour>
    <contour>
      <point x="316" y="604" type="curve" smooth="yes"/>
      <point x="322" y="636"/>
      <point x="299" y="663"/>
      <point x="266" y="663" type="curve" smooth="yes"/>
      <point x="233" y="663"/>
      <point x="204" y="636"/>
      <point x="198" y="604" type="curve" smooth="yes"/>
      <point x="192" y="571"/>
      <point x="212" y="543"/>
      <point x="245" y="543" type="curve" smooth="yes"/>
      <point x="278" y="543"/>
      <point x="310" y="571"/>
    </contour>
    <contour>
      <point x="158" y="604" type="curve" smooth="yes"/>
      <point x="164" y="636"/>
      <point x="142" y="663"/>
      <point x="109" y="663" type="curve" smooth="yes"/>
      <point x="76" y="663"/>
      <point x="44" y="636"/>
      <point x="38" y="604" type="curve" smooth="yes"/>
      <point x="32" y="571"/>
      <point x="55" y="543"/>
      <point x="88" y="543" type="curve" smooth="yes"/>
      <point x="121" y="543"/>
      <point x="152" y="571"/>
    </contour>
  </outline>
</glyph>
<glyph name="eth" format="2">
  <advance width="443"/>
  <unicode hex="00F0"/>
  <outline>
    <contour>
      <point x="214" y="630" type="line"/>
      <point x="214" y="630"/>
      <point x="332" y="593"/>
      <point x="312" y="479" type="curve" smooth="yes"/>
      <point x="299" y="408" type="line"/>
      <point x="279" y="423"/>
      <point x="247" y="432"/>
      <point x="214" y="432" type="curve" smooth="yes"/>
      <point x="103" y="432"/>
      <point x="33" y="367"/>
      <point x="12" y="245" type="curve" smooth="yes"/>
      <point x="1" y="186" type="line" smooth="yes"/>
      <point x="-20" y="65"/>
      <point x="33" y="-9"/>
      <point x="148" y="-9" type="curve" smooth="yes"/>
      <point x="269" y="-9"/>
      <point x="348" y="59"/>
      <point x="370" y="186" type="curve" smooth="yes"/>
      <point x="422" y="479" type="line" smooth="yes"/>
      <point x="443" y="599"/>
      <point x="371" y="670"/>
      <point x="253" y="699" type="curve"/>
    </contour>
    <contour>
      <point x="124" y="260" type="line" smooth="yes"/>
      <point x="132" y="305"/>
      <point x="159" y="333"/>
      <point x="202" y="333" type="curve" smooth="yes"/>
      <point x="235" y="333"/>
      <point x="284" y="318"/>
      <point x="277" y="281" type="curve" smooth="yes"/>
      <point x="259" y="180" type="line" smooth="yes"/>
      <point x="250" y="130"/>
      <point x="218" y="101"/>
      <point x="171" y="101" type="curve" smooth="yes"/>
      <point x="123" y="101"/>
      <point x="102" y="132"/>
      <point x="110" y="180" type="curve" smooth="yes"/>
    </contour>
    <contour>
      <point x="443" y="658" type="line"/>
      <point x="402" y="709" type="line"/>
      <point x="191" y="530" type="line"/>
      <point x="233" y="479" type="line"/>
    </contour>
  </outline>
</glyph>
<glyph name="ntilde" format="2">
  <advance width="456"/>
  <unicode hex="00F1"/>
  <outline>
    <contour>
      <point x="318" y="343" type="curve" smooth="yes"/>
      <point x="258" y="0" type="line"/>
      <point x="367" y="0" type="line"/>
      <point x="427" y="345" type="line" smooth="yes"/>
      <point x="450" y="473"/>
      <point x="374" y="509"/>
      <point x="295" y="509" type="curve" smooth="yes"/>
      <point x="254" y="509"/>
      <point x="210" y="488"/>
      <point x="190" y="476" type="curve"/>
      <point x="194" y="499" type="line"/>
      <point x="85" y="499" type="line"/>
      <point x="-2" y="0" type="line"/>
      <point x="107" y="0" type="line"/>
      <point x="175" y="386" type="line"/>
      <point x="211" y="403"/>
      <point x="240" y="410"/>
      <point x="263" y="410" type="curve" smooth="yes"/>
      <point x="305" y="408"/>
      <point x="325" y="380"/>
    </contour>
    <contour>
      <point x="415" y="579" type="curve"/>
      <point x="399" y="639" type="line"/>
      <point x="384" y="628"/>
      <point x="365" y="620"/>
      <point x="350" y="620" type="curve" smooth="yes"/>
      <point x="313" y="620"/>
      <point x="285" y="639"/>
      <point x="252" y="639" type="curve" smooth="yes"/>
      <point x="214" y="639"/>
      <point x="186" y="625"/>
      <point x="157" y="605" type="curve"/>
      <point x="175" y="547" type="line"/>
      <point x="185" y="553"/>
      <point x="200" y="565"/>
      <point x="224" y="565" type="curve" smooth="yes"/>
      <point x="262" y="565"/>
      <point x="291" y="549"/>
      <point x="326" y="549" type="curve" smooth="yes"/>
      <point x="359" y="549"/>
      <point x="390" y="562"/>
    </contour>
  </outline>
</glyph>
<glyph name="oacute" format="2">
  <advance width="434"/>
  <unicode hex="00F3"/>
  <outline>
    <contour>
      <point x="384" y="184" type="curve" smooth="yes"/>
      <point x="407" y="316" type="line" smooth="yes"/>
      <point x="429" y="437"/>
      <point x="375" y="510"/>
      <point x="259" y="510" type="curve" smooth="yes"/>
      <point x="138" y="510"/>
      <point x="60" y="443"/>
      <point x="37" y="316" type="curve" smooth="yes"/>
      <point x="14" y="184" type="line" smooth="yes"/>
      <point x="-4" y="82"/>
      <point x="36" y="-10"/>
      <point x="168" y="-10" type="curve" smooth="yes"/>
      <point x="293" y="-10"/>
      <point x="364" y="71"/>
    </contour>
    <contour>
      <point x="297" y="322" type="curve" smooth="yes"/>
      <point x="272" y="176" type="line" smooth="yes"/>
      <point x="264" y="131"/>
      <point x="236" y="98"/>
      <point x="186" y="98" type="curve" smooth="yes"/>
      <point x="133" y="98"/>
      <point x="117" y="135"/>
      <point x="125" y="176" type="curve" smooth="yes"/>
      <point x="150" y="322" type="line" smooth="yes"/>
      <point x="159" y="373"/>
      <point x="191" y="400"/>
      <point x="239" y="400" type="curve" smooth="yes"/>
      <point x="287" y="400"/>
      <point x="306" y="370"/>
    </contour>
    <contour>
      <point x="286" y="664" type="curve" smooth="yes"/>
      <point x="235" y="549" type="line"/>
      <point x="280" y="549" type="line"/>
      <point x="352" y="624" type="line" smooth="yes"/>
      <point x="375" y="646"/>
      <point x="381" y="680"/>
      <point x="357" y="695" type="curve" smooth="yes"/>
      <point x="334" y="710"/>
      <point x="298" y="691"/>
    </contour>
  </outline>
</glyph>
<glyph name="otilde" format="2">
  <advance width="437"/>
  <unicode hex="00F5"/>
  <outline>
    <contour>
      <point x="385" y="184" type="curve" smooth="yes"/>
      <point x="408" y="316" type="line" smooth="yes"/>
      <point x="430" y="437"/>
      <point x="376" y="510"/>
      <point x="260" y="510" type="curve" smooth="yes"/>
      <point x="139" y="510"/>
      <point x="61" y="443"/>
      <point x="38" y="316" type="curve" smooth="yes"/>
      <point x="15" y="184" type="line" smooth="yes"/>
      <point x="-3" y="82"/>
      <point x="37" y="-10"/>
      <point x="169" y="-10" type="curve" smooth="yes"/>
      <point x="294" y="-10"/>
      <point x="365" y="71"/>
    </contour>
    <contour>
      <point x="298" y="322" type="curve" smooth="yes"/>
      <point x="273" y="176" type="line" smooth="yes"/>
      <point x="265" y="131"/>
      <point x="237" y="98"/>
      <point x="187" y="98" type="curve" smooth="yes"/>
      <point x="134" y="98"/>
      <point x="119" y="135"/>
      <point x="127" y="176" type="curve" smooth="yes"/>
      <point x="152" y="322" type="line" smooth="yes"/>
      <point x="161" y="373"/>
      <point x="192" y="400"/>
      <point x="240" y="400" type="curve" smooth="yes"/>
      <point x="288" y="400"/>
      <point x="307" y="370"/>
    </contour>
    <contour>
      <point x="401" y="579" type="curve"/>
      <point x="386" y="639" type="line"/>
      <point x="370" y="628"/>
      <point x="351" y="620"/>
      <point x="336" y="620" type="curve" smooth="yes"/>
      <point x="297" y="620"/>
      <point x="268" y="640"/>
      <point x="234" y="640" type="curve"/>
      <point x="182" y="637"/>
      <point x="158" y="616"/>
      <point x="143" y="606" type="curve"/>
      <point x="162" y="547" type="line"/>
      <point x="172" y="554"/>
      <point x="186" y="565"/>
      <point x="210" y="565" type="curve" smooth="yes"/>
      <point x="248" y="565"/>
      <point x="277" y="549"/>
      <point x="311" y="549" type="curve" smooth="yes"/>
      <point x="345" y="549"/>
      <point x="376" y="563"/>
    </contour>
  </outline>
</glyph>
<glyph name="divide" format="2">
  <advance width="370"/>
  <unicode hex="00F7"/>
  <outline>
    <contour>
      <point x="20" y="340" type="line"/>
      <point x="340" y="340" type="line"/>
      <point x="356" y="426" type="line"/>
      <point x="36" y="426" type="line"/>
    </contour>
    <contour>
      <point x="222" y="571" type="curve" smooth="yes"/>
      <point x="189" y="571"/>
      <point x="157" y="543"/>
      <point x="152" y="512" type="curve" smooth="yes"/>
      <point x="146" y="479"/>
      <point x="168" y="452"/>
      <point x="201" y="452" type="curve" smooth="yes"/>
      <point x="233" y="452"/>
      <point x="266" y="479"/>
      <point x="272" y="512" type="curve" smooth="yes"/>
      <point x="277" y="543"/>
      <point x="254" y="571"/>
    </contour>
    <contour>
      <point x="177" y="313" type="curve" smooth="yes"/>
      <point x="144" y="313"/>
      <point x="112" y="288"/>
      <point x="106" y="255" type="curve" smooth="yes"/>
      <point x="101" y="222"/>
      <point x="123" y="195"/>
      <point x="156" y="195" type="curve" smooth="yes"/>
      <point x="188" y="195"/>
      <point x="221" y="222"/>
      <point x="226" y="255" type="curve" smooth="yes"/>
      <point x="232" y="288"/>
      <point x="209" y="313"/>
    </contour>
  </outline>
</glyph>
<glyph name="oslash" format="1">
  <advance width="434"/>
  <unicode hex="00F8"/>
  <outline>
    <contour>
      <point x="428" y="512" type="line"/>
      <point x="340" y="512" type="line"/>
      <point x="-2" y="-20" type="line"/>
      <point x="83" y="-20" type="line"/>
    </contour>
    <component base="o"/>
  </outline>
</glyph>
<glyph name="ugrave" format="2">
  <advance width="453"/>
  <unicode hex="00F9"/>
  <outline>
    <contour>
      <point x="254" y="26" type="curve"/>
      <point x="250" y="0" type="line"/>
      <point x="360" y="0" type="line"/>
      <point x="448" y="501" type="line"/>
      <point x="338" y="501" type="line"/>
      <point x="280" y="175" type="line" smooth="yes"/>
      <point x="272" y="129"/>
      <point x="231" y="94"/>
      <point x="186" y="94" type="curve" smooth="yes"/>
      <point x="146" y="94"/>
      <point x="123" y="124"/>
      <point x="130" y="159" type="curve" smooth="yes"/>
      <point x="190" y="501" type="line"/>
      <point x="79" y="501" type="line"/>
      <point x="18" y="157" type="line" smooth="yes"/>
      <point x="-4" y="29"/>
      <point x="71" y="-7"/>
      <point x="150" y="-7" type="curve" smooth="yes"/>
      <point x="191" y="-7"/>
      <point x="240" y="12"/>
    </contour>
    <contour>
      <point x="206" y="620" type="curve"/>
      <point x="250" y="543" type="line"/>
      <point x="294" y="543" type="line"/>
      <point x="286" y="660" type="line"/>
      <point x="279" y="686"/>
      <point x="254" y="706"/>
      <point x="225" y="691" type="curve" smooth="yes"/>
      <point x="194" y="675"/>
      <point x="192" y="639"/>
    </contour>
  </outline>
</glyph>
<glyph name="ucircumflex" format="2">
  <advance width="454"/>
  <unicode hex="00FB"/>
  <outline>
    <contour>
      <point x="254" y="26" type="curve"/>
      <point x="250" y="0" type="line"/>
      <point x="360" y="0" type="line"/>
      <point x="448" y="501" type="line"/>
      <point x="338" y="501" type="line"/>
      <point x="280" y="175" type="line" smooth="yes"/>
      <point x="272" y="129"/>
      <point x="231" y="94"/>
      <point x="186" y="94" type="curve" smooth="yes"/>
      <point x="146" y="94"/>
      <point x="123" y="124"/>
      <point x="130" y="159" type="curve" smooth="yes"/>
      <point x="190" y="501" type="line"/>
      <point x="79" y="501" type="line"/>
      <point x="18" y="157" type="line" smooth="yes"/>
      <point x="-4" y="29"/>
      <point x="71" y="-7"/>
      <point x="150" y="-7" type="curve" smooth="yes"/>
      <point x="191" y="-7"/>
      <point x="240" y="12"/>
    </contour>
    <contour>
      <point x="151" y="596" type="line"/>
      <point x="193" y="543" type="line"/>
      <point x="289" y="626" type="line"/>
      <point x="348" y="544" type="line"/>
      <point x="411" y="597" type="line"/>
      <point x="306" y="723" type="line"/>
    </contour>
  </outline>
</glyph>
<glyph name="udieresis" format="2">
  <advance width="455"/>
  <unicode hex="00FC"/>
  <outline>
    <contour>
      <point x="254" y="26" type="curve"/>
      <point x="250" y="0" type="line"/>
      <point x="360" y="0" type="line"/>
      <point x="448" y="501" type="line"/>
      <point x="338" y="501" type="line"/>
      <point x="280" y="175" type="line" smooth="yes"/>
      <point x="272" y="129"/>
      <point x="231" y="94"/>
      <point x="186" y="94" type="curve" smooth="yes"/>
      <point x="146" y="94"/>
      <point x="123" y="124"/>
      <point x="130" y="159" type="curve" smooth="yes"/>
      <point x="190" y="501" type="line"/>
      <point x="80" y="501" type="line"/>
      <point x="19" y="157" type="line" smooth="yes"/>
      <point x="-3" y="29"/>
      <point x="71" y="-7"/>
      <point x="150" y="-7" type="curve" smooth="yes"/>
      <point x="191" y="-7"/>
      <point x="240" y="12"/>
    </contour>
    <contour>
      <point x="372" y="663" type="curve" smooth="yes"/>
      <point x="339" y="663"/>
      <point x="308" y="636"/>
      <point x="302" y="603" type="curve" smooth="yes"/>
      <point x="296" y="570"/>
      <point x="318" y="543"/>
      <point x="351" y="543" type="curve" smooth="yes"/>
      <point x="384" y="543"/>
      <point x="416" y="570"/>
      <point x="422" y="603" type="curve" smooth="yes"/>
      <point x="428" y="636"/>
      <point x="405" y="663"/>
    </contour>
    <contour>
      <point x="213" y="663" type="curve" smooth="yes"/>
      <point x="180" y="663"/>
      <point x="150" y="636"/>
      <point x="144" y="603" type="curve" smooth="yes"/>
      <point x="138" y="570"/>
      <point x="159" y="543"/>
      <point x="192" y="543" type="curve" smooth="yes"/>
      <point x="225" y="543"/>
      <point x="258" y="570"/>
      <point x="264" y="603" type="curve" smooth="yes"/>
      <point x="270" y="636"/>
      <point x="246" y="663"/>
    </contour>
  </outline>
</glyph>
<glyph name="ydieresis" format="2">
  <advance width="488"/>
  <unicode hex="00FF"/>
  <outline>
    <contour>
      <point x="484" y="433" type="curve"/>
      <point x="463" y="510" type="line"/>
      <point x="373" y="510"/>
      <point x="329" y="448"/>
      <point x="320" y="392" type="curve" smooth="yes"/>
      <point x="282" y="176" type="line" smooth="yes"/>
      <point x="273" y="129"/>
      <point x="228" y="94"/>
      <point x="185" y="94" type="curve" smooth="yes"/>
      <point x="142" y="95"/>
      <point x="123" y="124"/>
      <point x="130" y="161" type="curve" smooth="yes"/>
      <point x="190" y="501" type="line"/>
      <point x="79" y="501" type="line"/>
      <point x="18" y="158" type="line" smooth="yes"/>
      <point x="-4" y="30"/>
      <point x="71" y="-6"/>
      <point x="150" y="-6" type="curve" smooth="yes"/>
      <point x="191" y="-6"/>
      <point x="241" y="13"/>
      <point x="255" y="28" type="curve"/>
      <point x="242" y="-48" type="line" smooth="yes"/>
      <point x="238" y="-72"/>
      <point x="228" y="-89"/>
      <point x="213" y="-101" type="curve" smooth="yes"/>
      <point x="196" y="-114"/>
      <point x="176" y="-124"/>
      <point x="159" y="-124" type="curve"/>
      <point x="172" y="-213" type="line"/>
      <point x="205" y="-213"/>
      <point x="250" y="-199"/>
      <point x="282" y="-179" type="curve" smooth="yes"/>
      <point x="318" y="-157"/>
      <point x="340" y="-116"/>
      <point x="350" y="-59" type="curve" smooth="yes"/>
      <point x="424" y="362" type="line" smooth="yes"/>
      <point x="430" y="395"/>
      <point x="444" y="425"/>
    </contour>
    <contour>
      <point x="385" y="663" type="curve" smooth="yes"/>
      <point x="352" y="663"/>
      <point x="320" y="636"/>
      <point x="314" y="603" type="curve" smooth="yes"/>
      <point x="308" y="570"/>
      <point x="331" y="543"/>
      <point x="364" y="543" type="curve" smooth="yes"/>
      <point x="397" y="543"/>
      <point x="428" y="570"/>
      <point x="434" y="603" type="curve" smooth="yes"/>
      <point x="440" y="636"/>
      <point x="418" y="663"/>
    </contour>
    <contour>
      <point x="226" y="663" type="curve" smooth="yes"/>
      <point x="193" y="663"/>
      <point x="163" y="636"/>
      <point x="157" y="603" type="curve" smooth="yes"/>
      <point x="151" y="570"/>
      <point x="172" y="543"/>
      <point x="205" y="543" type="curve" smooth="yes"/>
      <point x="238" y="543"/>
      <point x="270" y="570"/>
      <point x="276" y="603" type="curve" smooth="yes"/>
      <point x="282" y="636"/>
      <point x="259" y="663"/>
    </contour>
  </outline>
</glyph>
<glyph name="Amacron" format="2">
  <advance width="521"/>
  <unicode hex="0100"/>
  <outline>
    <contour>
      <point x="484" y="0" type="line"/>
      <point x="435" y="698" type="line"/>
      <point x="280" y="698" type="line"/>
      <point x="-12" y="0" type="line"/>
      <point x="112" y="0" type="line"/>
      <point x="184" y="183" type="line"/>
      <point x="345" y="183" type="line"/>
      <point x="353" y="0" type="line"/>
    </contour>
    <contour>
      <point x="231" y="300" type="line"/>
      <point x="323" y="515" type="line"/>
      <point x="340" y="300" type="line"/>
    </contour>
    <contour>
      <point x="260" y="743" type="line"/>
      <point x="479" y="743" type="line"/>
      <point x="494" y="833" type="line"/>
      <point x="275" y="833" type="line"/>
    </contour>
  </outline>
</glyph>
<glyph name="amacron" format="2">
  <advance width="450"/>
  <unicode hex="0101"/>
  <outline>
    <contour>
      <point x="316" y="334" type="curve"/>
      <point x="293" y="378"/>
      <point x="235" y="400"/>
      <point x="188" y="400" type="curve" smooth="yes"/>
      <point x="115" y="400"/>
      <point x="45" y="354"/>
      <point x="27" y="252" type="curve"/>
      <point x="27" y="252"/>
      <point x="10" y="155"/>
      <point x="10" y="155" type="curve"/>
      <point x="-7" y="28"/>
      <point x="74" y="-11"/>
      <point x="186" y="-11" type="curve" smooth="yes"/>
      <point x="253" y="-11"/>
      <point x="311" y="-8"/>
      <point x="368" y="0" type="curve"/>
      <point x="368" y="0"/>
      <point x="402" y="194"/>
      <point x="421" y="306" type="curve" smooth="yes"/>
      <point x="438" y="398"/>
      <point x="422" y="442"/>
      <point x="402" y="464" type="curve" smooth="yes"/>
      <point x="365" y="504"/>
      <point x="302" y="508"/>
      <point x="249" y="508" type="curve"/>
      <point x="228" y="433" type="line"/>
      <point x="269" y="433"/>
      <point x="296" y="422"/>
      <point x="312" y="406" type="curve" smooth="yes"/>
      <point x="322" y="395"/>
      <point x="324" y="377"/>
    </contour>
    <contour>
      <point x="302" y="252" type="curve"/>
      <point x="302" y="252"/>
      <point x="274" y="94"/>
      <point x="274" y="94" type="curve"/>
      <point x="274" y="94"/>
      <point x="229" y="90"/>
      <point x="213" y="90" type="curve" smooth="yes"/>
      <point x="122" y="90"/>
      <point x="115" y="123"/>
      <point x="124" y="173" type="curve" smooth="yes"/>
      <point x="127" y="190"/>
      <point x="132" y="218"/>
      <point x="135" y="238" type="curve" smooth="yes"/>
      <point x="142" y="275"/>
      <point x="168" y="287"/>
      <point x="199" y="287" type="curve" smooth="yes"/>
      <point x="247" y="287"/>
      <point x="291" y="260"/>
    </contour>
    <contour>
      <point x="163" y="551" type="line"/>
      <point x="383" y="551" type="line"/>
      <point x="399" y="642" type="line"/>
      <point x="179" y="642" type="line"/>
    </contour>
  </outline>
</glyph>
<glyph name="Abreve" format="2">
  <advance width="522"/>
  <unicode hex="0102"/>
  <outline>
    <contour>
      <point x="484" y="0" type="line"/>
      <point x="435" y="698" type="line"/>
      <point x="280" y="698" type="line"/>
      <point x="-12" y="0" type="line"/>
      <point x="112" y="0" type="line"/>
      <point x="184" y="183" type="line"/>
      <point x="345" y="183" type="line"/>
      <point x="353" y="0" type="line"/>
    </contour>
    <contour>
      <point x="231" y="300" type="line"/>
      <point x="323" y="515" type="line"/>
      <point x="340" y="300" type="line"/>
    </contour>
    <contour>
      <point x="349" y="856" type="curve" smooth="yes"/>
      <point x="350" y="861" type="line"/>
      <point x="270" y="861" type="line"/>
      <point x="269" y="856" type="line" smooth="yes"/>
      <point x="258" y="793"/>
      <point x="300" y="741"/>
      <point x="362" y="741" type="curve" smooth="yes"/>
      <point x="425" y="741"/>
      <point x="485" y="793"/>
      <point x="496" y="856" type="curve" smooth="yes"/>
      <point x="497" y="861" type="line"/>
      <point x="417" y="861" type="line"/>
      <point x="416" y="856" type="line" smooth="yes"/>
      <point x="413" y="837"/>
      <point x="395" y="822"/>
      <point x="377" y="822" type="curve" smooth="yes"/>
      <point x="358" y="822"/>
      <point x="346" y="837"/>
    </contour>
  </outline>
</glyph>
<glyph name="Aogonek" format="2">
  <advance width="532"/>
  <unicode hex="0104"/>
  <outline>
    <contour>
      <point x="484" y="0" type="line"/>
      <point x="435" y="698" type="line"/>
      <point x="280" y="698" type="line"/>
      <point x="-12" y="0" type="line"/>
      <point x="112" y="0" type="line"/>
      <point x="184" y="183" type="line"/>
      <point x="344" y="183" type="line"/>
      <point x="353" y="0" type="line"/>
    </contour>
    <contour>
      <point x="231" y="300" type="line"/>
      <point x="323" y="515" type="line"/>
      <point x="340" y="300" type="line"/>
    </contour>
    <contour>
      <point x="371" y="-127" type="curve"/>
      <point x="474" y="-2" type="line"/>
      <point x="476" y="11" type="line"/>
      <point x="386" y="2" type="line"/>
      <point x="385" y="-2" type="line"/>
      <point x="314" y="-91" type="line" smooth="yes"/>
      <point x="246" y="-183"/>
      <point x="309" y="-253"/>
      <point x="401" y="-229" type="curve" smooth="yes"/>
      <point x="423" y="-223"/>
      <point x="509" y="-195"/>
      <point x="510" y="-194" type="curve"/>
      <point x="499" y="-123" type="line"/>
      <point x="499" y="-123"/>
      <point x="418" y="-149"/>
      <point x="390" y="-158" type="curve" smooth="yes"/>
      <point x="362" y="-168"/>
      <point x="357" y="-147"/>
    </contour>
  </outline>
</glyph>
<glyph name="Cacute" format="2">
  <advance width="436"/>
  <unicode hex="0106"/>
  <outline>
    <contour>
      <point x="392" y="582" type="curve"/>
      <point x="439" y="675" type="line"/>
      <point x="396" y="698"/>
      <point x="349" y="710"/>
      <point x="301" y="710" type="curve" smooth="yes"/>
      <point x="252" y="710"/>
      <point x="202" y="697"/>
      <point x="162" y="664" type="curve" smooth="yes"/>
      <point x="120" y="632"/>
      <point x="86" y="581"/>
      <point x="72" y="503" type="curve" smooth="yes"/>
      <point x="16" y="183" type="line" smooth="yes"/>
      <point x="3" y="113"/>
      <point x="18" y="64"/>
      <point x="48" y="32" type="curve" smooth="yes"/>
      <point x="78" y="2"/>
      <point x="124" y="-12"/>
      <point x="178" y="-12" type="curve" smooth="yes"/>
      <point x="230" y="-11"/>
      <point x="287" y="1"/>
      <point x="348" y="23" type="curve"/>
      <point x="350" y="127" type="line"/>
      <point x="338" y="127"/>
      <point x="265" y="100"/>
      <point x="204" y="100" type="curve" smooth="yes"/>
      <point x="176" y="100"/>
      <point x="152" y="105"/>
      <point x="139" y="120" type="curve"/>
      <point x="125" y="133"/>
      <point x="121" y="154"/>
      <point x="126" y="185" type="curve" smooth="yes"/>
      <point x="184" y="512" type="line" smooth="yes"/>
      <point x="189" y="542"/>
      <point x="200" y="563"/>
      <point x="220" y="577" type="curve"/>
      <point x="239" y="592"/>
      <point x="266" y="599"/>
      <point x="301" y="599" type="curve" smooth="yes"/>
      <point x="331" y="599"/>
      <point x="367" y="592"/>
    </contour>
    <contour>
      <point x="337" y="859" type="curve" smooth="yes"/>
      <point x="286" y="743" type="line"/>
      <point x="330" y="743" type="line"/>
      <point x="403" y="817" type="line" smooth="yes"/>
      <point x="424" y="840"/>
      <point x="431" y="875"/>
      <point x="407" y="889" type="curve" smooth="yes"/>
      <point x="383" y="904"/>
      <point x="350" y="886"/>
    </contour>
  </outline>
</glyph>
<glyph name="ccircumflex" format="2">
  <advance width="410"/>
  <unicode hex="0109"/>
  <outline>
    <contour>
      <point x="348" y="392" type="curve"/>
      <point x="388" y="477" type="line"/>
      <point x="334" y="503"/>
      <point x="273" y="518"/>
      <point x="212" y="505" type="curve" smooth="yes"/>
      <point x="165" y="495"/>
      <point x="121" y="471"/>
      <point x="88" y="427" type="curve" smooth="yes"/>
      <point x="62" y="395"/>
      <point x="50" y="363"/>
      <point x="40" y="319" type="curve" smooth="yes"/>
      <point x="14" y="173" type="line" smooth="yes"/>
      <point x="-3" y="75"/>
      <point x="32" y="23"/>
      <point x="97" y="1" type="curve" smooth="yes"/>
      <point x="163" y="-20"/>
      <point x="239" y="-12"/>
      <point x="307" y="5" type="curve"/>
      <point x="303" y="94" type="line"/>
      <point x="303" y="94"/>
      <point x="255" y="84"/>
      <point x="211" y="84" type="curve" smooth="yes"/>
      <point x="150" y="84"/>
      <point x="112" y="113"/>
      <point x="123" y="174" type="curve" smooth="yes"/>
      <point x="151" y="331" type="line" smooth="yes"/>
      <point x="154" y="351"/>
      <point x="163" y="367"/>
      <point x="173" y="380" type="curve" smooth="yes"/>
      <point x="188" y="398"/>
      <point x="211" y="409"/>
      <point x="235" y="413" type="curve" smooth="yes"/>
      <point x="275" y="420"/>
      <point x="316" y="408"/>
    </contour>
    <contour>
      <point x="153" y="599" type="line"/>
      <point x="197" y="548" type="line"/>
      <point x="291" y="630" type="line"/>
      <point x="352" y="549" type="line"/>
      <point x="414" y="601" type="line"/>
      <point x="308" y="727" type="line"/>
    </contour>
  </outline>
</glyph>
<glyph name="Ccaron" format="2">
  <advance width="441"/>
  <unicode hex="010C"/>
  <outline>
    <contour>
      <point x="392" y="582" type="curve"/>
      <point x="439" y="675" type="line"/>
      <point x="396" y="698"/>
      <point x="349" y="710"/>
      <point x="301" y="710" type="curve" smooth="yes"/>
      <point x="252" y="710"/>
      <point x="202" y="697"/>
      <point x="162" y="664" type="curve" smooth="yes"/>
      <point x="120" y="632"/>
      <point x="86" y="581"/>
      <point x="72" y="503" type="curve" smooth="yes"/>
      <point x="16" y="183" type="line" smooth="yes"/>
      <point x="3" y="113"/>
      <point x="18" y="64"/>
      <point x="48" y="32" type="curve" smooth="yes"/>
      <point x="78" y="2"/>
      <point x="124" y="-12"/>
      <point x="178" y="-12" type="curve" smooth="yes"/>
      <point x="230" y="-11"/>
      <point x="287" y="1"/>
      <point x="348" y="23" type="curve"/>
      <point x="350" y="127" type="line"/>
      <point x="338" y="127"/>
      <point x="265" y="100"/>
      <point x="204" y="100" type="curve" smooth="yes"/>
      <point x="176" y="100"/>
      <point x="152" y="105"/>
      <point x="139" y="120" type="curve"/>
      <point x="125" y="133"/>
      <point x="121" y="154"/>
      <point x="126" y="185" type="curve" smooth="yes"/>
      <point x="184" y="512" type="line" smooth="yes"/>
      <point x="189" y="542"/>
      <point x="200" y="563"/>
      <point x="220" y="577" type="curve"/>
      <point x="239" y="592"/>
      <point x="266" y="599"/>
      <point x="301" y="599" type="curve" smooth="yes"/>
      <point x="331" y="599"/>
      <point x="367" y="592"/>
    </contour>
    <contour>
      <point x="310" y="838" type="line"/>
      <point x="250" y="919" type="line"/>
      <point x="186" y="866" type="line"/>
      <point x="293" y="740" type="line"/>
      <point x="448" y="868" type="line"/>
      <point x="404" y="920" type="line"/>
    </contour>
  </outline>
</glyph>
<glyph name="Dcaron" format="2">
  <advance width="523"/>
  <unicode hex="010E"/>
  <outline>
    <contour>
      <point x="311" y="700" type="curve" smooth="yes"/>
      <point x="123" y="700" type="line"/>
      <point x="0" y="0" type="line"/>
      <point x="208" y="0" type="line" smooth="yes"/>
      <point x="349" y="0"/>
      <point x="433" y="74"/>
      <point x="456" y="206" type="curve" smooth="yes"/>
      <point x="503" y="473" type="line" smooth="yes"/>
      <point x="527" y="609"/>
      <point x="462" y="700"/>
    </contour>
    <contour>
      <point x="210" y="101" type="curve" smooth="yes"/>
      <point x="127" y="101" type="line"/>
      <point x="213" y="588" type="line"/>
      <point x="301" y="588" type="line" smooth="yes"/>
      <point x="377" y="588"/>
      <point x="407" y="555"/>
      <point x="395" y="483" type="curve" smooth="yes"/>
      <point x="344" y="196" type="line" smooth="yes"/>
      <point x="337" y="156"/>
      <point x="321" y="101"/>
    </contour>
    <contour>
      <point x="323" y="840" type="line"/>
      <point x="262" y="923" type="line"/>
      <point x="200" y="870" type="line"/>
      <point x="306" y="744" type="line"/>
      <point x="460" y="872" type="line"/>
      <point x="416" y="923" type="line"/>
    </contour>
  </outline>
</glyph>
<glyph name="dcaron" format="2">
  <advance width="608"/>
  <unicode hex="010F"/>
  <outline>
    <contour>
      <point x="371" y="0" type="curve"/>
      <point x="494" y="698" type="line"/>
      <point x="384" y="698" type="line"/>
      <point x="345" y="482" type="line"/>
      <point x="306" y="501"/>
      <point x="269" y="508"/>
      <point x="224" y="508" type="curve" smooth="yes"/>
      <point x="150" y="508"/>
      <point x="67" y="461"/>
      <point x="49" y="359" type="curve"/>
      <point x="49" y="359"/>
      <point x="13" y="156"/>
      <point x="13" y="155" type="curve"/>
      <point x="-4" y="25"/>
      <point x="79" y="-11"/>
      <point x="192" y="-11" type="curve" smooth="yes"/>
      <point x="257" y="-11"/>
      <point x="315" y="-8"/>
    </contour>
    <contour>
      <point x="326" y="370" type="curve"/>
      <point x="326" y="370"/>
      <point x="277" y="94"/>
      <point x="277" y="94" type="curve"/>
      <point x="277" y="94"/>
      <point x="233" y="91"/>
      <point x="217" y="91" type="curve" smooth="yes"/>
      <point x="127" y="91"/>
      <point x="118" y="123"/>
      <point x="127" y="174" type="curve" smooth="yes"/>
      <point x="131" y="193"/>
      <point x="154" y="324"/>
      <point x="157" y="345" type="curve" smooth="yes"/>
      <point x="164" y="382"/>
      <point x="205" y="394"/>
      <point x="236" y="394" type="curve" smooth="yes"/>
      <point x="281" y="394"/>
      <point x="315" y="377"/>
    </contour>
    <contour>
      <point x="509" y="536" type="curve"/>
      <point x="532" y="520" type="line"/>
      <point x="532" y="520"/>
      <point x="607" y="562"/>
      <point x="622" y="652" type="curve" smooth="yes"/>
      <point x="628" y="685"/>
      <point x="606" y="712"/>
      <point x="573" y="712" type="curve" smooth="yes"/>
      <point x="540" y="712"/>
      <point x="508" y="685"/>
      <point x="502" y="652" type="curve" smooth="yes"/>
      <point x="498" y="624"/>
      <point x="513" y="601"/>
      <point x="537" y="595" type="curve"/>
      <point x="532" y="575"/>
      <point x="522" y="554"/>
    </contour>
  </outline>
</glyph>
<glyph name="Edotaccent" format="2">
  <advance width="446"/>
  <unicode hex="0116"/>
  <outline>
    <contour>
      <point x="0" y="0" type="line"/>
      <point x="332" y="0" type="line"/>
      <point x="349" y="100" type="line"/>
      <point x="127" y="100" type="line"/>
      <point x="164" y="308" type="line"/>
      <point x="270" y="308" type="line"/>
      <point x="319" y="413" type="line"/>
      <point x="182" y="413" type="line"/>
      <point x="213" y="588" type="line"/>
      <point x="437" y="588" type="line"/>
      <point x="457" y="698" type="line"/>
      <point x="123" y="698" type="line"/>
    </contour>
    <contour>
      <point x="330" y="862" type="curve" smooth="yes"/>
      <point x="297" y="862"/>
      <point x="266" y="837"/>
      <point x="260" y="804" type="curve" smooth="yes"/>
      <point x="254" y="771"/>
      <point x="277" y="744"/>
      <point x="310" y="744" type="curve" smooth="yes"/>
      <point x="343" y="744"/>
      <point x="373" y="771"/>
      <point x="379" y="804" type="curve" smooth="yes"/>
      <point x="385" y="837"/>
      <point x="363" y="862"/>
    </contour>
  </outline>
</glyph>
<glyph name="Eogonek" format="2">
  <advance width="448"/>
  <unicode hex="0118"/>
  <outline>
    <contour>
      <point x="0" y="0" type="line"/>
      <point x="332" y="0" type="line"/>
      <point x="349" y="100" type="line"/>
      <point x="127" y="100" type="line"/>
      <point x="164" y="308" type="line"/>
      <point x="270" y="308" type="line"/>
      <point x="319" y="413" type="line"/>
      <point x="182" y="413" type="line"/>
      <point x="213" y="588" type="line"/>
      <point x="437" y="588" type="line"/>
      <point x="457" y="698" type="line"/>
      <point x="123" y="698" type="line"/>
    </contour>
    <contour>
      <point x="224" y="-128" type="curve" smooth="yes"/>
      <point x="327" y="-3" type="line"/>
      <point x="329" y="10" type="line"/>
      <point x="239" y="1" type="line"/>
      <point x="238" y="-2" type="line"/>
      <point x="168" y="-92" type="line" smooth="yes"/>
      <point x="102" y="-180"/>
      <point x="158" y="-257"/>
      <point x="254" y="-230" type="curve" smooth="yes"/>
      <point x="277" y="-224"/>
      <point x="363" y="-196"/>
      <point x="365" y="-195" type="curve"/>
      <point x="353" y="-124" type="line"/>
      <point x="353" y="-124"/>
      <point x="273" y="-150"/>
      <point x="243" y="-160" type="curve" smooth="yes"/>
      <point x="220" y="-168"/>
      <point x="207" y="-149"/>
    </contour>
  </outline>
</glyph>
<glyph name="gcircumflex" format="2">
  <advance width="451"/>
  <unicode hex="011D"/>
  <outline>
    <contour>
      <point x="345" y="-64" type="curve" smooth="yes"/>
      <point x="444" y="499" type="line"/>
      <point x="334" y="499" type="line"/>
      <point x="331" y="477" type="line"/>
      <point x="303" y="498"/>
      <point x="271" y="509"/>
      <point x="235" y="509" type="curve" smooth="yes"/>
      <point x="132" y="509"/>
      <point x="65" y="446"/>
      <point x="47" y="345" type="curve" smooth="yes"/>
      <point x="18" y="176" type="line" smooth="yes"/>
      <point x="-4" y="53"/>
      <point x="44" y="-12"/>
      <point x="155" y="-12" type="curve" smooth="yes"/>
      <point x="188" y="-12"/>
      <point x="223" y="-3"/>
      <point x="249" y="12" type="curve"/>
      <point x="237" y="-53" type="line" smooth="yes"/>
      <point x="228" y="-106"/>
      <point x="187" y="-124"/>
      <point x="154" y="-124" type="curve"/>
      <point x="164" y="-210" type="line"/>
      <point x="260" y="-210"/>
      <point x="327" y="-169"/>
    </contour>
    <contour>
      <point x="315" y="386" type="curve"/>
      <point x="271" y="139" type="line" smooth="yes"/>
      <point x="267" y="116"/>
      <point x="238" y="92"/>
      <point x="182" y="88" type="curve"/>
      <point x="134" y="88"/>
      <point x="118" y="120"/>
      <point x="125" y="159" type="curve" smooth="yes"/>
      <point x="156" y="337" type="line" smooth="yes"/>
      <point x="166" y="393"/>
      <point x="206" y="410"/>
      <point x="243" y="410" type="curve" smooth="yes"/>
      <point x="277" y="410"/>
      <point x="315" y="386"/>
    </contour>
    <contour>
      <point x="155" y="599" type="line"/>
      <point x="199" y="549" type="line"/>
      <point x="293" y="631" type="line"/>
      <point x="353" y="549" type="line"/>
      <point x="417" y="602" type="line"/>
      <point x="310" y="728" type="line"/>
    </contour>
  </outline>
</glyph>
<glyph name="gbreve" format="2">
  <advance width="449"/>
  <unicode hex="011F"/>
  <outline>
    <contour>
      <point x="344" y="-64" type="curve" smooth="yes"/>
      <point x="443" y="499" type="line"/>
      <point x="333" y="499" type="line"/>
      <point x="330" y="477" type="line"/>
      <point x="302" y="498"/>
      <point x="270" y="509"/>
      <point x="234" y="509" type="curve" smooth="yes"/>
      <point x="131" y="509"/>
      <point x="64" y="446"/>
      <point x="46" y="345" type="curve" smooth="yes"/>
      <point x="17" y="176" type="line" smooth="yes"/>
      <point x="-5" y="53"/>
      <point x="43" y="-12"/>
      <point x="154" y="-12" type="curve" smooth="yes"/>
      <point x="187" y="-12"/>
      <point x="222" y="-3"/>
      <point x="248" y="12" type="curve"/>
      <point x="236" y="-53" type="line" smooth="yes"/>
      <point x="227" y="-106"/>
      <point x="185" y="-124"/>
      <point x="152" y="-124" type="curve"/>
      <point x="163" y="-210" type="line"/>
      <point x="258" y="-210"/>
      <point x="326" y="-169"/>
    </contour>
    <contour>
      <point x="314" y="386" type="curve"/>
      <point x="270" y="139" type="line" smooth="yes"/>
      <point x="266" y="116"/>
      <point x="237" y="92"/>
      <point x="181" y="88" type="curve"/>
      <point x="133" y="88"/>
      <point x="117" y="120"/>
      <point x="124" y="159" type="curve" smooth="yes"/>
      <point x="155" y="337" type="line" smooth="yes"/>
      <point x="165" y="393"/>
      <point x="205" y="410"/>
      <point x="242" y="410" type="curve" smooth="yes"/>
      <point x="276" y="410"/>
      <point x="314" y="386"/>
    </contour>
    <contour>
      <point x="401" y="662" type="curve" smooth="yes"/>
      <point x="402" y="669" type="line"/>
      <point x="322" y="669" type="line"/>
      <point x="321" y="662" type="line" smooth="yes"/>
      <point x="318" y="642"/>
      <point x="300" y="628"/>
      <point x="282" y="628" type="curve" smooth="yes"/>
      <point x="264" y="628"/>
      <point x="251" y="642"/>
      <point x="254" y="662" type="curve" smooth="yes"/>
      <point x="255" y="669" type="line"/>
      <point x="176" y="669" type="line"/>
      <point x="175" y="662" type="line" smooth="yes"/>
      <point x="164" y="598"/>
      <point x="205" y="549"/>
      <point x="267" y="549" type="curve" smooth="yes"/>
      <point x="330" y="549"/>
      <point x="390" y="598"/>
    </contour>
  </outline>
</glyph>
<glyph name="Gdotaccent" format="2">
  <advance width="464"/>
  <unicode hex="0120"/>
  <outline>
    <contour>
      <point x="387" y="576" type="curve"/>
      <point x="438" y="675" type="line"/>
      <point x="402" y="695"/>
      <point x="361" y="706"/>
      <point x="313" y="708" type="curve" smooth="yes"/>
      <point x="259" y="708"/>
      <point x="223" y="700"/>
      <point x="190" y="683" type="curve" smooth="yes"/>
      <point x="126" y="648"/>
      <point x="86" y="587"/>
      <point x="71" y="502" type="curve" smooth="yes"/>
      <point x="16" y="189" type="line" smooth="yes"/>
      <point x="4" y="123"/>
      <point x="14" y="73"/>
      <point x="51" y="40" type="curve" smooth="yes"/>
      <point x="86" y="7"/>
      <point x="132" y="-10"/>
      <point x="192" y="-10" type="curve" smooth="yes"/>
      <point x="217" y="-10"/>
      <point x="248" y="-4"/>
      <point x="285" y="8" type="curve"/>
      <point x="289" y="0" type="line"/>
      <point x="394" y="0" type="line"/>
      <point x="446" y="300" type="line"/>
      <point x="244" y="300" type="line"/>
      <point x="261" y="195" type="line"/>
      <point x="318" y="195" type="line"/>
      <point x="316" y="186" type="line"/>
      <point x="312" y="159"/>
      <point x="300" y="139"/>
      <point x="286" y="125" type="curve"/>
      <point x="268" y="109"/>
      <point x="242" y="101"/>
      <point x="210" y="101" type="curve" smooth="yes"/>
      <point x="145" y="101"/>
      <point x="114" y="123"/>
      <point x="125" y="187" type="curve" smooth="yes"/>
      <point x="182" y="510" type="line" smooth="yes"/>
      <point x="189" y="546"/>
      <point x="205" y="568"/>
      <point x="228" y="580" type="curve" smooth="yes"/>
      <point x="247" y="590"/>
      <point x="270" y="594"/>
      <point x="299" y="594" type="curve" smooth="yes"/>
      <point x="327" y="594"/>
      <point x="357" y="587"/>
    </contour>
    <contour>
      <point x="339" y="861" type="curve" smooth="yes"/>
      <point x="307" y="861"/>
      <point x="276" y="834"/>
      <point x="270" y="801" type="curve" smooth="yes"/>
      <point x="264" y="768"/>
      <point x="286" y="741"/>
      <point x="318" y="741" type="curve" smooth="yes"/>
      <point x="351" y="741"/>
      <point x="383" y="768"/>
      <point x="389" y="801" type="curve" smooth="yes"/>
      <point x="395" y="834"/>
      <point x="372" y="861"/>
    </contour>
  </outline>
</glyph>
<glyph name="gdotaccent" format="2">
  <advance width="448"/>
  <unicode hex="0121"/>
  <outline>
    <contour>
      <point x="344" y="-64" type="curve" smooth="yes"/>
      <point x="443" y="499" type="line"/>
      <point x="333" y="499" type="line"/>
      <point x="330" y="477" type="line"/>
      <point x="302" y="498"/>
      <point x="270" y="509"/>
      <point x="234" y="509" type="curve" smooth="yes"/>
      <point x="131" y="509"/>
      <point x="64" y="446"/>
      <point x="46" y="345" type="curve" smooth="yes"/>
      <point x="17" y="176" type="line" smooth="yes"/>
      <point x="-5" y="53"/>
      <point x="43" y="-12"/>
      <point x="154" y="-12" type="curve" smooth="yes"/>
      <point x="187" y="-12"/>
      <point x="222" y="-3"/>
      <point x="248" y="12" type="curve"/>
      <point x="236" y="-53" type="line" smooth="yes"/>
      <point x="227" y="-106"/>
      <point x="185" y="-124"/>
      <point x="152" y="-124" type="curve"/>
      <point x="163" y="-210" type="line"/>
      <point x="258" y="-210"/>
      <point x="326" y="-169"/>
    </contour>
    <contour>
      <point x="314" y="386" type="curve"/>
      <point x="270" y="139" type="line" smooth="yes"/>
      <point x="266" y="116"/>
      <point x="237" y="92"/>
      <point x="181" y="88" type="curve"/>
      <point x="133" y="88"/>
      <point x="117" y="120"/>
      <point x="124" y="159" type="curve" smooth="yes"/>
      <point x="155" y="337" type="line" smooth="yes"/>
      <point x="165" y="393"/>
      <point x="205" y="410"/>
      <point x="242" y="410" type="curve" smooth="yes"/>
      <point x="276" y="410"/>
      <point x="314" y="386"/>
    </contour>
    <contour>
      <point x="288" y="664" type="curve" smooth="yes"/>
      <point x="255" y="664"/>
      <point x="224" y="638"/>
      <point x="218" y="605" type="curve" smooth="yes"/>
      <point x="212" y="572"/>
      <point x="234" y="546"/>
      <point x="267" y="546" type="curve" smooth="yes"/>
      <point x="300" y="546"/>
      <point x="332" y="572"/>
      <point x="338" y="605" type="curve" smooth="yes"/>
      <point x="344" y="638"/>
      <point x="321" y="664"/>
    </contour>
  </outline>
</glyph>
<glyph name="Gcommaaccent" format="2">
  <advance width="465"/>
  <unicode hex="0122"/>
  <outline>
    <contour>
      <point x="387" y="576" type="curve"/>
      <point x="438" y="675" type="line"/>
      <point x="402" y="695"/>
      <point x="361" y="706"/>
      <point x="313" y="708" type="curve" smooth="yes"/>
      <point x="259" y="708"/>
      <point x="223" y="700"/>
      <point x="190" y="683" type="curve" smooth="yes"/>
      <point x="126" y="648"/>
      <point x="86" y="587"/>
      <point x="71" y="502" type="curve" smooth="yes"/>
      <point x="16" y="189" type="line" smooth="yes"/>
      <point x="4" y="123"/>
      <point x="14" y="73"/>
      <point x="51" y="40" type="curve" smooth="yes"/>
      <point x="86" y="7"/>
      <point x="132" y="-10"/>
      <point x="192" y="-10" type="curve" smooth="yes"/>
      <point x="217" y="-10"/>
      <point x="248" y="-4"/>
      <point x="285" y="8" type="curve"/>
      <point x="289" y="0" type="line"/>
      <point x="394" y="0" type="line"/>
      <point x="446" y="300" type="line"/>
      <point x="244" y="300" type="line"/>
      <point x="261" y="195" type="line"/>
      <point x="318" y="195" type="line"/>
      <point x="316" y="186" type="line"/>
      <point x="311" y="156"/>
      <point x="298" y="133"/>
      <point x="278" y="119" type="curve" smooth="yes"/>
      <point x="261" y="107"/>
      <point x="238" y="101"/>
      <point x="210" y="101" type="curve" smooth="yes"/>
      <point x="145" y="101"/>
      <point x="114" y="123"/>
      <point x="125" y="187" type="curve" smooth="yes"/>
      <point x="182" y="510" type="line" smooth="yes"/>
      <point x="189" y="549"/>
      <point x="207" y="571"/>
      <point x="233" y="583" type="curve" smooth="yes"/>
      <point x="252" y="591"/>
      <point x="274" y="594"/>
      <point x="299" y="594" type="curve" smooth="yes"/>
      <point x="327" y="594"/>
      <point x="357" y="587"/>
    </contour>
    <contour>
      <point x="120" y="-204" type="curve"/>
      <point x="141" y="-219" type="line"/>
      <point x="141" y="-219"/>
      <point x="216" y="-178"/>
      <point x="232" y="-87" type="curve" smooth="yes"/>
      <point x="238" y="-54"/>
      <point x="216" y="-28"/>
      <point x="183" y="-28" type="curve" smooth="yes"/>
      <point x="150" y="-28"/>
      <point x="118" y="-54"/>
      <point x="112" y="-87" type="curve" smooth="yes"/>
      <point x="107" y="-116"/>
      <point x="122" y="-138"/>
      <point x="147" y="-145" type="curve"/>
      <point x="142" y="-164"/>
      <point x="133" y="-185"/>
    </contour>
  </outline>
</glyph>
<glyph name="gcommaaccent" format="2">
  <advance width="448"/>
  <unicode hex="0123"/>
  <outline>
    <contour>
      <point x="344" y="-64" type="curve" smooth="yes"/>
      <point x="443" y="499" type="line"/>
      <point x="333" y="499" type="line"/>
      <point x="330" y="477" type="line"/>
      <point x="302" y="498"/>
      <point x="270" y="509"/>
      <point x="234" y="509" type="curve" smooth="yes"/>
      <point x="131" y="509"/>
      <point x="64" y="446"/>
      <point x="46" y="345" type="curve" smooth="yes"/>
      <point x="17" y="176" type="line" smooth="yes"/>
      <point x="-5" y="53"/>
      <point x="43" y="-12"/>
      <point x="154" y="-12" type="curve" smooth="yes"/>
      <point x="187" y="-12"/>
      <point x="222" y="-3"/>
      <point x="248" y="12" type="curve"/>
      <point x="236" y="-53" type="line" smooth="yes"/>
      <point x="227" y="-106"/>
      <point x="185" y="-124"/>
      <point x="152" y="-124" type="curve"/>
      <point x="163" y="-210" type="line"/>
      <point x="258" y="-210"/>
      <point x="326" y="-169"/>
    </contour>
    <contour>
      <point x="314" y="386" type="curve"/>
      <point x="270" y="139" type="line" smooth="yes"/>
      <point x="266" y="116"/>
      <point x="237" y="92"/>
      <point x="181" y="88" type="curve"/>
      <point x="133" y="88"/>
      <point x="117" y="120"/>
      <point x="124" y="159" type="curve" smooth="yes"/>
      <point x="155" y="337" type="line" smooth="yes"/>
      <point x="165" y="393"/>
      <point x="205" y="410"/>
      <point x="242" y="410" type="curve" smooth="yes"/>
      <point x="276" y="410"/>
      <point x="314" y="386"/>
    </contour>
    <contour>
      <point x="334" y="726" type="curve"/>
      <point x="311" y="741" type="line"/>
      <point x="311" y="741"/>
      <point x="237" y="700"/>
      <point x="221" y="609" type="curve" smooth="yes"/>
      <point x="215" y="576"/>
      <point x="237" y="550"/>
      <point x="270" y="550" type="curve" smooth="yes"/>
      <point x="303" y="550"/>
      <point x="335" y="576"/>
      <point x="341" y="609" type="curve" smooth="yes"/>
      <point x="346" y="637"/>
      <point x="330" y="661"/>
      <point x="307" y="667" type="curve"/>
      <point x="311" y="686"/>
      <point x="320" y="708"/>
    </contour>
  </outline>
</glyph>
<glyph name="Hbar" format="2">
  <advance width="587"/>
  <unicode hex="0126"/>
  <outline>
    <contour>
      <point x="175" y="308" type="line"/>
      <point x="386" y="308" type="line"/>
      <point x="332" y="0" type="line"/>
      <point x="441" y="0" type="line"/>
      <point x="528" y="499" type="line"/>
      <point x="574" y="499" type="line"/>
      <point x="593" y="603" type="line"/>
      <point x="547" y="603" type="line"/>
      <point x="564" y="698" type="line"/>
      <point x="455" y="698" type="line"/>
      <point x="438" y="603" type="line"/>
      <point x="227" y="603" type="line"/>
      <point x="244" y="698" type="line"/>
      <point x="134" y="698" type="line"/>
      <point x="117" y="603" type="line"/>
      <point x="66" y="603" type="line"/>
      <point x="47" y="499" type="line"/>
      <point x="98" y="499" type="line"/>
      <point x="11" y="0" type="line"/>
      <point x="121" y="0" type="line"/>
    </contour>
    <contour>
      <point x="419" y="499" type="line"/>
      <point x="404" y="413" type="line"/>
      <point x="193" y="413" type="line"/>
      <point x="208" y="499" type="line"/>
    </contour>
  </outline>
</glyph>
<glyph name="Itilde" format="2">
  <advance width="301"/>
  <unicode hex="0128"/>
  <outline>
    <contour>
      <point x="53" y="593" type="line"/>
      <point x="115" y="591" type="line"/>
      <point x="11" y="0" type="line"/>
      <point x="121" y="0" type="line"/>
      <point x="244" y="698" type="line"/>
      <point x="72" y="698" type="line"/>
    </contour>
    <contour>
      <point x="333" y="770" type="curve"/>
      <point x="318" y="829" type="line"/>
      <point x="302" y="818"/>
      <point x="284" y="812"/>
      <point x="268" y="811" type="curve"/>
      <point x="231" y="811"/>
      <point x="203" y="829"/>
      <point x="170" y="829" type="curve" smooth="yes"/>
      <point x="133" y="829"/>
      <point x="104" y="816"/>
      <point x="75" y="796" type="curve"/>
      <point x="94" y="738" type="line"/>
      <point x="103" y="744"/>
      <point x="119" y="756"/>
      <point x="143" y="757" type="curve" smooth="yes"/>
      <point x="181" y="757"/>
      <point x="210" y="740"/>
      <point x="244" y="740" type="curve" smooth="yes"/>
      <point x="278" y="740"/>
      <point x="307" y="752"/>
    </contour>
  </outline>
</glyph>
<glyph name="Imacron" format="2">
  <advance width="293"/>
  <unicode hex="012A"/>
  <outline>
    <contour>
      <point x="53" y="593" type="line"/>
      <point x="115" y="591" type="line"/>
      <point x="11" y="0" type="line"/>
      <point x="120" y="0" type="line"/>
      <point x="243" y="698" type="line"/>
      <point x="72" y="698" type="line"/>
    </contour>
    <contour>
      <point x="87" y="741" type="line"/>
      <point x="307" y="741" type="line"/>
      <point x="323" y="833" type="line"/>
      <point x="103" y="833" type="line"/>
    </contour>
  </outline>
</glyph>
<glyph name="imacron" format="2">
  <advance width="280"/>
  <unicode hex="012B"/>
  <outline>
    <contour>
      <point x="11" y="0" type="line"/>
      <point x="121" y="0" type="line"/>
      <point x="208" y="499" type="line"/>
      <point x="98" y="499" type="line"/>
    </contour>
    <contour>
      <point x="51" y="544" type="line"/>
      <point x="272" y="544" type="line"/>
      <point x="289" y="636" type="line"/>
      <point x="68" y="636" type="line"/>
    </contour>
  </outline>
</glyph>
<glyph name="Iogonek" format="2">
  <advance width="313"/>
  <unicode hex="012E"/>
  <outline>
    <contour>
      <point x="125" y="593" type="line"/>
      <point x="187" y="591" type="line"/>
      <point x="83" y="0" type="line"/>
      <point x="192" y="0" type="line"/>
      <point x="315" y="698" type="line"/>
      <point x="144" y="698" type="line"/>
    </contour>
    <contour>
      <point x="79" y="-127" type="curve" smooth="yes"/>
      <point x="181" y="-1" type="line"/>
      <point x="184" y="12" type="line"/>
      <point x="93" y="3" type="line"/>
      <point x="92" y="-1" type="line"/>
      <point x="23" y="-90" type="line" smooth="yes"/>
      <point x="-43" y="-178"/>
      <point x="13" y="-255"/>
      <point x="108" y="-228" type="curve" smooth="yes"/>
      <point x="131" y="-222"/>
      <point x="217" y="-194"/>
      <point x="219" y="-193" type="curve"/>
      <point x="207" y="-122" type="line"/>
      <point x="207" y="-122"/>
      <point x="127" y="-149"/>
      <point x="98" y="-157" type="curve"/>
      <point x="73" y="-166"/>
      <point x="63" y="-147"/>
    </contour>
  </outline>
</glyph>
<glyph name="iogonek" format="2">
  <advance width="310"/>
  <unicode hex="012F"/>
  <outline>
    <contour>
      <point x="78" y="0" type="line"/>
      <point x="188" y="0" type="line"/>
      <point x="275" y="499" type="line"/>
      <point x="165" y="499" type="line"/>
    </contour>
    <contour>
      <point x="307" y="650" type="curve" smooth="yes"/>
      <point x="313" y="683"/>
      <point x="291" y="710"/>
      <point x="258" y="710" type="curve" smooth="yes"/>
      <point x="225" y="710"/>
      <point x="193" y="683"/>
      <point x="187" y="650" type="curve" smooth="yes"/>
      <point x="181" y="617"/>
      <point x="204" y="591"/>
      <point x="237" y="591" type="curve" smooth="yes"/>
      <point x="270" y="591"/>
      <point x="301" y="617"/>
    </contour>
    <contour>
      <point x="75" y="-129" type="curve" smooth="yes"/>
      <point x="177" y="-4" type="line"/>
      <point x="179" y="10" type="line"/>
      <point x="89" y="1" type="line"/>
      <point x="88" y="-3" type="line"/>
      <point x="17" y="-94" type="line" smooth="yes"/>
      <point x="-50" y="-183"/>
      <point x="9" y="-255"/>
      <point x="104" y="-230" type="curve" smooth="yes"/>
      <point x="127" y="-224"/>
      <point x="213" y="-196"/>
      <point x="216" y="-196" type="curve"/>
      <point x="202" y="-124" type="line"/>
      <point x="202" y="-124"/>
      <point x="122" y="-150"/>
      <point x="93" y="-160" type="curve"/>
      <point x="68" y="-172"/>
      <point x="60" y="-147"/>
    </contour>
  </outline>
</glyph>
<glyph name="Idotaccent" format="2">
  <advance width="258"/>
  <unicode hex="0130"/>
  <outline>
    <contour>
      <point x="52" y="593" type="line"/>
      <point x="115" y="591" type="line"/>
      <point x="11" y="0" type="line"/>
      <point x="121" y="0" type="line"/>
      <point x="244" y="698" type="line"/>
      <point x="71" y="698" type="line"/>
    </contour>
    <contour>
      <point x="221" y="861" type="curve" smooth="yes"/>
      <point x="188" y="861"/>
      <point x="157" y="834"/>
      <point x="151" y="801" type="curve" smooth="yes"/>
      <point x="145" y="768"/>
      <point x="167" y="741"/>
      <point x="200" y="741" type="curve" smooth="yes"/>
      <point x="232" y="741"/>
      <point x="264" y="768"/>
      <point x="270" y="801" type="curve" smooth="yes"/>
      <point x="276" y="834"/>
      <point x="253" y="861"/>
    </contour>
  </outline>
</glyph>
<glyph name="dotlessi" format="1">
  <advance width="207"/>
  <unicode hex="0131"/>
  <outline>
    <contour>
      <point x="0" y="0" type="line"/>
      <point x="110" y="0" type="line"/>
      <point x="197" y="499" type="line"/>
      <point x="87" y="499" type="line"/>
    </contour>
    <contour>
      <point x="103" y="300" type="move" name="center"/>
    </contour>
    <contour>
      <point x="103" y="0" type="move" name="ogonek"/>
    </contour>
    <contour>
      <point x="103" y="545" type="move" name="top"/>
    </contour>
    <contour>
      <point x="103" y="545" type="move" name="tonos"/>
    </contour>
    <contour>
      <point x="103" y="0" type="move" name="bottom"/>
    </contour>
  </outline>
</glyph>
<glyph name="IJ" format="1">
  <advance width="509"/>
  <unicode hex="0132"/>
  <outline>
    <contour>
      <point x="520" y="698" type="line"/>
      <point x="351" y="698" type="line"/>
      <point x="332" y="593" type="line"/>
      <point x="391" y="592" type="line"/>
      <point x="323" y="206" type="line" smooth="yes"/>
      <point x="317" y="172"/>
      <point x="301" y="144"/>
      <point x="279" y="127" type="curve" smooth="yes"/>
      <point x="259" y="110"/>
      <point x="227" y="98"/>
      <point x="198" y="98" type="curve" smooth="yes"/>
      <point x="168" y="98"/>
      <point x="145" y="107"/>
      <point x="132" y="121" type="curve" smooth="yes"/>
      <point x="114" y="139"/>
      <point x="116" y="168"/>
      <point x="122" y="204" type="curve" smooth="yes"/>
      <point x="126" y="223" type="line"/>
      <point x="16" y="223" type="line"/>
      <point x="9" y="185" type="line" smooth="yes"/>
      <point x="-3" y="118"/>
      <point x="18" y="67"/>
      <point x="53" y="35" type="curve"/>
      <point x="89" y="4"/>
      <point x="129" y="-11"/>
      <point x="186" y="-11" type="curve" smooth="yes"/>
      <point x="243" y="-11"/>
      <point x="295" y="5"/>
      <point x="341" y="36" type="curve" smooth="yes"/>
      <point x="387" y="68"/>
      <point x="417" y="118"/>
      <point x="429" y="185" type="curve" smooth="yes"/>
    </contour>
    <contour>
      <point x="210" y="698" type="line"/>
      <point x="36" y="698" type="line"/>
      <point x="17" y="593" type="line"/>
      <point x="81" y="591" type="line"/>
      <point x="33" y="320" type="line"/>
      <point x="143" y="320" type="line"/>
    </contour>
  </outline>
</glyph>
<glyph name="ij" format="2">
  <advance width="480"/>
  <unicode hex="0133"/>
  <outline>
    <contour>
      <point x="164" y="708" type="curve" smooth="yes"/>
      <point x="131" y="708"/>
      <point x="101" y="683"/>
      <point x="95" y="650" type="curve" smooth="yes"/>
      <point x="89" y="617"/>
      <point x="111" y="590"/>
      <point x="144" y="590" type="curve" smooth="yes"/>
      <point x="177" y="590"/>
      <point x="208" y="617"/>
      <point x="214" y="650" type="curve" smooth="yes"/>
      <point x="220" y="683"/>
      <point x="197" y="708"/>
    </contour>
    <contour>
      <point x="475" y="649" type="curve" smooth="yes"/>
      <point x="481" y="682"/>
      <point x="457" y="708"/>
      <point x="424" y="708" type="curve" smooth="yes"/>
      <point x="391" y="708"/>
      <point x="361" y="682"/>
      <point x="355" y="649" type="curve" smooth="yes"/>
      <point x="349" y="617"/>
      <point x="371" y="590"/>
      <point x="404" y="590" type="curve" smooth="yes"/>
      <point x="437" y="590"/>
      <point x="469" y="617"/>
    </contour>
    <contour>
      <point x="332" y="501" type="line"/>
      <point x="275" y="176" type="line" smooth="yes"/>
      <point x="266" y="130"/>
      <point x="225" y="94"/>
      <point x="180" y="94" type="curve" smooth="yes"/>
      <point x="139" y="94"/>
      <point x="116" y="123"/>
      <point x="123" y="161" type="curve" smooth="yes"/>
      <point x="183" y="501" type="line"/>
      <point x="72" y="501" type="line"/>
      <point x="11" y="158" type="line" smooth="yes"/>
      <point x="-11" y="30"/>
      <point x="63" y="-6"/>
      <point x="142" y="-6" type="curve" smooth="yes"/>
      <point x="184" y="-6"/>
      <point x="233" y="13"/>
      <point x="248" y="28" type="curve"/>
      <point x="235" y="-48" type="line" smooth="yes"/>
      <point x="231" y="-72"/>
      <point x="221" y="-89"/>
      <point x="206" y="-101" type="curve" smooth="yes"/>
      <point x="189" y="-114"/>
      <point x="169" y="-124"/>
      <point x="152" y="-124" type="curve"/>
      <point x="165" y="-213" type="line"/>
      <point x="198" y="-213"/>
      <point x="243" y="-199"/>
      <point x="274" y="-179" type="curve"/>
      <point x="311" y="-157"/>
      <point x="333" y="-116"/>
      <point x="343" y="-59" type="curve" smooth="yes"/>
      <point x="442" y="501" type="line"/>
    </contour>
  </outline>
</glyph>
